<?xml version="1.0" standalone="no"?>
<!DOCTYPE svg PUBLIC "-//W3C//DTD SVG 1.1//EN" "http://www.w3.org/Graphics/SVG/1.1/DTD/svg11.dtd" >
<svg xmlns="http://www.w3.org/2000/svg" xmlns:xlink="http://www.w3.org/1999/xlink" version="1.1">
<metadata>
Created by FontForge 20170731 at Fri Jul 20 05:06:15 2012
 By Aleksey,,,
(c) 2000-2012 Typodermic Fonts Inc. See attached license agreement. If agreement is missing visit typodermicfonts.com for more info.
</metadata>
<defs>
<font id="Duality-Regular" horiz-adv-x="393" >
  <font-face 
    font-family="Duality"
    font-weight="400"
    font-stretch="normal"
    units-per-em="1000"
    panose-1="4 1 4 0 0 0 0 0 0 0"
    ascent="780"
    descent="-220"
    x-height="518"
    cap-height="785"
    bbox="-175 -200 1021 998"
    underline-thickness="20"
    underline-position="-163"
    unicode-range="U+0017-FB02"
  />
<missing-glyph horiz-adv-x="723" 
d="M129 -170q-97 0 -97 84v838q0 85 97 85h463q98 0 98 -85v-838q0 -84 -98 -84h-463zM608 558q0 64 -24 103.5t-63 61.5t-87.5 29t-97.5 7q-96 0 -152.5 -44t-56.5 -129q0 -34 20 -57t61 -23q35 0 57.5 22t22.5 57q0 18 -14 32.5t-50 34.5q39 51 102 51q69 0 108 -39.5
t39 -111.5q0 -58 -16.5 -95t-46.5 -61.5t-72.5 -41.5t-94.5 -35q-18 -6 -35 -18.5t-30.5 -29t-21.5 -37t-8 -43.5q0 -59 87 -81q11 -4 24 -4q37 0 51 45q-5 6 -9 15.5t-7 21t-4.5 23t-1.5 20.5q0 51 79 66q70 14 116.5 33.5t74.5 49.5t39 73.5t11 104.5zM103 -4q0 -16 5 -32
t15 -28.5t24.5 -20t32.5 -7.5t33.5 6.5t27 18t18 27t6.5 32.5q0 32 -24 55.5t-61 23.5q-38 0 -57.5 -22.5t-19.5 -52.5z" />
    <glyph glyph-name="copyright" unicode="&#x28;C&#x29;" horiz-adv-x="821" 
d="M412 -21q-78 0 -147 32.5t-120 88.5t-81 131t-30 161q0 85 30 160.5t81 132t120 89.5t147 33q79 0 148.5 -33t121 -89.5t81 -132t29.5 -160.5q0 -86 -29.5 -161t-81 -131t-121 -88.5t-148.5 -32.5zM415 25q69 0 130 28.5t106.5 78t72.5 116t27 142.5t-27 143.5t-72.5 118
t-106.5 80t-130 29.5q-70 0 -131.5 -29.5t-107 -80t-71.5 -118t-26 -143.5t26 -142.5t71.5 -116t107 -78t131.5 -28.5zM545 302q-2 -51 -37.5 -80t-88.5 -29q-26 0 -54.5 12.5t-51.5 35t-38 53.5t-15 69q0 54 11.5 98.5t33.5 75.5t52.5 48t68.5 17q18 0 38 -9.5t36.5 -24
t27 -31t10.5 -31.5q0 -62 -72 -62q-16 0 -28 13.5t-12 29.5q0 39 57 39q0 31 -48 31q-21 0 -38 -12t-28.5 -34t-17.5 -51.5t-6 -64.5q0 -27 6.5 -53t18.5 -46.5t28 -32.5t35 -12q10 0 17.5 2.5t15 9.5t16 18.5t20.5 29.5q14 -4 43 -9z" />
    <glyph glyph-name="registered" unicode="&#x28;R&#x29;" horiz-adv-x="578" 
d="M99 561q0 -34 13.5 -67t38.5 -59t61 -42t81 -16q42 0 79.5 14t65.5 39t44.5 58.5t16.5 72.5q0 34 -15.5 66.5t-42.5 58.5t-65 42t-83 16t-81 -16t-61 -42t-38.5 -58.5t-13.5 -66.5zM54 561q0 46 18 87.5t49.5 72.5t75.5 49t97 18t97.5 -17.5t77 -48.5t51 -72t18.5 -89
q0 -45 -18.5 -85.5t-51.5 -72t-77.5 -50t-96.5 -18.5q-53 0 -97 18.5t-75.5 50t-49.5 72t-18 85.5zM310 487q-1 -4 -1 -12q0 -11 1 -16q-15 0 -29.5 0.5t-29.5 0.5h-27t-27 -1l1 25q36 0 36 33q0 30 2.5 62.5t2.5 60.5q0 8 -5 13t-22 5q2 9 1 14.5t2 9t12.5 4.5t32.5 1
q73 0 101.5 -12.5t28.5 -42.5q0 -18 -17.5 -35.5t-39.5 -22.5q23 -6 32 -16.5t9 -29.5q0 -5 -0.5 -15.5t-0.5 -18.5q0 -7 5 -7q12 0 12 32q4 -2 9 -2q3 0 9 2q2 -10 2 -17q0 -17 -9.5 -31t-30.5 -14q-19 0 -27 7.5t-11 18.5t-3.5 24.5t-4 24.5t-12.5 18.5t-30 7.5
q-2 -20 -4 -38t-2 -20q0 -8 8.5 -10.5t25.5 -2.5zM283 665q-1 -8 -1 -17v-18v-22.5t1 -22.5q28 0 39 11.5t11 29.5q0 39 -39 39h-11z" />
    <glyph glyph-name="uni2117" unicode="&#x28;P&#x29;" horiz-adv-x="821" 
d="M412 -21q-78 0 -147 32.5t-120 88.5t-81 131t-30 161q0 85 30 160.5t81 132t120 89.5t147 33q79 0 148.5 -33t121 -89.5t81 -132t29.5 -160.5q0 -86 -29.5 -161t-81 -131t-121 -88.5t-148.5 -32.5zM415 25q69 0 130 28.5t106.5 78t72.5 116t27 142.5t-27 143.5t-72.5 118
t-106.5 80t-130 29.5q-70 0 -131.5 -29.5t-107 -80t-71.5 -118t-26 -143.5t26 -142.5t71.5 -116t107 -78t131.5 -28.5zM450 170q-24 1 -48 1.5t-48 0.5q-22 0 -44 -0.5t-45 -1.5q1 5 1 17v32q59 0 59 66q0 32 1 61t2.5 58.5t3 59.5t1.5 64q0 16 -12 25t-32 9q2 12 3 23.5
t1 28.5q10 4 24.5 5.5t49.5 1.5q60 0 100 -6t64 -18.5t34 -33.5t10 -51q0 -26 -12.5 -52.5t-33 -48t-47 -35.5t-53.5 -14q-15 0 -26 4q-2 -20 -3.5 -39.5t-3 -36l-2.5 -27.5t-1 -12q0 -12 12.5 -19t32.5 -7q7 0 11 1v-22.5t1 -33.5zM403 578q-3 -38 -3 -75q0 -23 1 -46.5
t2 -47.5q45 8 63 29t18 65q0 75 -63 75h-18z" />
    <glyph glyph-name=".notdef" horiz-adv-x="723" 
d="M129 -170q-97 0 -97 84v838q0 85 97 85h463q98 0 98 -85v-838q0 -84 -98 -84h-463zM608 558q0 64 -24 103.5t-63 61.5t-87.5 29t-97.5 7q-96 0 -152.5 -44t-56.5 -129q0 -34 20 -57t61 -23q35 0 57.5 22t22.5 57q0 18 -14 32.5t-50 34.5q39 51 102 51q69 0 108 -39.5
t39 -111.5q0 -58 -16.5 -95t-46.5 -61.5t-72.5 -41.5t-94.5 -35q-18 -6 -35 -18.5t-30.5 -29t-21.5 -37t-8 -43.5q0 -59 87 -81q11 -4 24 -4q37 0 51 45q-5 6 -9 15.5t-7 21t-4.5 23t-1.5 20.5q0 51 79 66q70 14 116.5 33.5t74.5 49.5t39 73.5t11 104.5zM103 -4q0 -16 5 -32
t15 -28.5t24.5 -20t32.5 -7.5t33.5 6.5t27 18t18 27t6.5 32.5q0 32 -24 55.5t-61 23.5q-38 0 -57.5 -22.5t-19.5 -52.5z" />
    <glyph glyph-name=".null" horiz-adv-x="0" 
 />
    <glyph glyph-name="nonmarkingreturn" horiz-adv-x="262" 
 />
    <glyph glyph-name="uni0017" horiz-adv-x="262" 
 />
    <glyph glyph-name="space" unicode=" " horiz-adv-x="222" 
 />
    <glyph glyph-name="exclam" unicode="!" horiz-adv-x="289" 
d="M116 182v25q0 24 -4.5 71.5t-11 105t-14.5 119t-14.5 113.5l-11 88t-4.5 44q0 21 7 40t19.5 34t30.5 23.5t39 8.5q45 0 70 -34t25 -89q-12 -96 -23 -182t-20 -156.5t-14 -124.5t-5 -86h-69zM146 -46q-16 0 -29.5 7.5t-23.5 20t-16 28t-6 32.5q0 25 22.5 45.5t55.5 20.5
t55 -22t22 -55q0 -15 -6.5 -29t-17.5 -24.5t-25.5 -17t-30.5 -6.5z" />
    <glyph glyph-name="quotedbl" unicode="&#x22;" horiz-adv-x="362" 
d="M33 549zM70 549q0 27 -2 48.5t-6 42t-9 41t-12 44.5q-5 14 -6.5 25.5t-1.5 22.5q0 29 17.5 48t41.5 19q28 0 43.5 -22t15.5 -55q0 -17 -6 -41t-13 -52.5t-13 -59.5t-6 -61h-43zM251 549q0 27 -2 48.5t-6 42t-9 41t-12 44.5q-5 14 -6.5 25.5t-1.5 22.5q0 29 17.5 48
t41.5 19q28 0 43.5 -22t15.5 -55q0 -17 -6 -41t-13 -52.5t-13 -59.5t-6 -61h-43z" />
    <glyph glyph-name="numbersign" unicode="#" horiz-adv-x="520" 
d="M92 28q-7 0 -17 -5.5t-27 -13.5l49 186q-25 -6 -43 -8.5t-30 -2.5q-10 0 -10 32v12.5t1 18.5l101 15l68 262q-53 -10 -106 -29l14 72q35 12 109 25l50 183q2 -1 4 -2.5t4 -1.5q5 0 15.5 2t13.5 2l-47 -179q17 1 41 4t59 8q13 54 27 100t26 90q13 0 21.5 0.5t17.5 2.5
l-45 -188q20 2 49 6t67 10l-15 -81h-57h-28.5t-31.5 -2q-20 -81 -34.5 -147.5t-23.5 -120.5l99 7l-15 -60l-94 2q-11 -60 -18.5 -114t-10.5 -103q-12 -1 -29.5 -5t-38.5 -12q15 75 26 132.5t21 99.5q-19 -2 -48.5 -8t-68.5 -15zM159 265q16 3 38.5 5.5t53.5 4.5
q17 76 31.5 143t29.5 127q-9 -1 -29 -4t-53 -9z" />
    <glyph glyph-name="dollar" unicode="$" horiz-adv-x="512" 
d="M223 -24q-5 -1 -15 -1q-7 0 -14 1t-15 4q-2 7 -4 21t-4 25q-66 39 -99 75t-33 77q0 76 64 76q30 0 43 -20l3.5 -11t9.5 -28.5t14.5 -38t19.5 -38.5q3 9 3 43v206q-66 38 -94 83.5t-28 93.5q0 35 10 61t24 46.5t29 36.5t26 31q0 5 0.5 9t0.5 8q0 18 -2 32.5t-2 26.5
q0 6 4 7.5t9 1.5t10 1t8 6l27 -70q8 2 17.5 3.5t20.5 1.5q13 0 28 -3l-5 68l37 7q4 -13 4 -32.5t11 -40.5q30 0 54 -15t40.5 -37t25 -45.5t8.5 -40.5q0 -92 -73 -92q-11 0 -20 15t-17 35.5t-15 42t-14 34.5q-5 -5 -5 -42q0 -18 0.5 -42.5t0.5 -56.5v-98q39 -21 64 -41
t39.5 -40t20.5 -42t6 -47q0 -34 -3.5 -59.5t-15.5 -47.5t-36 -43t-65 -46q-5 -14 -5 -69q-4 -1 -15 -1q-8 0 -14 1.5t-6 12.5q0 9 1 21t3 17h-61q-3 -3 -4.5 -13t-1.5 -30zM218 451q8 -8 25.5 -16.5t41.5 -18.5v292q-13 -2 -28.5 -5.5t-38.5 -11.5v-240zM225 96
q32 -13 47 -13q10 0 15 5l9 240q-12 4 -30 11t-41 15v-258zM327 111q11 4 21 15t17.5 24.5t11.5 28.5t4 29q0 7 -2.5 20.5t-9 28t-17 27.5t-25.5 21v-194zM185 666q-17 -9 -25 -29.5t-8 -40.5q0 -40 9 -62t24 -43v175z" />
    <glyph glyph-name="percent" unicode="%" horiz-adv-x="754" 
d="M29 0zM152 406q-29 0 -51.5 14.5t-38.5 41t-24.5 63.5t-8.5 81q0 99 33.5 154.5t96.5 55.5q60 0 91 -51t31 -143q0 -101 -33.5 -158.5t-95.5 -57.5zM152 459q10 0 19.5 13t16 33.5t10.5 46.5t4 52q0 30 -3.5 60t-9.5 54t-14.5 39.5t-18.5 15.5q-49 0 -49 -146
q0 -168 45 -168zM30 -6q21 20 62.5 69.5t94.5 117t113.5 149.5t120 166.5t113.5 168t95 154.5q16 -14 21.5 -20.5t8.5 -14.5q-10 -28 -39 -77.5t-69 -112t-88.5 -133.5t-98.5 -140.5t-97.5 -133t-86.5 -112.5t-66 -78t-34 -29q-10 0 -25.5 6t-24.5 20zM604 -28
q-29 0 -51.5 14.5t-38.5 41t-24.5 63.5t-8.5 81q0 99 33.5 154.5t96.5 55.5q60 0 91 -51t31 -143q0 -101 -33.5 -158.5t-95.5 -57.5zM604 25q10 0 19.5 13t16 33.5t10.5 46.5t4 52q0 30 -3.5 60t-9.5 54t-14.5 39.5t-18.5 15.5q-49 0 -49 -146q0 -168 45 -168z" />
    <glyph glyph-name="ampersand" unicode="&#x26;" horiz-adv-x="752" 
d="M591 399q-33 0 -84 -131q-11 -28 -22.5 -56.5t-16.5 -58.5q1 -12 17 -37.5t36.5 -51t41.5 -45t34 -19.5q14 0 29 12q-11 4 -22.5 8t-20.5 11t-15 19.5t-6 35.5q0 67 73 67q18 0 32.5 -8t25 -21.5t16 -31t5.5 -36.5q0 -97 -120 -97q-26 0 -44 3t-36 15t-38.5 35.5
t-51.5 64.5q-27 -54 -74 -86t-100 -32q-42 0 -83 21.5t-73 55.5t-52 76.5t-20 84.5q0 43 16.5 80.5t44 69.5t62.5 59t71 50q-12 24 -23.5 49t-21 49t-15 45.5t-5.5 37.5q0 27 15.5 52t40.5 43.5t57.5 30t65.5 11.5q29 0 54 -11.5t44 -31t29.5 -46t10.5 -55.5q0 -54 -34 -111
q-8 -13 -22 -32.5t-29 -39t-27.5 -35t-16.5 -21.5q3 -6 8.5 -18t15.5 -31t25 -47t36 -66q40 69 63.5 112t42 68t37 34t47.5 9q46 0 73 -29.5t27 -75.5q0 -43 -17 -57t-59 -14q-71 0 -71 59q0 17 9.5 33t32.5 22q-2 5 -7.5 7t-10.5 2zM277 352q-41 -38 -66.5 -66t-39.5 -51
t-19.5 -43t-5.5 -42q0 -27 9 -51.5t24 -44t35 -31t43 -11.5q45 0 80 38t48 98zM265 499q16 19 32.5 37.5t29.5 37.5t21 38t8 39q0 13 -5.5 25.5t-14.5 22.5t-20.5 16t-23.5 6q-14 0 -27 -7.5t-22.5 -18.5t-15.5 -25.5t-6 -27.5q0 -9 1.5 -19t6 -25.5t13.5 -39t23 -59.5z" />
    <glyph glyph-name="quotesingle" unicode="'" horiz-adv-x="181" 
d="M70 549q0 27 -2 48.5t-6 42t-9 41t-12 44.5q-5 14 -6.5 25.5t-1.5 22.5q0 29 17.5 48t41.5 19q28 0 43.5 -22t15.5 -55q0 -17 -6 -41t-13 -52.5t-13 -59.5t-6 -61h-43z" />
    <glyph glyph-name="parenleft" unicode="(" horiz-adv-x="362" 
d="M302 -156q-46 0 -77 20t-50.5 52t-28 73t-8.5 83q0 147 5.5 295t16.5 306q5 74 48 117.5t119 52.5v-34q-40 0 -62 -41t-32 -116.5t-11.5 -181.5t-1.5 -236q0 -70 2 -141.5t10 -147.5q1 -17 10 -29.5t21 -20.5t24.5 -13t20.5 -7z" />
    <glyph glyph-name="parenright" unicode=")" horiz-adv-x="358" 
d="M43 843q46 0 77 -20t50.5 -52t28 -73t8.5 -83q0 -147 -5.5 -295t-16.5 -306q-5 -74 -48 -117.5t-119 -52.5v34q40 0 62 41t32 116.5t11.5 181.5t1.5 236q0 70 -2.5 141.5t-9.5 147.5q-2 17 -11 29.5t-21 20.5t-24 13t-20 7z" />
    <glyph glyph-name="asterisk" unicode="*" horiz-adv-x="361" 
d="M181 583q0 -13 7 -20.5t15.5 -13.5t15.5 -12t7 -16q0 -12 -7 -21t-16 -15t-18 -9t-13 -3q-8 0 -17 4.5t-17 11t-13.5 15t-5.5 16.5q0 11 7.5 21.5t16 19t16 14.5t7.5 9q0 24 -20 24q-2 0 -11 -4.5t-20.5 -10t-24.5 -10t-24 -4.5q-19 0 -35.5 14.5t-16.5 34.5
q0 13 11.5 26t34.5 13q10 0 19.5 -5.5t18 -12.5t15 -12.5t9.5 -5.5q8 0 22 3.5t22 12.5q-9 30 -22 42t-25 18.5t-20.5 13.5t-8.5 28q0 6 3 14.5t8 15.5t11.5 12t12.5 5q52 0 52 -40q0 -8 -1.5 -19.5l-3 -23t-3 -20t-1.5 -11.5q0 -7 3.5 -11t17.5 -4q13 0 18.5 8t7.5 20.5
t3 27t5.5 27t15 20.5t30.5 8q17 0 27.5 -14.5t10.5 -32.5q0 -28 -8.5 -35.5t-22 -10.5t-30 -10t-33.5 -35q8 -5 19 -5q9 0 26 4t26 4q20 0 38.5 -11t18.5 -26q0 -20 -17.5 -35.5t-37.5 -15.5q-14 0 -25 8.5t-19.5 18t-16 18t-15.5 8.5q-2 0 -4 0.5t-4 0.5q-9 0 -15 -6.5
t-6 -19.5z" />
    <glyph glyph-name="plus" unicode="+" horiz-adv-x="579" 
d="M259 371h-203q-2 9 -4 29t-2 37h209v203q9 2 29 4t37 2v-209h199l10 -66h-209v-199l-66 -10v209z" />
    <glyph glyph-name="comma" unicode="," horiz-adv-x="227" 
d="M66 -49v39q10 -2 15 -2q47 0 47 30q0 7 -1 9q-6 0 -19 -3.5t-19 -3.5q-25 0 -42 19.5t-17 45.5q0 35 27.5 55t72.5 20q29 0 46.5 -27.5t17.5 -65.5q0 -18 -8 -38t-20.5 -37.5t-27.5 -29t-30 -11.5h-42z" />
    <glyph glyph-name="hyphen" unicode="-" horiz-adv-x="361" 
d="M341 261q-66 3 -130 3q-84 0 -166 -3q-5 15 -7.5 44t-2.5 55q21 0 62.5 1t87.5 2.5t87.5 2.5t62.5 1q-1 -8 -1.5 -16t-0.5 -16q0 -36 8 -74z" />
    <glyph glyph-name="period" unicode="." horiz-adv-x="210" 
d="M101 -46q-16 0 -29.5 7.5t-23.5 20t-16 28t-6 32.5q0 25 22.5 45.5t55.5 20.5t55 -22t22 -55q0 -15 -6.5 -29t-17.5 -24.5t-25.5 -17t-30.5 -6.5z" />
    <glyph glyph-name="slash" unicode="/" horiz-adv-x="382" 
d="M-6 10q18 26 43 80.5t55 138.5q4 12 19.5 54.5t36.5 101.5t46 127.5t47.5 132t40.5 114.5t26 75q14 0 30 1.5t35 3.5l-302 -836z" />
    <glyph glyph-name="zero" unicode="0" horiz-adv-x="553" 
d="M274 -35q-57 0 -102.5 29t-77.5 82t-49 126t-17 162q0 98 17.5 176t50.5 132.5t81.5 83.5t111.5 29q59 0 104.5 -26.5t76 -76.5t46.5 -122.5t16 -163.5q0 -100 -17 -180t-50 -135.5t-81 -85.5t-110 -30zM274 71q21 0 39 26t31.5 67.5t21.5 93t8 103.5q0 59 -7 119
t-19.5 108.5t-29 79t-35.5 30.5q-98 0 -98 -292q0 -335 89 -335z" />
    <glyph glyph-name="one" unicode="1" horiz-adv-x="375" 
d="M31 -22q1 12 1 36v62q52 2 70 13.5t21 36.5q1 11 3 37.5t4.5 62.5t5 79.5t4.5 87.5t3 85t1 74q-18 5 -41 5q-14 0 -30.5 -1.5t-37.5 -3.5q1 4 1 9v10q0 11 -0.5 22t-0.5 22v24.5t1 28.5q21 -4 33.5 -5t23.5 -1q53 22 53 85q0 5 -0.5 13t-1.5 19h122v-682q4 -9 9 -14
t15 -7.5t26.5 -3.5t42.5 -2v-92h-328z" />
    <glyph glyph-name="two" unicode="2" horiz-adv-x="602" 
d="M216 148q36 0 75.5 -9.5t76.5 -20.5t69 -20.5t53 -9.5q13 0 23.5 14.5t10.5 31.5q0 13 -7 23q11 4 28 7.5t35 5.5q1 -6 4.5 -22t3.5 -25q0 -25 -10.5 -51.5t-28 -49t-40 -37t-46.5 -14.5q-37 0 -73 10t-69 22t-61.5 22t-50.5 10q-15 0 -32 -1t-38.5 -4t-48 -10t-59.5 -19
q-6 24 -9.5 45t-3.5 40q0 139 87 220q18 17 38 30.5t40.5 25.5t41.5 24.5t41 26.5q44 32 65 76.5t21 100.5q0 21 -10.5 44t-26.5 42.5t-36.5 32t-39.5 12.5q-15 0 -33 -8t-33.5 -21t-26.5 -28.5t-12 -30.5q16 18 34 18q26 0 43.5 -16t17.5 -42q0 -16 -7.5 -30t-20 -24.5
t-28.5 -16.5t-32 -6q-19 0 -36 8.5t-29.5 23t-20 32.5t-7.5 36q0 164 228 164q58 0 98.5 -12t65.5 -37.5t36 -66t11 -98.5q0 -57 -24 -105.5t-71 -92.5q-12 -11 -26 -21.5t-35 -24.5t-51 -33.5t-73 -48.5q-107 -73 -119 -140q61 48 128 48z" />
    <glyph glyph-name="three" unicode="3" horiz-adv-x="498" 
d="M498 782q-53 -88 -106 -173t-112 -165q43 -14 79 -38t61.5 -55.5t39.5 -69.5t14 -79q0 -56 -18 -100t-51.5 -74.5t-81.5 -46.5t-107 -16q-39 0 -72.5 8.5t-57.5 24t-38 37t-14 47.5q0 16 6.5 32t17.5 28.5t25 20t30 7.5q29 0 48.5 -23.5t19.5 -52.5q0 -38 -59 -57
q6 -25 77 -25q45 0 75 9t48.5 29t26.5 51t8 76q0 54 -10 90t-36 58t-70 32.5t-113 13.5q53 78 103.5 155t95.5 162q-4 4 -17 4q-61 0 -104 -4.5t-68 -15.5q-3 -1 -15.5 -11.5t-26 -23t-24 -22.5t-11.5 -10q-8 0 -22.5 3t-21.5 3q11 28 25.5 70.5t34.5 100.5h421z" />
    <glyph glyph-name="four" unicode="4" horiz-adv-x="535" 
d="M181 46q40 12 62.5 19t33 15.5t12.5 20.5t2 34q0 41 -15.5 57t-55.5 16q-6 0 -17.5 -0.5t-34.5 -1t-60.5 -1t-96.5 -0.5v26q0 8 20.5 54.5t65.5 133.5q25 49 52 102t51 102t42.5 90t27.5 67q13 0 41 1.5t59.5 4t61 4t45.5 1.5h30v-81q-12 3 -23 3q-26 0 -43.5 -14.5
t-31.5 -34.5v-281q0 -17 2 -28.5t9.5 -19t23.5 -11t43 -3.5h12.5t14.5 1q-5 -35 -6.5 -55t-1.5 -28q0 -17 7 -39h-94q-5 -13 -5 -34q0 -30 3 -50t10.5 -31t20 -15.5t31.5 -4.5q7 0 20 2.5t20 2.5q0 -7 3 -21.5t3 -21.5q0 -29 -13.5 -48.5t-35.5 -19.5q-8 0 -28 1t-55.5 2.5
t-87.5 2.5t-124 1v80zM116 317h2q27 0 53.5 -0.5t55.5 -0.5h28t29 1v286z" />
    <glyph glyph-name="five" unicode="5" horiz-adv-x="493" 
d="M86 771h338l-24 -184q-3 1 -5.5 2t-5.5 1q-11 0 -32 -1.5t-31 -1.5q2 10 3.5 22t1.5 27v28q-28 17 -33 17h-103q-24 -100 -42 -224q4 10 18.5 19.5t33.5 17t39.5 12t36.5 4.5q40 0 75.5 -23t62.5 -59.5t43 -83.5t16 -95q0 -59 -19.5 -113t-53 -94.5t-80 -64.5t-100.5 -24
q-38 0 -75 17t-66 45t-46.5 64.5t-17.5 75.5q0 98 74 98q13 0 29.5 -6t31.5 -16t25 -22t10 -24q0 -13 -5.5 -28t-15 -27.5t-22.5 -21t-28 -8.5q-3 0 -9.5 2.5t-13.5 5.5t-13.5 5.5t-10.5 2.5q23 -52 51.5 -72t78.5 -20q30 0 56 16.5t45 44t29.5 65t10.5 79.5q0 182 -118 182
q-20 0 -35.5 -4.5t-28 -14t-23 -25.5t-20.5 -39q-15 6 -36 11.5t-49 13.5z" />
    <glyph glyph-name="six" unicode="6" horiz-adv-x="517" 
d="M164 404q46 77 179 77q36 0 65.5 -25.5t50 -62t31.5 -77t11 -70.5q0 -54 -15 -104.5t-41 -89.5t-62.5 -63t-78.5 -24q-284 0 -284 372q0 95 20.5 176t58 140.5t90.5 93t118 33.5q37 0 70 -10t58 -27.5t39.5 -41.5t14.5 -53q0 -14 -5.5 -27t-15 -23.5t-21.5 -16.5t-25 -6
q-79 0 -79 70q0 35 47 73q-44 21 -65 21q-50 0 -81.5 -31t-49.5 -76.5t-24.5 -98.5t-6.5 -97v-16.5t1 -15.5zM278 35q25 0 42 9t27 32t14.5 61.5t4.5 98.5q0 157 -97 157q-51 0 -73.5 -27.5t-22.5 -98.5q0 -66 5.5 -110.5t18 -71.5t32.5 -38.5t49 -11.5z" />
    <glyph glyph-name="seven" unicode="7" horiz-adv-x="512" 
d="M135 109q0 57 12.5 111t41.5 113t77.5 128t120.5 156q-11 0 -32 -3.5t-32 -3.5q-26 0 -64.5 9t-89.5 29q-26 10 -42.5 15.5t-23.5 5.5q-16 0 -21 -11.5t-5 -25.5q0 -9 1 -18t3 -15q-12 2 -27 4t-35 2q-7 8 -7 28q0 62 38 101.5t100 39.5q18 0 53 -8.5t73 -18t73 -18
t53 -8.5q11 0 23 2.5t22.5 5.5t19 6t13.5 4l33 -52q-17 -24 -37 -49.5t-38 -49t-31.5 -41t-17.5 -24.5q-44 -68 -70 -131.5t-26 -129.5q0 -45 0.5 -90t0.5 -93q0 -39 -4 -62.5t-13 -36t-25 -17t-40 -4.5q-77 0 -77 133v17z" />
    <glyph glyph-name="eight" unicode="8" horiz-adv-x="563" 
d="M171 419q-19 7 -35 22.5t-28 36t-18.5 44t-6.5 47.5q0 37 16.5 74.5t45 68t67.5 49.5t85 19q41 0 79.5 -15.5t68.5 -41.5t48 -59.5t18 -70.5q0 -125 -94 -168q135 -66 135 -193q0 -56 -19.5 -104t-54.5 -83t-83 -54.5t-104 -19.5t-103.5 18.5t-82.5 51.5t-55 77.5
t-20 95.5q0 31 6 56t21.5 48.5t43 47.5t70.5 53zM212 598q0 -18 16 -42.5t39 -46t48 -36.5t43 -15q10 0 24.5 15.5t27.5 36t22 40t9 28.5q0 28 -8 52t-22.5 41.5t-34.5 27.5t-44 10q-20 0 -41 -9.5t-38.5 -25t-29 -35.5t-11.5 -41zM232 376q-44 -33 -68 -54t-35.5 -39
t-14 -38t-2.5 -51q0 -35 12.5 -64t34.5 -50t51.5 -33t63.5 -12q30 0 55 12t43.5 32.5t28.5 47t10 55.5q0 47 -28 80q-9 10 -19.5 18.5t-27 20.5t-41.5 29.5t-63 45.5z" />
    <glyph glyph-name="nine" unicode="9" horiz-adv-x="522" 
d="M356 355q-47 -76 -177 -76q-38 0 -67.5 25t-49.5 61t-31 76.5t-11 72.5q0 53 15 103.5t41.5 90t62 63.5t77.5 24q285 0 285 -372q0 -93 -20 -174t-57.5 -140.5t-90.5 -93.5t-120 -34q-36 0 -69 9.5t-58 26.5t-39.5 41.5t-14.5 53.5q0 13 5.5 26.5t14.5 23.5t21.5 16.5
t26.5 6.5q79 0 79 -69q0 -38 -47 -74q39 -21 64 -21q38 0 68.5 28t51.5 71.5t32 96t11 102.5q0 18 -3 36zM251 367q54 0 76 29t22 96q0 66 -5.5 110.5t-18 71.5t-33 38.5t-49.5 11.5q-26 0 -43 -9t-27 -31.5t-14.5 -61.5t-4.5 -99q0 -156 97 -156z" />
    <glyph glyph-name="colon" unicode=":" horiz-adv-x="219" 
d="M105 325q-16 0 -29.5 7.5t-23.5 20t-16 28t-6 32.5q0 25 22.5 45.5t55.5 20.5t55 -22t22 -55q0 -15 -6.5 -29t-17.5 -24.5t-25.5 -17t-30.5 -6.5zM105 4q-16 0 -29.5 7.5t-23.5 20t-16 28t-6 32.5q0 25 22.5 45.5t55.5 20.5t55 -22t22 -55q0 -15 -6.5 -29t-17.5 -24.5
t-25.5 -17t-30.5 -6.5z" />
    <glyph glyph-name="semicolon" unicode=";" horiz-adv-x="224" 
d="M104 287q-16 0 -29.5 7.5t-23.5 20t-16 28t-6 32.5q0 25 22.5 45.5t55.5 20.5t55 -22t22 -55q0 -15 -6.5 -28.5t-17.5 -24.5t-25.5 -17.5t-30.5 -6.5zM67 -42v39q10 -2 15 -2q47 0 47 30q0 7 -1 9q-6 0 -19 -3.5t-19 -3.5q-25 0 -42 19.5t-17 45.5q0 35 27.5 55t72.5 20
q29 0 46.5 -27.5t17.5 -65.5q0 -18 -8 -38t-20.5 -37.5t-27.5 -29t-30 -11.5h-42z" />
    <glyph glyph-name="less" unicode="&#x3c;" horiz-adv-x="580" 
d="M470 645q16 -6 28.5 -21.5t26.5 -39.5q-41 -16 -78.5 -36t-77 -44.5t-83 -54t-95.5 -64.5q33 -13 66.5 -27.5t73.5 -32t89 -38.5t114 -48q-10 -20 -22.5 -41t-26.5 -37q-72 35 -177.5 89t-258.5 117z" />
    <glyph glyph-name="equal" unicode="=" horiz-adv-x="579" 
d="M528 337q2 -9 4 -29t2 -37h-474l-10 66h478zM56 471q-2 9 -4 29t-2 37h474l10 -66h-478z" />
    <glyph glyph-name="greater" unicode="&#x3e;" horiz-adv-x="580" 
d="M113 149q-16 6 -28.5 21.5t-26.5 39.5q40 16 78 36t77.5 44.5t83 54t95.5 64.5q-33 13 -66.5 27.5t-73.5 32t-89.5 38.5t-113.5 48q10 20 22.5 41t26.5 37q72 -35 177.5 -89t258.5 -117z" />
    <glyph glyph-name="question" unicode="?" horiz-adv-x="515" 
d="M338 785q33 0 60 -17.5t46 -47.5t29.5 -69t10.5 -82q0 -42 -6 -71t-23.5 -52t-50 -44t-85.5 -47q-58 -28 -58 -67q0 -6 3.5 -17.5t9.5 -23.5t13.5 -23t14.5 -15q0 -56 -58 -56q-101 0 -101 73q0 38 14 68.5t43 50.5t58 38t52 40.5t37 53t14 77.5q0 34 -9 64t-25.5 53
t-39 36.5t-49.5 13.5q-103 0 -136 -78q25 -6 40 -12.5t23.5 -14.5t11 -18.5t2.5 -26.5q0 -14 -6.5 -26t-17 -21t-24.5 -14.5t-28 -5.5q-77 0 -77 103q0 87 80.5 132.5t231.5 45.5zM223 -46q-16 0 -29.5 7.5t-23.5 20t-16 28t-6 32.5q0 25 22.5 45.5t55.5 20.5t55 -22t22 -55
q0 -15 -6.5 -29t-17.5 -24.5t-25.5 -17t-30.5 -6.5z" />
    <glyph glyph-name="at" unicode="@" horiz-adv-x="752" 
d="M458 -137q-111 0 -189.5 23t-128.5 70.5t-73 120.5t-23 174q0 83 25.5 156t70 127t104.5 85.5t130 31.5q178 0 265 -78.5t87 -253.5q0 -48 -15 -94t-40 -82t-58 -58t-69 -22q-51 0 -68 64q-43 -67 -100 -67q-116 0 -116 169q0 101 27.5 158.5t72.5 57.5q40 0 61 -11.5
t29 -39.5q2 15 5.5 30t8.5 29q9 0 23.5 -3t34.5 -16q0 -8 0.5 -22t1.5 -37t1.5 -56.5t0.5 -80.5q0 -121 28 -121q47 11 79.5 76t32.5 183q0 58 -21 100t-59 69.5t-91.5 40.5t-118.5 13q-71 0 -120 -17t-79 -61.5t-43 -121.5t-13 -198q0 -295 337 -295v-43zM412 124
q19 0 25.5 33t6.5 119q0 49 -7 75t-33 26q-58 0 -58 -123q0 -130 66 -130z" />
    <glyph glyph-name="A" unicode="A" horiz-adv-x="620" 
d="M284 -14q-60 3 -121 3q-77 0 -153 -3q1 11 1.5 22.5t0.5 22.5t-0.5 22.5t-1.5 22.5q60 2 88 23t33 69q10 106 29 215.5t49 225.5q6 25 8 34.5t3 16.5q0 8 -4 12.5t-11 6.5t-16.5 4t-20.5 5q2 19 8.5 43.5t16.5 59.5q4 0 10.5 -1.5t19.5 -4t35.5 -4t59.5 -1.5q35 0 58 1.5
t37.5 4t22 4t12.5 1.5v-86q-8 -4 -18 -9.5t-22 -12.5q0 -27 8 -83t21.5 -124.5t31 -141.5t37 -132.5t39.5 -98t38 -38.5q6 0 13.5 1t15.5 4q0 -9 1 -26t1 -26t-0.5 -15.5t-1.5 -14.5q-72 -3 -145 -3q-74 0 -147 3q1 14 1 40v65q25 0 35.5 12t10.5 36l-6 64q-26 -2 -53.5 -3
t-59.5 -2q-16 -35 -16 -67q0 -8 15 -21.5t37 -18.5v-107zM296 541q-12 -82 -51 -251q44 3 116 29q-19 56 -36 110t-29 112z" />
    <glyph glyph-name="B" unicode="B" horiz-adv-x="543" 
d="M9 -16q6 46 6 92q113 1 113 132q0 81 -2.5 142.5t-2.5 104.5q0 37 1.5 62t3 43.5t3 32.5t1.5 29q0 31 -23.5 45.5t-52.5 14.5q3 26 4 47.5t1 43.5q46 12 128 12h161q84 0 120 -50t36 -147q0 -148 -117 -181q28 -2 51 -19t39.5 -46t26 -66.5t9.5 -79.5q0 -69 -16.5 -111
t-51 -64.5t-86.5 -29.5t-122 -7h-230zM315 427q15 0 29 13t25.5 34.5t18.5 48.5t7 55q0 19 -4 38.5t-13 36t-24.5 27t-38.5 10.5h-62q2 -61 3 -96.5t1 -47.5q0 -50 -6 -119h64zM238 105q23 -13 42 -13q18 0 34.5 12t29 30t20 40t7.5 43q0 146 -78 146q-17 0 -29.5 -1
t-20.5 -4q3 -27 3 -95q0 -20 -2 -63.5t-6 -94.5z" />
    <glyph glyph-name="C" unicode="C" horiz-adv-x="478" 
d="M467 186q-3 -48 -19 -88.5t-42 -70t-61 -46t-77 -16.5q-51 0 -96.5 31t-80 80.5t-55 111t-20.5 123.5q0 107 18 196.5t52.5 154t83 100t110.5 35.5q30 0 61 -19t56.5 -48t42 -63.5t16.5 -65.5q0 -126 -114 -126q-13 0 -24.5 8t-19.5 21t-13 28.5t-5 30.5q0 80 88 80
q0 32 -17.5 46.5t-59.5 14.5q-32 0 -58 -24.5t-44 -68.5t-28 -104t-10 -131q0 -56 10.5 -108.5t28.5 -94t43.5 -66.5t55.5 -25t58 26t52 97q26 -12 68 -19z" />
    <glyph glyph-name="D" unicode="D" horiz-adv-x="545" 
d="M48 682q3 25 5 47.5t2 43.5q77 20 125 20q107 0 175 -13.5t106.5 -54t53 -115t14.5 -196.5q0 -123 -20 -207t-62 -135.5t-108 -73.5t-159 -22q-8 0 -24.5 0.5t-34.5 1.5t-35 1.5t-25 0.5q-19 0 -33.5 -0.5t-25.5 -1.5q2 19 3.5 43.5t1.5 54.5q104 0 104 116q0 8 -0.5 26
t-1.5 38t-1.5 38.5t-0.5 26.5q0 79 8.5 155.5t8.5 145.5q0 28 -20.5 44t-55.5 16zM241 129h25q32 0 58.5 17.5t45 55t29 96t10.5 140.5q0 52 -8.5 96.5t-24.5 76.5t-39 50t-52 18h-22t-22 -2v-548z" />
    <glyph glyph-name="E" unicode="E" horiz-adv-x="517" 
d="M3 1q-3 16 -3 71q15 1 32 3t32 8t25 16.5t10 29.5q0 11 4 57t9 114.5t9 152t4 169.5q0 28 -20 44t-55 16q3 21 4.5 41t1.5 50q19 4 40.5 7.5t58 5.5t94 3.5t148.5 1.5h92q-1 -12 -2 -28.5t-1 -48.5q0 -22 0.5 -43.5t1.5 -42.5q-19 0 -40 -2.5t-39 -5.5q-11 8 -27.5 34
t-25.5 56h-114q5 -97 8.5 -169t3.5 -124h67q12 46 18 85h70q-18 -116 -21 -226h-62q-2 8 -4.5 25t-6.5 46h-68q-2 -42 -6 -100.5t-11 -136.5q26 -5 51 -7.5t46 -2.5q38 0 52.5 27.5t16.5 65.5h101q0 -6 0.5 -14t0.5 -26v-51v-89z" />
    <glyph glyph-name="F" unicode="F" horiz-adv-x="485" 
d="M312 -19q-77 3 -152 3q-76 0 -151 -3q3 22 3 53q0 11 -0.5 21t-1.5 21h3q48 0 74 66t26 191q0 80 2 133t4 85.5t4 48.5t2 22q0 28 -20 44t-55 16q0 2 0.5 10.5t0.5 19t0.5 21.5t0.5 17q0 8 -0.5 13t-1.5 11h435q-3 -35 -3 -73q0 -48 3 -96h-94q-7 34 -35 87q-28 5 -50 5
t-47 -5q-4 -10 -8 -40t-7.5 -63.5t-5.5 -61.5t-2 -33q0 -13 1.5 -20.5t8 -11t20.5 -4.5t38 -1q37 0 39 41q11 -1 21 -1.5t20 -0.5q13 0 25.5 0.5t25.5 1.5q-17 -63 -29 -115t-18 -106h-63q0 5 0.5 15t0.5 21v13t-1 10q-11 3 -27 5.5t-32 2.5q-13 0 -23.5 -1.5t-17.5 -6.5
q0 -34 -1 -59t-2 -45.5t-2 -40t-1 -41.5q0 -36 23.5 -58.5t57.5 -22.5q8 0 12 1q-1 -11 -1 -21.5v-21.5v-22.5t1 -23.5z" />
    <glyph glyph-name="G" unicode="G" horiz-adv-x="568" 
d="M566 76q-1 -8 -1.5 -20t-0.5 -22q0 -13 0.5 -25.5t1.5 -24.5q-11 -8 -35 -8q-16 0 -34.5 6t-36 15.5t-32.5 22.5t-24 27q-12 -16 -29.5 -31t-37 -26t-40 -18t-36.5 -7q-51 0 -97 31.5t-80 81.5t-54 111.5t-20 121.5q0 107 18 196.5t52 154t82.5 100t110.5 35.5
q30 0 61 -19t56.5 -48t42 -63.5t16.5 -65.5q0 -126 -114 -126q-13 0 -24 8t-19.5 20.5t-13.5 28t-5 31.5q0 80 89 80q0 32 -18 46.5t-59 14.5q-33 0 -59 -24.5t-44.5 -68t-28 -103.5t-9.5 -132q0 -56 10 -108.5t28.5 -94t43.5 -66.5t55 -25q21 0 39 12.5t31 32.5t20.5 46
t7.5 53q0 35 -8 45t-28 10q-9 0 -27 -2t-28 -2q3 7 3 29q0 10 -0.5 29t-1.5 48q35 -2 71 -3t71 -1q33 0 65 1t64 3q-1 -12 -1.5 -24t-0.5 -23q0 -14 0.5 -27t1.5 -27q-3 1 -8 1.5t-19 0.5q-15 0 -33 -4.5t-33 -13.5q0 -32 5.5 -66t14.5 -63t20.5 -47.5t23.5 -18.5t20 1.5
t15 3.5z" />
    <glyph glyph-name="H" unicode="H" horiz-adv-x="614" 
d="M284 -19q-35 1 -68.5 1.5t-68.5 0.5t-69 -0.5t-69 -1.5v39.5t1 55.5q103 1 103 116q0 8 -1.5 26t-3 38t-2.5 38.5t-1 26.5q0 19 1 44.5t5 58.5q5 40 7.5 68.5t4 48t2 32t0.5 22.5q0 40 -14.5 63.5t-60.5 23.5q2 21 4 41t2 50q43 12 99 12q57 0 129 -12q-4 -11 -5.5 -28
t-1.5 -46q-10 0 -22 -7t-12 -18q0 -1 1 -15.5t2 -35.5t2.5 -46.5t2.5 -49t2 -42.5t1 -27h122q1 32 1.5 52.5t0.5 28.5q0 133 -40 166q0 25 -6 75q32 -2 64 -3.5t64 -1.5q35 0 69.5 1.5t69.5 3.5q3 -15 3 -31q0 -20 -3 -39q-19 0 -32 -1.5t-23.5 -6.5t-20.5 -14t-22 -24
q-3 -99 -3 -194q0 -93 2 -182t6 -177q0 -9 7.5 -17.5t17.5 -14.5t21 -10t19 -4q6 0 17.5 2.5t17.5 2.5v-89q-31 -1 -62 -1.5t-62 -0.5q-38 0 -75 0.5t-75 1.5q-2 11 -2 23v24v23.5t2 23.5q40 22 40 115v128h-124q-5 -49 -8 -81t-5 -51.5t-3 -29t-1 -13.5q0 -23 8 -44t28 -21
q10 0 15 5q1 -6 1.5 -28.5t0.5 -73.5z" />
    <glyph glyph-name="I" unicode="I" horiz-adv-x="349" 
d="M342 64q-1 -10 -1 -19v-17v-24t1 -23q-42 1 -83 1.5t-83 0.5t-82.5 -0.5t-82.5 -1.5q1 12 1.5 24t0.5 25v20t-2 20q16 -3 33 -3q50 0 68 31q5 8 8 20t4.5 36.5t2 66t0.5 110.5q0 57 -1 112.5t-5 110.5q-3 49 -7.5 80t-12 48t-19.5 23.5t-31 6.5h-7.5t-9.5 -2q0 11 0.5 21
t0.5 21v16t-1 17q38 -2 77.5 -5t77 -6t71 -5t59.5 -2q-1 -9 -1 -17v-16v-21t1 -21q-15 5 -26 5q-67 0 -67 -116q0 -22 1 -58.5t2 -81.5t3 -93.5t3 -93.5t2 -82t1 -58q0 -53 80 -53q15 0 24 3z" />
    <glyph glyph-name="J" unicode="J" horiz-adv-x="522" 
d="M416 167q0 -43 -16.5 -80t-45.5 -64t-67.5 -42.5t-81.5 -15.5q-41 0 -78.5 17.5t-65.5 47t-44.5 68t-16.5 79.5q0 45 22 72t60 27q88 0 88 -91q0 -38 -18 -58.5t-46 -20.5q-5 0 -13.5 2t-16.5 6q34 -43 74 -43q48 0 86.5 34t51.5 98l3.5 182t1.5 131q0 86 -13 126t-56 40
h-12q1 17 1.5 29t0.5 23q0 14 -0.5 25t-2.5 23q40 -2 79.5 -3t79.5 -1q36 0 72.5 1t72.5 3q-2 -7 -2 -15.5v-16.5v-21t2 -19q-7 0 -17.5 3t-17.5 3q-19 0 -31 -8t-19.5 -18.5t-10.5 -22.5t-3 -19v-481z" />
    <glyph glyph-name="K" unicode="K" horiz-adv-x="623" 
d="M323 -14q-80 6 -158 6q-80 0 -158 -6q2 11 2 33v57q103 0 103 116q0 8 -1.5 26t-3 38t-2.5 38.5t-1 26.5q0 5 0.5 11t1.5 11q10 75 14.5 144t4.5 135q0 26 -19 43t-45 17h-5.5t-5.5 -1q1 6 2 15.5t2 20.5t2 22.5t1 20.5q0 5 -0.5 8t-0.5 6q33 -2 66 -3t67 -1q26 0 52.5 1
t52.5 3q-1 -10 -1.5 -20t-0.5 -21q0 -12 0.5 -25t1.5 -26h-6q-22 0 -39.5 -15t-17.5 -30q0 -13 -0.5 -25.5t-0.5 -24.5q0 -30 1 -58t3 -54q35 35 74 81t81 104q3 6 3 13q0 11 -14.5 12.5t-27.5 1.5h-13q2 10 2 29q0 24 -3 66q33 -2 66 -2h65h66t66 2q-1 -9 -1.5 -17.5
t-0.5 -16.5q0 -10 0.5 -19.5t1.5 -18.5q-10 6 -34 6q-8 0 -28.5 -21t-51 -57.5t-68.5 -85t-81 -103.5q36 -9 69 -32.5t50 -61.5q7 -17 14 -54t13 -79t11 -83t10 -65q2 -8 5.5 -14t11.5 -6q10 0 15.5 15t8.5 34t3.5 37.5t0.5 26.5q0 4 21.5 6t47.5 2q1 -14 1.5 -28.5
t0.5 -28.5q0 -13 -0.5 -25.5t-1.5 -25.5q-1 -15 -10 -30t-22 -27t-29 -19.5t-32 -7.5q-117 0 -150 100q-10 42 -13.5 91t-9.5 96q-12 100 -82 100h-27q-2 -33 -3.5 -66t-1.5 -67q0 -31 1.5 -61.5t3.5 -62.5q1 -14 26.5 -24.5t54.5 -12.5v-90z" />
    <glyph glyph-name="L" unicode="L" horiz-adv-x="541" 
d="M503 -16q-125 3 -248 3q-125 0 -249 -3q-3 13 -3 29q0 15 1.5 30.5t2.5 32.5q104 0 104 116q0 8 -1.5 26t-3 38t-3 38.5t-1.5 26.5q0 18 3.5 35.5t7 48t7 81.5t3.5 136q0 28 -20 44t-55 16q2 21 3.5 41t1.5 50q63 17 115 17q11 0 33 -1.5t46 -4t46 -4t34 -1.5
q0 -6 0.5 -19t1.5 -28t2.5 -29t2.5 -22q-32 -9 -50.5 -15t-28 -19t-12.5 -36.5t-3 -66.5q0 -54 0.5 -106.5t0.5 -106.5q0 -22 -2 -37t-4 -38t-4 -62.5t-2 -111.5q33 -3 68 -3q42 0 86 3q16 1 32 8t30 18.5t25 27t18 33.5q8 -1 15 -1.5t14 -0.5q9 0 17.5 0.5t16.5 1.5
q-13 -44 -25 -89.5t-23 -95.5z" />
    <glyph glyph-name="M" unicode="M" horiz-adv-x="800" 
d="M290 70q0 -33 1.5 -50.5t4.5 -30.5q-94 0 -164 3.5t-121 8.5q-2 10 -3 18t-1 14q0 24 6 35q20 1 35.5 3.5t27 9t19 17.5t11.5 31q2 10 6.5 56t9 114.5t8 152.5t3.5 170q0 28 -20 44t-55 16q2 21 3.5 41t1.5 50q32 7 90 7q67 0 100 -9q7 -27 20 -69t29 -92t34.5 -104
t36.5 -103.5t33.5 -90.5t27.5 -66q48 133 88.5 267t74.5 272q29 -2 52.5 -3t44.5 -1q22 0 43.5 1t44.5 3q-1 -8 -1.5 -17t-0.5 -18q0 -11 0.5 -22.5t1.5 -22.5h-2q-7 0 -17 2t-15 2q-65 0 -65 -158q0 -22 1 -74t2.5 -116.5t2.5 -132t1 -119.5q0 -24 18.5 -37t42.5 -13
q7 0 20 2.5t20 2.5q5 -15 5 -32q0 -5 -1 -19t-3 -35q-34 1 -67 1.5t-66 0.5t-66.5 -0.5t-66.5 -1.5q1 10 1.5 19.5t0.5 18.5q0 8 -0.5 15t-1.5 15q71 25 71 105q2 36 3 72.5t1 72.5t-1 72t-3 72q-36 -94 -68.5 -190.5t-63.5 -196.5q-11 1 -23 1.5t-24 0.5q-10 0 -19 -0.5
t-19 -1.5q-42 106 -85.5 205t-89.5 194q2 -40 3 -116t1 -189q0 -15 5.5 -29.5t14.5 -26t20.5 -18.5t22.5 -7q10 0 18 4z" />
    <glyph glyph-name="N" unicode="N" horiz-adv-x="656" 
d="M255 -11q-68 3 -137 3q-54 0 -109 -3q1 10 1 31v56q103 0 103 116q0 8 -1.5 26t-3 38t-2.5 38.5t-1 26.5v11t1 11q11 75 15.5 144.5t4.5 134.5q0 28 -19 44t-47 16h-10q4 25 5.5 47.5t1.5 44.5q38 5 65.5 8t44.5 3q14 0 29 -0.5t34 -1.5q83 -159 147.5 -291.5
t113.5 -245.5q1 51 1.5 101.5t0.5 102.5v103.5t-2 105.5q-1 26 -17 44.5t-60 18.5q1 8 1.5 15.5t0.5 15.5q0 7 -0.5 14t-1.5 15q33 1 65.5 1.5t65.5 0.5q27 0 54 -0.5t54 -1.5q-1 -8 -1 -14v-12v-14.5t1 -13.5q-19 2 -30.5 3.5t-16.5 1.5q-15 0 -25 -8.5t-16 -21t-8.5 -26
t-2.5 -23.5q0 -168 5 -331t6 -327q-8 -3 -26.5 -5.5t-30.5 -2.5q-4 0 -23.5 30t-48 78.5t-62.5 110t-67.5 125t-63.5 122.5t-49 103l-10 -206t-5 -218q0 -11 4.5 -23.5t13 -23t19.5 -17.5t24 -7q3 0 6 0.5t8 1.5q3 -9 3 -24q0 -9 -1 -25.5t-1 -25.5z" />
    <glyph glyph-name="O" unicode="O" horiz-adv-x="525" 
d="M259 -35q-57 0 -102.5 29t-77.5 82t-49.5 126t-17.5 162q0 97 17.5 175t50.5 133t81.5 84t110.5 29q59 0 104.5 -26.5t76.5 -76.5t47 -122t16 -164q0 -100 -17 -180t-50 -135.5t-81 -85.5t-109 -30zM259 71q21 0 39 26t31.5 67.5t21 93t7.5 103.5q0 59 -7 119t-19 108.5
t-29 79t-36 30.5q-97 0 -97 -292q0 -335 89 -335z" />
    <glyph glyph-name="P" unicode="P" horiz-adv-x="553" 
d="M330 -11q-42 2 -84 3t-84 1q-38 0 -77 -1t-78 -3q2 10 2 31v56q103 0 103 116q0 8 -1.5 26t-3 38t-2.5 38.5t-1 26.5v11t1 11q11 75 15.5 144.5t4.5 134.5q0 28 -20.5 44t-55.5 16q2 21 4 41t2 50q10 3 20 5t24 3.5t34.5 2.5t50.5 1q104 0 173.5 -10t111.5 -33t60 -59.5
t18 -89.5q0 -78 -44 -139t-119 -95q-23 -11 -49.5 -19.5t-55.5 -8.5q-17 0 -32 4q-3 -34 -6 -69t-5.5 -64t-4 -48t-1.5 -21q0 -22 22 -34.5t57 -12.5q6 0 10 0.5t9 1.5v-40t2 -59zM247 709q-2 -32 -3 -65t-1 -67q0 -41 1 -82.5t3 -83.5q77 13 109 51.5t32 115.5
q0 131 -109 131h-32z" />
    <glyph glyph-name="Q" unicode="Q" horiz-adv-x="536" 
d="M256 -35q-57 0 -102.5 29t-77.5 82t-49 126t-17 162q0 98 17.5 176t50.5 132.5t81.5 83.5t111.5 29q59 0 104.5 -26.5t76 -76.5t46.5 -122.5t16 -163.5q0 -182 -53 -280q-3 -7 -5.5 -12t-6.5 -9q3 -21 14.5 -37t22.5 -16q9 0 15.5 8.5t11 20t6.5 23t2 16.5q0 10 -1 12
q9 2 21.5 5t29.5 8q1 -9 1.5 -17t0.5 -16q0 -72 -33 -110.5t-81 -38.5q-9 0 -20 2t-22 8t-20.5 16.5t-14.5 27.5q-17 -12 -31 -20t-28.5 -13t-30 -7t-36.5 -2zM377 267q-15 437 -98 437q-112 0 -112 -281q0 -95 5.5 -162t17.5 -109t31 -61.5t46 -19.5q10 0 27.5 8.5
t28.5 22.5q-2 90 -14 130.5t-28 40.5q-17 0 -23 -18t-8 -40q-14 0 -29 3t-26 9q2 60 27.5 95t57.5 35q17 0 31 -3t26 -12.5t21.5 -27t18.5 -47.5z" />
    <glyph glyph-name="R" unicode="R" horiz-adv-x="602" 
d="M324 88q-1 -11 -1 -21.5v-21.5v-28t1 -28q-41 2 -81.5 3t-82.5 1q-38 0 -75.5 -1t-75.5 -3q1 9 1.5 19.5t0.5 24.5q0 9 -0.5 20t-0.5 23q103 0 103 116q0 8 -1.5 26t-3 38t-2.5 38.5t-1 26.5v11t1 11q11 75 15.5 144.5t4.5 134.5q0 28 -15 44t-61 16q4 25 5.5 47.5
t1.5 43.5q9 3 19 5t24 3.5t34.5 2.5t51.5 1q103 0 172.5 -10t111.5 -33t60 -59.5t18 -89.5q0 -32 -13.5 -64.5t-35.5 -60t-50.5 -48t-59.5 -29.5q32 -11 54 -25.5t35.5 -34t19.5 -44.5t6 -57q0 -8 -0.5 -23t-1 -32l-1 -34t-0.5 -30q0 -10 3.5 -17t10.5 -7q17 0 25.5 26
t8.5 86q13 -3 26 -3t25 3q6 -32 6 -64q0 -26 -5 -52.5t-17.5 -49t-35 -36.5t-56.5 -14q-40 0 -62 15t-33 40t-14 56.5t-4.5 65t-5 65t-15 56.5t-34.5 40t-64 15l-12 -1l-6 -70t-5.5 -63.5t-4 -47.5t-1.5 -21q0 -46 74 -46q16 0 19 1zM250 709q-3 -62 -3 -123q0 -79 3 -157
h42q46 0 71.5 40t25.5 102q0 138 -109 138h-30z" />
    <glyph glyph-name="S" unicode="S" horiz-adv-x="508" 
d="M210 17q81 4 115 34t34 96q0 36 -23.5 69t-60 65t-80.5 64t-84 66q-46 38 -66.5 87t-20.5 103q0 85 60.5 134.5t165.5 49.5q49 0 90.5 -10t71.5 -29t47 -46t17 -61q0 -15 -8.5 -29.5t-21 -26.5t-28 -19t-30.5 -7q-18 0 -37 6t-34.5 16.5t-25 24t-9.5 29.5q0 26 15.5 43.5
t44.5 17.5q-2 11 -12 21t-23.5 18t-29 13t-29.5 5q-18 0 -34 -8.5t-28 -22.5t-19.5 -31t-7.5 -35q0 -6 1.5 -18t5.5 -26t10.5 -28t15.5 -26q25 -31 55.5 -58t62 -52.5t62 -50.5t56.5 -52q59 -60 59 -141q0 -61 -20 -108.5t-56.5 -79.5t-87.5 -49t-114 -17q-29 0 -61.5 14.5
t-60 38.5t-45.5 53.5t-18 59.5q0 78 27 111t91 33q82 0 82 -81q0 -39 -22.5 -64t-60.5 -25q-11 0 -24.5 1.5t-24.5 7.5q11 -38 40.5 -59t77.5 -21z" />
    <glyph glyph-name="T" unicode="T" horiz-adv-x="542" 
d="M417 64q-1 -10 -1.5 -19.5t-0.5 -19.5q0 -12 0.5 -23.5t1.5 -23.5q-89 3 -176 3q-69 0 -138 -3q0 11 0.5 21t0.5 21t-0.5 22t-0.5 22q17 -5 26 -5q30 0 47.5 33t19.5 88q3 66 4 131t1 130t-1.5 129t-3.5 128h-44q-27 0 -42.5 -9t-24.5 -22.5t-13.5 -30t-9.5 -31.5
q-12 3 -26 5t-33 2q-6 0 -12.5 -0.5t-14.5 -0.5q6 17 19 60t35 114q55 -1 110 -1.5t110 -0.5q66 0 132.5 0.5t132.5 1.5q4 -28 11 -70t19 -98h-82q1 6 1.5 11t0.5 11q0 67 -87 67q-9 0 -29 -1t-30 -1q-3 -69 -4 -137.5t-1 -137.5q0 -81 1.5 -160.5t3.5 -160.5q0 -10 9 -18
t23.5 -14t31.5 -9t34 -3z" />
    <glyph glyph-name="U" unicode="U" horiz-adv-x="557" 
d="M184 322q0 -240 101 -240q24 0 39.5 18t25.5 45.5t14.5 60.5t5.5 62q2 54 3 106t1 105q0 41 -0.5 80.5t-1.5 79.5q-1 29 -11 38.5t-40 9.5q3 27 3 54q0 20 -3 41q29 -2 57.5 -3t57.5 -1q32 0 62.5 1t61.5 3v-72q-7 0 -18 3t-17 3q-9 0 -20.5 -5t-21 -14t-16.5 -22t-7 -30
q0 -44 4 -90t4 -105q0 -48 -0.5 -96t-0.5 -97q0 -32 -1 -58t-6 -50t-16 -47t-31 -50q-29 -38 -64 -59.5t-67 -21.5q-50 0 -90.5 28.5t-69.5 78.5t-44.5 118t-15.5 147q0 24 3.5 66.5t8 86.5t8.5 80.5t4 49.5q0 23 -20.5 39.5t-43.5 16.5q-9 0 -11 -1q0 7 1 20t1.5 26.5
t1.5 26.5t1 20q28 0 89.5 3t155.5 8q-1 -11 -1.5 -22t-0.5 -22q0 -14 0.5 -27t1.5 -27q-78 -14 -78 -199q0 -6 0.5 -18t0.5 -26t0.5 -26.5t0.5 -18.5v-8.5t-0.5 -13t-0.5 -21.5v-34z" />
    <glyph glyph-name="V" unicode="V" horiz-adv-x="617" 
d="M363 -35q-9 0 -32.5 -1.5t-65.5 -4.5q-14 45 -28 108.5t-34 150.5q-32 136 -57.5 226t-47 144t-39 76t-32.5 22q-6 0 -15 -2t-13 -2q1 25 1.5 42t0.5 27q0 11 -0.5 19t-1.5 13q32 2 63.5 3.5t63.5 1.5q34 0 67 -1.5t65 -3.5q-1 -10 -1.5 -20t-0.5 -20q0 -13 0.5 -25.5
t1.5 -25.5q-2 1 -9 1q-17 0 -27.5 -8.5t-10.5 -25.5q0 -6 3.5 -21t12.5 -44.5t23.5 -76.5t35.5 -119q3 -12 13 -45t21 -69t19.5 -66t10.5 -37q23 129 50 248t58 240q0 11 -5.5 19.5t-14 14.5t-17.5 9.5t-15 4.5q0 11 1 29t5 39q28 -1 55.5 -1.5t55.5 -0.5h47t45 2
q-2 -6 -2 -13.5v-15.5t0.5 -17t1.5 -17q-6 1 -10.5 1h-9.5q-12 0 -20 -4t-15 -14.5t-13.5 -30t-15.5 -50.5q-14 -47 -34 -121.5t-43 -163.5t-46.5 -186t-44.5 -188z" />
    <glyph glyph-name="W" unicode="W" horiz-adv-x="892" 
d="M360 -46q-9 0 -90 -6q-38 171 -62.5 272t-33.5 136q-45 166 -84.5 248t-64.5 82q-6 0 -15 -2t-13 -2q3 49 3 69q0 21 -3 32q35 -2 69.5 -3.5t67.5 -1.5q32 0 62 1.5t60 3.5q4 -19 4 -41q0 -13 -1 -25.5t-3 -24.5q-2 1 -8 1q-38 0 -38 -42q0 3 83 -273l35 -119t25 -89
l74 392q0 24 -8.5 46.5t-21.5 39.5t-28.5 27.5t-28.5 10.5q-5 0 -13.5 -1t-14.5 -3q2 25 3 41.5t1 27.5q0 23 -4 32q20 0 61.5 0.5t87 0.5t86.5 0.5t61 0.5v-63q-83 -24 -83 -63q0 -5 1 -10t3 -10q20 -56 46.5 -173t71.5 -296l92 500q0 6 -5.5 13.5t-14 14.5t-17 12.5
t-14.5 6.5q0 5 1.5 22.5t3.5 45.5q51 -3 102 -3t102 3v-63q-28 -5 -44.5 -14t-28.5 -34t-23.5 -73.5t-29.5 -133.5q-3 -16 -12 -56.5t-20.5 -93t-24.5 -111t-24 -110.5t-19.5 -90.5t-10.5 -51.5h-6q-9 0 -90 -6q-7 23 -15 62t-17.5 84.5t-19 94.5t-18 93.5t-15.5 80
t-11 54.5q-4 -18 -12 -53.5t-17.5 -79.5t-20 -92.5t-20.5 -93.5t-18.5 -83t-13.5 -61h-6z" />
    <glyph glyph-name="X" unicode="X" horiz-adv-x="591" 
d="M259 104q2 -15 3 -28.5t1 -27.5q0 -17 -1 -33.5t-3 -33.5q-71 2 -110.5 3t-50.5 1q-29 0 -55.5 -1t-52.5 -3v39.5t1 55.5q3 -1 11 -1q21 0 42 7.5t41 24.5q10 8 31.5 40t56.5 91q68 115 68 134t-20 77q-38 112 -86.5 172.5t-97.5 60.5h-5q0 2 0.5 11t0.5 20t0.5 22
t0.5 16q0 12 -3 24h275v-75q-29 -27 -29 -49q0 -15 4.5 -36.5t11 -45t14.5 -44.5t14 -34q6 11 18.5 38.5t25 56t21.5 51.5t9 25q0 28 -47 37v83h233v-72q-21 -4 -36 -11.5t-29 -22t-29.5 -37.5t-37.5 -57q-41 -65 -64.5 -106.5t-23.5 -61.5q107 -323 177 -326q10 5 31 5
q-4 -8 -4 -31q0 -12 1 -28t3 -38q-23 -5 -43 -8t-49 -5.5t-71.5 -3.5t-110.5 -1q2 6 2 12q0 9 -0.5 25.5t-0.5 35t-0.5 35t-0.5 24.5q35 5 35 28q0 7 -6 27.5t-14.5 43.5t-17 44.5t-12.5 31.5q-5 -8 -14.5 -29t-18.5 -44t-15.5 -43t-6.5 -25q0 -7 34 -40z" />
    <glyph glyph-name="Y" unicode="Y" horiz-adv-x="612" 
d="M180 76q2 -1 11 -1q54 0 54 107v7t-2 10v18q-1 9 -3 27.5t-9 44.5q-54 216 -148 375q-11 19 -57 19h-12.5t-15.5 -1q7 31 7 60q0 23 -7 37q72 -3 143 -3q69 0 137 3q2 -10 3.5 -19.5t1.5 -20.5q0 -13 -1.5 -25.5t-3.5 -26.5h-2q-11 0 -25 -5.5t-31 -15.5q4 -38 28 -111
t70 -183l65 146q25 56 36 89.5t12 46.5q0 6 -6 12.5t-15 12t-19 9.5t-17 4h-6q2 12 3 23.5t1 22.5t-1 21t-3 20q33 1 66.5 1.5t67.5 0.5q28 0 55 -0.5t55 -1.5q1 -9 1.5 -18.5t0.5 -20.5q0 -12 -0.5 -25.5t-1.5 -27.5h-17q-49 0 -63 -23q-2 -3 -11 -23t-26 -56
q-140 -306 -140 -388v-37q0 -77 69 -90q-1 -10 -1.5 -19.5t-0.5 -20.5q0 -14 0.5 -27.5t1.5 -28.5q-33 5 -65.5 6.5t-64.5 1.5t-62 -1.5t-58 -6.5q6 49 6 87v15z" />
    <glyph glyph-name="Z" unicode="Z" horiz-adv-x="518" 
d="M473 -11q-57 4 -114 6t-114 2q-60 0 -120 -2t-120 -6v84q0 5 21 47.5t64 119t109.5 185.5t157.5 247q-6 8 -21.5 10.5t-35.5 2.5q-42 0 -75 -3t-56 -14t-36 -31.5t-17 -55.5q-12 4 -41 4q-27 0 -40 -4q15 48 27 95.5t20 97.5q73 -3 148 -3q72 0 141 4t144 10v-85
q0 -6 -32.5 -64.5t-101.5 -170.5q-12 -21 -32 -53t-43.5 -69t-48 -75.5t-46.5 -73t-39.5 -60.5t-25.5 -38q32 -3 64.5 -4t64.5 -1q59 0 119 3q10 0 19.5 8t16.5 21t11 29.5t4 34.5q1 -2 81 -6q-15 -42 -28 -89t-25 -103z" />
    <glyph glyph-name="bracketleft" unicode="[" horiz-adv-x="362" 
d="M302 -156q-16 4 -33.5 5t-35.5 1q-22 0 -42 -1.5t-34 -3.5q-7 18 -10.5 46t-5.5 59.5t-2.5 63.5t-0.5 58v109t1 126.5t2 136.5t3 137.5t4.5 130.5t6.5 115q28 11 61 14t61 3q16 0 28.5 -0.5t21.5 -0.5v-34q-26 0 -48.5 -4.5t-37.5 -6.5q-4 -25 -7 -78t-6 -122t-5 -148
t-3.5 -157.5t-2.5 -150.5t-1 -126q0 -32 1 -63t4 -58q22 0 47 -2.5t42 -7.5z" />
    <glyph glyph-name="backslash" unicode="\" horiz-adv-x="382" 
d="M296 3l-302 836q19 -2 35 -3.5t30 -1.5q8 -24 26 -75t40.5 -114.5t47.5 -132t46 -127.5t36.5 -101.5t19.5 -54.5q30 -84 55 -138.5t43 -80.5z" />
    <glyph glyph-name="bracketright" unicode="]" horiz-adv-x="362" 
d="M55 -115q17 5 42 7.5t47 2.5q3 27 4 58t1 63q0 54 -1 126t-2.5 150.5t-3.5 157.5t-5 148t-6 121.5t-7 78.5q-15 2 -37.5 6.5t-48.5 4.5v34q9 0 21.5 0.5t28.5 0.5q28 0 61 -3t61 -14q4 -52 6.5 -115t4.5 -130.5t3 -137.5t2 -136.5t1 -126.5v-109q0 -26 -0.5 -58
t-2.5 -63.5t-5.5 -59.5t-10.5 -46q-14 2 -34 3.5t-42 1.5q-18 0 -35.5 -1t-33.5 -5z" />
    <glyph glyph-name="asciicircum" unicode="^" horiz-adv-x="484" 
d="M447 474q-6 -11 -20.5 -20t-35.5 -17q-11 31 -25.5 60.5t-32.5 60.5t-40 65.5t-48 75.5q-14 -24 -28.5 -48.5t-32 -53t-39.5 -64t-49 -81.5q-17 8 -33.5 18.5t-28.5 22.5q35 51 88.5 126.5t117.5 185.5z" />
    <glyph glyph-name="underscore" unicode="_" horiz-adv-x="548" 
d="M-1 -178v65h552v-65h-552z" />
    <glyph glyph-name="grave" unicode="`" horiz-adv-x="243" 
d="M223 615q-6 -11 -12 -20t-14 -17q-45 25 -89 44.5t-88 30.5q6 20 15.5 38.5t25.5 34.5q43 -23 83 -51t79 -60z" />
    <glyph glyph-name="a" unicode="a" 
d="M280 49q-54 -56 -126 -56q-66 0 -105.5 36t-39.5 100q0 81 49.5 129t132.5 48q9 0 18.5 -0.5t20.5 -1.5q4 19 4 48q0 131 -90 131q-38 0 -56 -43q15 7 34 7q43 0 43 -67q0 -10 -7 -20t-17.5 -18.5t-22.5 -13.5t-21 -5q-66 0 -66 90q0 57 49 87t139 30q65 0 94.5 -56.5
t29.5 -188.5q0 -9 -0.5 -27t-0.5 -38.5t-0.5 -39t-0.5 -27.5q0 -113 37 -113q12 0 27 9q5 -10 5 -29q0 -25 -12 -29t-32 -4q-27 0 -51.5 18t-34.5 44zM229 163q0 16 0.5 36t1.5 46q-10 2 -20.5 3.5t-22.5 1.5q-32 0 -52 -28t-20 -70q0 -45 23.5 -76t61.5 -31q10 0 16 9
t9.5 20.5t4.5 22t1 14.5q0 20 -1.5 32.5t-1.5 19.5z" />
    <glyph glyph-name="b" unicode="b" horiz-adv-x="435" 
d="M14 740q0 17 -1.5 25t-3.5 15q31 9 76 20.5t108 26.5q-2 -33 -3 -56.5t-1 -37.5q0 -174 3 -256q20 29 41 38t46 9q26 0 51.5 -21t45.5 -54.5t32.5 -76t12.5 -85.5q0 -294 -165 -294q-69 0 -127 56q-13 -20 -22.5 -32.5t-18.5 -19t-19.5 -8.5t-24.5 -2q-17 0 -26 3
t-13.5 9.5t-5.5 17.5t-1 27q80 11 80 125q0 10 -1 31.5t-2 45.5t-2 46t-1 33l3 363q0 23 -17 37.5t-44 14.5zM179 414q-3 -45 -3.5 -90.5t-0.5 -105.5q0 -29 1 -60t4.5 -56t10 -41t18.5 -16q103 0 103 203q0 33 -7 67t-20 61t-30 44t-36 17q-17 0 -40 -23z" />
    <glyph glyph-name="c" unicode="c" horiz-adv-x="376" 
d="M316 434q0 44 -74 44q-55 0 -80.5 -43.5t-25.5 -148.5q0 -69 4.5 -117t13.5 -78t24 -43.5t36 -13.5q16 0 28.5 2.5t24.5 10.5t24.5 23t27.5 41q22 -10 39 -28q-34 -58 -69 -79t-73 -21q-91 0 -139.5 79.5t-48.5 224.5q0 46 14 90t37.5 78t55 54.5t66.5 20.5
q34 0 64.5 -9.5t53.5 -26t36.5 -39t13.5 -49.5q0 -32 -19 -55t-48 -23q-26 0 -44 19.5t-18 45.5q0 19 15.5 34t35.5 15q14 0 25 -8z" />
    <glyph glyph-name="d" unicode="d" horiz-adv-x="424" 
d="M371 827q-2 -83 -3 -166t-1 -168q0 -94 1.5 -188t3.5 -191q0 -12 6.5 -23.5t16 -20.5t21 -15t23.5 -6q4 -7 4 -28q0 -25 -12.5 -29.5t-32.5 -4.5q-26 0 -50.5 18t-35.5 44q-54 -56 -125 -56q-165 0 -165 294q0 43 12.5 85.5t33.5 76t50 54.5t62 21q9 0 15 -1t13.5 -6.5
t18.5 -16.5t29 -32q4 11 4 201q0 71 -55 71h-7v12q0 8 -1.5 14l-3.5 14q58 15 102.5 26.5t75.5 20.5zM202 45q64 0 64 128q0 12 -1 35t-1 35q0 11 1 30.5t1 29.5q0 139 -64 139q-71 0 -71 -199q0 -198 71 -198z" />
    <glyph glyph-name="e" unicode="e" horiz-adv-x="382" 
d="M132 281q-2 -25 -3 -42t-1 -26q0 -168 76 -168q58 0 102 96q5 1 10.5 1.5t10.5 0.5t9.5 -0.5t9.5 -1.5q-33 -148 -160 -148q-170 0 -170 294q0 51 13 94.5t37 75t58 49.5t77 18q78 0 121 -47.5t43 -128.5q0 -50 -10 -67h-223zM135 345h132q2 6 2 12.5v11.5q0 115 -65 115
q-13 0 -25.5 -11.5t-22 -28.5t-15.5 -36.5t-6 -36.5v-26z" />
    <glyph glyph-name="f" unicode="f" horiz-adv-x="342" 
d="M255 4q-29 -3 -58.5 -4t-58.5 -1q-30 0 -59.5 1t-59.5 4v44q57 15 57 91q0 -2 -1.5 68t-3.5 225q-10 2 -19.5 4t-20.5 2h-17q-2 9 -3 18.5t-1 18.5q0 18 4 33q8 1 16.5 1.5t16.5 0.5q7 0 14 -0.5t15 -1.5q8 298 169 298q22 0 41.5 -7t34.5 -19t23.5 -28.5t8.5 -35.5
q0 -42 -18.5 -66.5t-47.5 -24.5q-20 0 -33.5 17.5t-13.5 42.5t15 43t40 18q9 0 17 -3q-14 17 -23.5 22.5t-20.5 5.5q-29 0 -44 -10.5t-21.5 -34t-7.5 -61.5t-1 -94v-50q4 -16 31 -16q26 0 46 3q-1 -7 -1.5 -13.5t-0.5 -14.5q0 -9 0.5 -18.5t1.5 -19.5q-21 -3 -42 -3
q-20 0 -41 3q0 -93 1 -156.5t2.5 -105t4 -64.5t5 -34.5t6 -15t7.5 -5.5q13 -9 21 -11t22 -6z" />
    <glyph glyph-name="g" unicode="g" horiz-adv-x="384" 
d="M100 60q-26 5 -41.5 18t-15.5 33q0 16 5 26.5t14 17t21 11t25 8.5q-42 34 -61.5 71t-19.5 76q0 58 10.5 98t33 65.5t57 37t82.5 11.5q17 0 32.5 -2.5t28.5 -8.5q1 21 10 43.5t22.5 41t31 30t35.5 11.5q37 0 37 -42q0 -24 -11.5 -30.5t-27.5 -11t-33.5 -15.5t-30.5 -43
q13 -8 24 -24t19 -36t13 -42.5t5 -43.5q0 -38 -11 -69t-35.5 -57.5t-62.5 -50t-92 -46.5q-20 -9 -31 -15t-16 -11t-6 -8t-1 -6q0 -23 31 -23q13 12 29 25.5t37.5 25t49 19t65.5 7.5q12 0 21 -9.5t16 -25t10.5 -36.5t3.5 -45q0 -36 -25.5 -77.5t-63 -76.5t-81 -58t-79.5 -23
q-106 0 -106 117q0 21 3.5 38t12.5 33t25 33t41 39zM172 197q21 0 36.5 8.5t25 29t14.5 53.5t5 81q0 133 -60 133q-16 0 -27 -6.5t-17.5 -27.5t-9 -61.5t-2.5 -109.5q0 -100 35 -100zM169 -153q21 0 41 15t35 39t24 54t9 59q0 23 -9.5 44t-24.5 21q-23 0 -44 -15t-37 -38
t-26 -51.5t-10 -55.5q0 -72 42 -72z" />
    <glyph glyph-name="h" unicode="h" horiz-adv-x="505" 
d="M14 4v55h4q67 0 67 78v127q0 48 3 150t3 268q0 21 -17.5 34.5t-43.5 13.5q0 14 -1.5 21.5l-3.5 17.5q33 8 79 19t105 28q-2 -35 -3 -58.5t-1 -35.5q0 -28 1 -87.5t2 -157.5q13 16 24 25t20.5 14t19.5 6.5t22 1.5q37 0 63 -27t43 -65t25 -80t8 -72q0 -37 -1 -76t-1 -76
q0 -28 5.5 -48t14.5 -20q13 0 16 15t3 29v15.5t-1 12.5q5 1 10 1.5t10 0.5q6 0 12.5 -0.5t12.5 -1.5q1 -5 1.5 -9.5t0.5 -9.5q0 -45 -22.5 -77.5t-67.5 -32.5q-32 0 -52.5 8t-32 24.5t-15.5 40.5t-4 57q0 32 2 62t2 59q0 24 -3 50q-3 22 -12 46t-22 43t-29.5 31.5
t-34.5 12.5q-21 0 -31 -24q-2 -36 -3 -74t-1 -76q0 -43 1 -86.5t3 -88.5q2 -35 47 -35h9t10 2v-51h-246z" />
    <glyph glyph-name="i" unicode="i" horiz-adv-x="274" 
d="M134 566q-15 0 -28.5 7t-24 19t-16.5 28t-6 34q0 14 6.5 26t17.5 21t24.5 14t28.5 5q33 0 55 -22t22 -55q0 -15 -7 -29t-18.5 -24.5t-25.5 -17t-28 -6.5zM264 55q-1 -6 -1.5 -11.5t-0.5 -11.5q0 -7 0.5 -14t1.5 -14q-69 3 -138 3q-54 0 -108 -3q-1 8 -1.5 15t-0.5 15
q0 6 0.5 12.5t1.5 12.5q3 -1 16 -1q59 0 59 85q0 42 -1.5 75.5t-1.5 71.5q0 25 1 51t4 59q0 26 -18.5 39.5t-43.5 13.5q0 9 -0.5 18.5t-4.5 19.5q48 10 92 22t88 26q-6 -99 -9 -198t-3 -203q0 -42 12 -63.5t46 -21.5q4 0 10 2z" />
    <glyph glyph-name="j" unicode="j" horiz-adv-x="240" 
d="M139 571q-15 0 -28.5 7t-24 19t-16.5 28t-6 34q0 15 6.5 27t17.5 20.5t25 13.5t28 5q33 0 55 -22t22 -55q0 -15 -7 -28.5t-18 -24.5t-25 -17.5t-29 -6.5zM213 550q-2 -75 -3 -146.5t-1 -143.5q0 -78 1 -154t3 -151q0 -27 -12.5 -53.5t-34 -47t-50 -33.5t-59.5 -13
q-27 0 -53 8t-46 23t-32 35.5t-12 45.5q0 35 16 59.5t44 24.5q29 0 52 -15.5t23 -37.5q0 -35 -14.5 -53t-48.5 -18q-5 0 -10 0.5t-10 1.5q11 -14 28.5 -21t25.5 -7q19 0 32.5 10t22.5 25.5t14 34.5t6 37q3 60 5 123t2 127q0 55 -1.5 108.5t-5.5 104.5q-2 22 -22 31t-39 9
q0 17 -1.5 25t-3.5 14q35 13 80 24.5t104 22.5z" />
    <glyph glyph-name="k" unicode="k" horiz-adv-x="508" 
d="M266 55q-1 -6 -1 -12v-13v-12.5t1 -13.5q-69 -3 -138 -3q-54 0 -108 3q-1 8 -1.5 16t-0.5 16q0 6 0.5 12t1.5 11q70 0 70 78q0 10 -1.5 18t-3 28t-2.5 57.5t-1 105.5q0 32 2 75t4.5 89t4.5 91t2 81q0 21 -16.5 34.5t-44.5 13.5q0 12 -1 21t-4 18q32 9 77 20.5t107 26.5
q-10 -49 -12 -101.5t-2 -124.5q0 -69 0.5 -139t0.5 -139q9 6 34.5 32.5t73.5 74.5q6 7 6 14q0 14 -29 14h-7q0 8 0.5 15.5t0.5 15.5t-0.5 16t-0.5 16q49 -3 100 -3q49 0 99 3q-1 -6 -1.5 -12.5t-0.5 -12.5q0 -8 0.5 -16t1.5 -16q-27 0 -57.5 -13t-59 -35t-53.5 -51.5
t-41 -62.5h8q41 0 72 -18t51.5 -46.5t31 -64.5t10.5 -71q0 -20 3 -26.5t11 -6.5t12.5 5.5t6.5 13.5t2.5 17.5t0.5 18.5v9.5t-1 9.5q5 1 9.5 1.5t9.5 0.5q7 0 13 -0.5t13 -1.5q1 -5 1 -11v-11q0 -44 -21.5 -75.5t-66.5 -31.5q-48 0 -69.5 17t-29.5 43.5t-9 59t-8 63.5
q-3 16 -13 28t-22 20t-24.5 12t-21.5 4q-37 0 -37 -58v-70q0 -34 16 -50.5t52 -16.5z" />
    <glyph glyph-name="l" unicode="l" horiz-adv-x="258" 
d="M256 55q-2 -7 -2 -13v-13v-12.5t2 -12.5q-31 1 -61.5 1.5t-61.5 0.5t-61.5 -0.5t-61.5 -1.5q1 7 1.5 13.5t0.5 13.5q0 8 -0.5 14.5t-1.5 13.5q68 3 68 50q0 6 -1 16t-1 15q4 75 7 150t3 153q0 29 -1 59.5t-1 59.5q0 32 1.5 62.5t1.5 63.5q0 25 -17 38.5t-44 13.5
q0 16 -1.5 24.5t-5.5 15.5q32 9 77.5 20.5t107.5 26.5q0 -12 -2 -61t-8 -137q-5 -60 -7.5 -124.5t-2.5 -139.5q0 -69 1.5 -137.5t3.5 -139.5q0 -35 47 -35h9.5t10.5 2z" />
    <glyph glyph-name="m" unicode="m" horiz-adv-x="727" 
d="M16 -1q1 7 1.5 14t0.5 15t-0.5 15.5t-1.5 15.5q7 2 18.5 3.5t22.5 6t18.5 14.5t7.5 29q0 6 -1 17.5t-1.5 24t-1.5 24t-1 17.5q0 16 2.5 50t5 70t5 65t2.5 35q0 17 -14.5 27t-46.5 11q0 14 -1.5 22.5t-3.5 16.5q32 11 77.5 23.5t106.5 23.5q-3 -36 -3 -41t0.5 -10t1.5 -11
q36 47 77 47q14 0 31 -8t32 -20t27.5 -26.5t17.5 -27.5q24 27 40 43.5t28 25t23.5 11t27.5 2.5q23 0 48 -16.5t46 -42.5t35.5 -57.5t16.5 -60.5q1 -11 1 -23v-24q0 -30 -1 -62.5t-1 -66.5q0 -18 0.5 -37t2.5 -35t6 -27t10 -12q7 0 11.5 5t6.5 12t2.5 15.5t0.5 15.5v11.5
t-1 12.5q6 -2 12 -2h11h11.5t10.5 2v-44q0 -36 -25.5 -60.5t-61.5 -24.5q-33 0 -54 9t-32 26.5t-15 44.5t-4 63q0 30 1 61.5t1 60.5q0 33 -5 65.5t-15 59t-25.5 43t-37.5 16.5q-10 0 -17.5 -8t-13 -20t-8.5 -26.5t-3 -28.5q0 -7 0.5 -19l1 -24t1 -21.5t0.5 -12.5
q0 -8 -0.5 -28t-0.5 -46q0 -27 1.5 -56t6.5 -54t14 -41t24 -16q8 0 13 4q1 -5 1.5 -10.5t0.5 -11.5q0 -8 -0.5 -15t-1.5 -15q-54 -3 -109 -3q-56 0 -111 3q6 18 6 56q26 0 38.5 21t12.5 69v36q0 73 -4.5 124t-14 83t-25.5 46t-39 14q-17 0 -29.5 -13.5t-12.5 -29.5
q-3 -136 -4 -202.5t-1 -68.5q0 -80 31 -80q7 0 9 1q0 -20 2 -33t4 -27q-38 1 -61 1.5t-39 1t-27.5 1t-24.5 0.5q-25 0 -43.5 -1t-30.5 -3z" />
    <glyph glyph-name="n" unicode="n" horiz-adv-x="509" 
d="M260 4q-34 1 -67.5 1.5t-67.5 0.5q-28 0 -55.5 -0.5t-55.5 -1.5q0 6 0.5 12.5t0.5 14.5q0 7 -0.5 13.5t-0.5 14.5q9 1 21 2.5t22 6.5t17 15t7 29q0 6 -1 17.5t-1.5 24t-1.5 24t-1 17.5q0 17 2.5 51t5 69.5t5 64t2.5 33.5q0 14 -18 27t-44 13v9q0 11 -1.5 18t-3.5 12
q31 9 76.5 20.5t108.5 26.5q-1 -8 -2.5 -18.5t-1.5 -21.5q0 -13 3 -22q36 47 76 47q22 0 47.5 -18.5t47.5 -46t37 -58t15 -54.5v-219q0 -26 4.5 -45t15.5 -19q8 0 13.5 9.5t5.5 20.5q0 5 -1 14.5t-1 14.5v9q10 -3 23 -3q11 0 23 3v-44q0 -36 -26 -60.5t-62 -24.5
q-104 0 -104 97v204q0 28 -6 55t-17 47.5t-26 33t-33 12.5q-16 0 -28.5 -13.5t-12.5 -29.5q-6 -273 -6 -280q0 -76 55 -76q9 0 12 2q-1 -8 -1 -14.5v-13.5v-12t1 -11z" />
    <glyph glyph-name="o" unicode="o" horiz-adv-x="391" 
d="M189 -14q-172 0 -172 309q0 46 13.5 89.5t37 77.5t54.5 55t67 21q194 0 194 -275q0 -64 -13 -115t-38 -87t-61 -55.5t-82 -19.5zM193 33q93 0 93 208q0 51 -6 95t-15.5 76t-23 50.5t-28.5 18.5q-88 0 -88 -212q0 -236 68 -236z" />
    <glyph glyph-name="p" unicode="p" horiz-adv-x="431" 
d="M15 -134q29 2 45 22.5t16 62.5q0 66 2 132t2 131q0 40 -1 80t-5 72.5t-13 53t-24 20.5q-8 0 -37 -10q1 5 1 9.5v9.5q0 14 -3 26q29 13 61 28.5t65 33.5q6 2 11 2q3 0 6 -0.5t7 -1.5q0 -20 1 -34t8 -28q3 1 10 9.5t18.5 18t29 17.5t42.5 8q165 0 165 -295
q0 -42 -12.5 -84.5t-34 -76t-50 -55t-61.5 -21.5q-29 0 -47 16.5t-30 39.5q0 -2 -0.5 -5t-1 -14t-1 -33.5t-0.5 -62.5q0 -32 10.5 -50t46.5 -18q3 0 6.5 1t8.5 2q-5 -11 -5.5 -24t-0.5 -27q-9 0 -31.5 -1.5t-49 -3.5t-51 -3.5t-37.5 -1.5q-56 0 -66 10v45zM178 219
q0 -140 63 -140q73 0 73 198q0 199 -73 199q-63 0 -63 -127v-130z" />
    <glyph glyph-name="q" unicode="q" horiz-adv-x="404" 
d="M406 -138q1 -5 1.5 -8.5t0.5 -8.5q0 -6 -0.5 -11.5t-1.5 -11.5q-54 -3 -107 -3q-55 0 -109 3q3 10 3 22q0 11 -3 23q23 0 37.5 15.5t14.5 34.5v127q-6 -11 -17 -19.5t-23 -14.5t-23.5 -9.5t-19.5 -3.5q-38 0 -65.5 24.5t-46.5 59.5t-28 75t-9 72q0 301 162 301
q18 0 31.5 -3.5t24 -11.5t19.5 -22.5t18 -35.5q5 11 15.5 25.5t24 27t28.5 21t30 8.5q12 0 25 -1t23 -4q-1 -5 -1 -8.5v-7.5v-9.5t1 -9.5q-1 1 -4 1q-10 0 -18.5 -7.5t-14.5 -20.5t-9.5 -29t-3.5 -34q-3 -105 -3 -203q0 -77 1.5 -150.5t1.5 -148.5q0 -37 45 -44zM251 118
q2 35 3.5 70t1.5 71q0 33 -1 70.5t-6.5 69t-18.5 52.5t-37 21q-17 0 -30.5 -17t-23.5 -45t-15.5 -64t-5.5 -73q0 -34 7.5 -67.5t20.5 -60.5t31.5 -43.5t39.5 -16.5q12 0 22.5 8.5t11.5 24.5z" />
    <glyph glyph-name="r" unicode="r" horiz-adv-x="378" 
d="M258 55q1 -6 1.5 -11.5t0.5 -11.5q0 -7 -0.5 -14t-1.5 -14q-32 2 -64.5 3t-64.5 1q-29 0 -58.5 -1t-58.5 -3q-1 8 -1.5 15t-0.5 15q0 6 0.5 12.5t1.5 12.5q45 9 58 21t13 24q2 39 3 78t1 77q0 35 -1 70.5t-3 70.5q-2 26 -18 39.5t-38 13.5q0 10 -1 20.5t-5 18.5
q32 11 73 22.5t96 24.5q-3 -25 -4 -49.5t-1 -52.5q8 21 20.5 38t26.5 29.5t28 19t26 6.5q49 0 75 -32.5t26 -81.5q0 -15 -4.5 -32t-13 -32t-20.5 -24.5t-27 -9.5q-35 0 -60.5 18t-25.5 53q0 24 13 41t40 17q5 0 12.5 -3t10.5 -3v2q0 30 -36 30q-89 0 -89 -201q0 -68 1 -111
t6.5 -67t17.5 -32.5t34 -8.5q10 0 12 2z" />
    <glyph glyph-name="s" unicode="s" horiz-adv-x="356" 
d="M68 78q8 -47 100 -47q16 0 32 5.5t29 15.5t20.5 24t7.5 30q0 38 -56 77q-49 34 -74.5 52.5t-29.5 22.5q-57 52 -57 124q0 30 12 57.5t31.5 48t43.5 32.5t47 12q84 0 127 -36t43 -90q0 -32 -19 -56t-51 -24q-26 0 -45 20t-19 47q0 20 12 35.5t34 15.5q13 0 20.5 -3.5
t10.5 -6.5q1 3 1 8q0 8 -8.5 15t-22.5 12t-31.5 8t-35.5 3q-11 0 -24 -5.5t-24 -14.5t-18 -20t-7 -22q0 -20 5.5 -37t19 -33.5t36.5 -33.5t58 -37q25 -15 46 -28t36 -29t23 -35.5t8 -47.5t-8.5 -55.5t-26.5 -50t-44.5 -36.5t-62.5 -14q-91 0 -144.5 32t-53.5 93q0 32 19 56
t51 24q26 0 45 -19.5t19 -47.5q0 -20 -17 -35.5t-37 -15.5q-7 0 -13 4.5t-8 5.5z" />
    <glyph glyph-name="t" unicode="t" horiz-adv-x="251" 
d="M171 447q-2 -46 -2 -91v-90t1 -89t1 -89q0 -26 18 -26q16 0 19 13t3 29q0 8 -0.5 14t-1.5 14q5 1 11 1.5t11 0.5q6 0 11.5 -0.5t11.5 -1.5q1 -7 1 -13v-13q0 -20 -3.5 -39t-13 -34.5t-25 -25t-39.5 -9.5q-38 0 -60.5 14.5t-34.5 39t-15.5 58t-3.5 71.5q0 63 1 129t3 133
q-11 4 -20.5 5t-19.5 1h-12.5t-14.5 -1q0 2 1 10t2 17t2.5 16t3.5 7q34 0 60 13t44 36t27.5 55t9.5 71q9 0 18.5 -0.5t17.5 -1.5q3 -36 3 -72q0 -46 -3 -86q11 -2 26 -4t35 -6q-1 -8 -1 -15.5v-14.5v-13.5t1 -12.5q-9 1 -18 1.5t-19 0.5q-9 0 -18 -0.5t-18 -1.5z" />
    <glyph glyph-name="u" unicode="u" horiz-adv-x="448" 
d="M65 125q-6 54 -6 107q0 32 3 64t3 65q0 27 -20 44t-46 17q1 7 2 18t2 27q42 9 81.5 20.5t77.5 26.5q-2 -102 -3 -175t-1 -119q0 -53 5 -87t14 -53.5t22.5 -27t30.5 -7.5q65 0 65 128v150q0 59 -16 84t-48 25q-1 5 -1.5 10.5t-0.5 11.5q0 5 0.5 9t1.5 9q36 11 78 22.5
t90 24.5q1 -61 1 -109v-86q0 -51 -0.5 -81.5t-1 -49.5t-1 -30.5t-0.5 -25.5q0 -69 53 -93q0 -8 -0.5 -18t-3 -18.5t-7.5 -14.5t-13 -6q-26 0 -51 18t-35 44q-54 -56 -126 -56q-29 0 -56 9.5t-47.5 26.5t-33 41.5t-12.5 54.5z" />
    <glyph glyph-name="v" unicode="v" horiz-adv-x="426" 
d="M445 469q-48 -117 -92 -236.5t-86 -246.5q-15 3 -41 3q-11 0 -22.5 -0.5t-26.5 -1.5q-6 22 -16 57.5t-22.5 78t-25.5 87t-25 84.5t-21.5 70.5t-14.5 44.5q-2 6 -9.5 11.5t-18 10t-21.5 7t-20 2.5q2 9 3 20.5t2 26.5q26 7 64 16.5t89 21.5q32 -103 57 -209t47 -216
q87 295 87 300q0 17 -14.5 35t-40.5 18q-4 0 -6 -0.5t-7 -2.5q0 12 -0.5 23t-2.5 19q32 9 77.5 21t106.5 28v-72z" />
    <glyph glyph-name="w" unicode="w" horiz-adv-x="679" 
d="M439 -5q-15 84 -33 157.5t-41 139.5q-25 -69 -50 -144.5t-51 -160.5q-7 1 -16.5 1.5t-23.5 0.5h-19.5t-22.5 -1q-6 19 -15.5 54t-21 77.5t-24 87.5t-23 85t-19 70.5t-11.5 43.5q-2 7 -9.5 12.5t-17 9.5t-19.5 6.5t-17 2.5q1 7 2 18.5t4 27.5q23 9 57 17.5l82 20.5
q20 -108 43.5 -213t50.5 -208q15 59 27 104.5t22 81t17.5 62.5t12.5 49q0 8 -5 17t-12.5 16.5t-16.5 12.5t-17 5q-9 0 -10 -1v41q45 12 78 21.5t56 16.5q20 -71 46 -173t59 -248l80 297q0 9 -5 18t-12.5 16.5t-17 12.5t-17.5 5q-9 0 -10 -1v40q43 9 84 21.5t81 27.5v-72
q-43 -107 -83.5 -225.5t-78.5 -249.5q-9 4 -32 4q-11 0 -23.5 -1t-27.5 -3z" />
    <glyph glyph-name="x" unicode="x" horiz-adv-x="462" 
d="M217 102q-3 -23 -3 -43q0 -13 0.5 -25.5t1.5 -24.5q-45 2 -75.5 3.5t-52.5 1.5t-40 -1.5t-35 -3.5v27.5t1 37.5q38 0 79 44t103 138q-18 40 -32 73.5t-29.5 57.5t-35.5 38t-50 15q-13 0 -14 -1q3 22 3 46q0 18 -3 36q27 2 54 3t54 1q25 0 49.5 -1t49.5 -3
q-1 -7 -1.5 -13.5t-0.5 -14.5q0 -9 0.5 -18t1.5 -18q-20 -6 -22 -33q5 -16 14 -39t24 -54q5 4 13.5 14.5t17 23.5t14.5 27t6 26q0 23 -35 35q3 19 3 38q0 15 -3 30q20 -1 40 -1.5t40 -0.5q24 0 48 0.5t48 1.5q1 -6 1.5 -12t0.5 -13q0 -8 -0.5 -15.5t-1.5 -15.5
q-17 -2 -28 -4.5t-18.5 -7t-13.5 -11.5t-14 -18q-15 -23 -37.5 -56t-53.5 -81q13 -19 27 -51t32.5 -63.5t43 -56.5t57.5 -29l5 -70q-5 -3 -14 -5.5t-31 -4t-60.5 -2t-101.5 -0.5q-1 14 -1.5 28t-0.5 28q0 21 3 44q12 0 16.5 3.5t4.5 11.5q0 5 -5 19t-11 30t-12.5 30.5
t-9.5 19.5q-2 -2 -8 -12.5t-12.5 -24.5t-12 -29t-5.5 -25q0 -30 28 -30z" />
    <glyph glyph-name="y" unicode="y" horiz-adv-x="439" 
d="M156 533q19 -108 44.5 -206.5t52.5 -195.5q81 279 81 282q0 8 -5 17t-13 16.5t-17 12t-18 4.5q-1 0 -9 -2v41q28 7 69.5 19t98.5 27q3 -11 5 -24t2 -27q0 -5 -0.5 -9.5t-0.5 -9.5q-3 -9 -16 -43t-31 -80.5t-39 -100.5t-40.5 -103.5t-35.5 -89.5t-23 -58
q-23 -55 -37.5 -86.5t-22.5 -42.5q-48 -68 -116 -68q-33 0 -58 19t-25 51q0 23 14.5 43.5t49.5 20.5q8 0 18 -3t18.5 -8.5t14.5 -14t6 -19.5q0 -22 -10.5 -34.5t-24.5 -15.5q6 -3 15 -3q13 0 27.5 20t27.5 46.5t21.5 53.5t8.5 42q0 6 -6 36q-23 103 -48.5 186t-40.5 147
q-11 44 -32.5 60.5t-51.5 18.5q1 7 2 18t2 26q35 13 70 22.5t73 14.5z" />
    <glyph glyph-name="z" unicode="z" horiz-adv-x="416" 
d="M352 -7q-77 3 -151 3q-95 0 -189 -3q-1 10 -4.5 22t-8.5 26q60 99 121 193t130 185q0 20 -16 20q-106 0 -134 -117q-12 4 -42 4q-28 0 -40 -4q16 45 29 90.5t19 93.5h181q60 0 141 12v-83q-18 -15 -37.5 -39t-47.5 -65t-67 -102.5t-97 -150.5q24 -8 65 -8q58 0 84 25
t36 85q21 0 42 -1.5t41 -5.5q-16 -37 -29.5 -81.5t-25.5 -98.5z" />
    <glyph glyph-name="braceleft" unicode="{" horiz-adv-x="362" 
d="M302 -156q-46 0 -77 20t-50.5 52t-28 73t-8.5 83q0 21 5 42t10.5 42t10.5 42.5t5 43.5q0 39 -14.5 56t-41.5 26q3 11 5.5 27t2.5 28q20 1 32.5 8t20 18.5t10 26.5t2.5 32q0 30 -4 53.5t-9.5 44.5t-9.5 42t-4 47q0 84 43 133t125 59v-34q-18 0 -34 -11t-29 -30
t-20.5 -45.5t-7.5 -57.5q0 -21 4 -44t9.5 -48t9.5 -53t4 -59q0 -13 -4.5 -28.5t-13.5 -30.5t-23 -28.5t-34 -23.5q29 -19 44 -48.5t15 -59.5q0 -23 -6 -46t-12.5 -46.5t-12.5 -48t-6 -50.5q0 -25 5 -52.5t16.5 -52t30 -43.5t46.5 -28z" />
    <glyph glyph-name="bar" unicode="|" horiz-adv-x="340" 
d="M135 812q18 6 35.5 9.5t35.5 3.5q4 -116 5.5 -229.5t1.5 -228.5q0 -134 -2 -267.5t-5 -270.5q-8 -5 -27 -7.5t-39 -2.5q5 105 7.5 209t2.5 208q0 150 -4 294.5t-11 281.5z" />
    <glyph glyph-name="braceright" unicode="}" horiz-adv-x="362" 
d="M62 -125q28 9 46.5 28t30 43.5t16.5 52t5 52.5q0 26 -6 50.5t-12.5 48t-12.5 46.5t-6 46q0 30 15 59.5t44 48.5q-20 10 -34 23.5t-23 28.5t-13.5 30.5t-4.5 28.5q0 31 4 59t9.5 53t9.5 48t4 44q0 31 -7.5 57.5t-20.5 45.5t-29 30t-34 11v34q82 -10 125 -59t43 -133
q0 -26 -4 -47t-9.5 -42t-9.5 -44.5t-4 -53.5q0 -17 2.5 -32t10 -26.5t20 -18.5t32.5 -8q0 -12 2.5 -28t5.5 -27q-27 -9 -41.5 -26t-14.5 -56q0 -22 5 -43.5t10.5 -42.5t10.5 -42t5 -42q0 -42 -8.5 -83t-28 -73t-50.5 -52t-77 -20z" />
    <glyph glyph-name="asciitilde" unicode="~" horiz-adv-x="579" 
d="M51 352q0 28 9 52t27 42t45.5 28t65.5 10q44 0 77.5 -13.5t59 -30t43.5 -30t31 -13.5q23 0 41 19t29 57l49 -4q0 -31 -6.5 -56t-22.5 -42t-42 -26.5t-66 -9.5q-44 0 -77.5 12.5t-59 27.5t-44 27.5t-31.5 12.5q-70 0 -80 -71z" />
    <glyph glyph-name="nonbreakingspace" unicode="&#xa0;" horiz-adv-x="262" 
 />
    <glyph glyph-name="exclamdown" unicode="&#xa1;" horiz-adv-x="289" 
d="M56 0zM187.007 626.011v-24.998q0 -23.999 4.5 -71.4961t10.999 -104.993q6.5 -57.4961 14.499 -118.993q8 -61.4961 14.499 -113.493q6.5 -51.9961 11 -87.9941t4.5 -43.9971q0 -20.999 -7 -39.998t-19.499 -33.998t-30.498 -23.498q-17.999 -8.5 -38.9971 -8.5
q-44.998 0 -69.9961 33.998q-24.999 33.998 -24.999 88.9951q12 95.9941 22.999 181.988q10.999 85.9951 19.999 156.491q8.99902 70.4951 13.999 124.492q5 53.9961 5 85.9941h68.9951zM157.009 853.997q15.999 0 29.498 -7.49902q13.499 -7.5 23.499 -19.999
q9.99902 -12.499 15.999 -27.998q5.99902 -15.499 5.99902 -32.498q0 -24.999 -22.498 -45.498q-22.499 -20.498 -55.4971 -20.498t-54.9961 21.998q-21.999 21.999 -21.999 54.9971q0 14.999 6.5 28.998q6.49902 13.999 17.499 24.499q10.999 10.499 25.498 16.999
q14.499 6.49902 30.498 6.49902z" />
    <glyph glyph-name="cent" unicode="&#xa2;" horiz-adv-x="385" 
d="M228 112q-1 -12 -1.5 -24.5t-0.5 -25.5q0 -15 0.5 -30.5t1.5 -30.5q-8 -2 -20 -6t-29 -12q-3 31 -3 64t3 66q-77 14 -117 93.5t-40 208.5q0 43 12.5 85t34.5 76t51.5 56t62.5 25q3 30 3 59q0 30 -3 60q8 9 21 16t26 9q3 -48 3 -86q0 -17 -0.5 -31.5t-1.5 -28.5
q31 0 55.5 -10.5t42 -27.5t26.5 -39t9 -44q0 -32 -19 -54.5t-49 -22.5q-26 0 -44 19t-18 45q0 20 16 34.5t36 14.5q6 0 12.5 -4.5t11.5 -4.5v2q0 22 -17.5 33t-56.5 11q-54 0 -79.5 -44t-25.5 -149q0 -69 4.5 -117t13.5 -77.5t24 -43t36 -13.5q31 0 57 20.5t48 56.5
q11 -6 20.5 -12.5t18.5 -15.5q-58 -91 -125 -100z" />
    <glyph glyph-name="sterling" unicode="&#xa3;" horiz-adv-x="557" 
d="M551 169q-16 -45 -27 -91t-21 -94q-66 2 -130 3t-130 1q-60 0 -118.5 -1t-118.5 -3q-1 5 -1.5 11t-0.5 11q0 12 1.5 35t1.5 35q104 0 104 116q0 15 -1 20t-2.5 15t-2.5 31.5t-1 71.5q-8 -2 -15 -2h-15h-15t-15 2q-4 11 -7.5 32.5t-3.5 35.5q10 -1 19.5 -1.5t19.5 -0.5
q8 0 16 0.5t16 1.5q1 73 18 145t50 128t81 91t112 35q49 0 82.5 -19t54.5 -48t30 -63.5t9 -65.5q0 -126 -114 -126q-13 0 -24 8t-19.5 21t-13.5 28.5t-5 30.5q0 80 89 80q0 32 -18 46.5t-59 14.5q-31 0 -54 -16t-40.5 -52t-28.5 -94t-18 -142q42 1 76 1.5t53 0.5
q0 -17 1 -34.5t5 -37.5q-19 -1 -38 -1.5t-38 -0.5q-16 0 -31.5 0.5t-31.5 1.5q-3 -77 -3 -167v-81q39 3 75 3q22 0 43 -1.5t41 -1.5q30 0 57.5 23.5t42.5 63.5q8 1 16 1.5t16 0.5t15.5 -0.5t15.5 -1.5z" />
    <glyph glyph-name="yen" unicode="&#xa5;" horiz-adv-x="645" 
d="M137 107q0 4 -2 12t-4.5 17t-4.5 18.5t-2 16.5h57.5t77.5 1v17t-2 21h-120q-5 12 -9 31.5t-4 32.5h124q-23 112 -63 210.5t-88 179.5q-11 19 -57 19h-12.5t-15.5 -1q7 31 7 60q0 23 -7 37q76 3 155 3q62 0 125 -3q3 -20 3 -39q0 -26 -3 -53q-12 0 -28 -5t-30 -16
q4 -38 28 -111t70 -183q36 82 58.5 134t34.5 83t16 45t4 20t-6 12.5t-15.5 12t-20.5 9.5t-21 4q2 11 3 22.5t1 22.5q0 23 -4 42q60 -3 122 -3q60 0 122 3q3 -21 3 -41q0 -26 -3 -51h-17q-49 0 -63 -23q-2 -3 -11 -23t-26 -56q-48 -103 -79 -179t-46 -129q41 1 73 1h57
q1 -12 2.5 -28.5t6.5 -39.5h-154v-37q48 1 83.5 1.5t61.5 0.5q1 -12 2.5 -28.5t6.5 -39.5h-142q17 -29 57 -37v-96q-33 5 -65.5 6.5t-64.5 1.5t-62 -1.5t-58 -6.5q3 25 4.5 48.5t1.5 53.5q2 -1 11 -1q28 0 43 32h-111z" />
    <glyph glyph-name="brokenbar" unicode="&#xa6;" horiz-adv-x="340" 
d="M135 812q18 6 35.5 9.5t35.5 3.5q4 -115 5.5 -226.5t1.5 -223.5h-64q-2 113 -5.5 222t-8.5 215zM140 -181q5 105 7.5 209t2.5 208v34h63q-1 -110 -3 -219.5t-4 -221.5q-8 -5 -27 -7.5t-39 -2.5z" />
    <glyph glyph-name="section" unicode="&#xa7;" horiz-adv-x="424" 
d="M94 42q8 -47 100 -47q16 0 32 5.5t29 15.5t20.5 24t7.5 30q0 38 -56 77q-49 34 -74.5 52.5t-29.5 22.5q-57 52 -57 124q0 24 8 47t21.5 41.5t31.5 32.5t37 22q-38 25 -64 62t-26 87q0 30 12 57.5t31.5 48t43.5 32.5t47 12q84 0 127 -36t43 -90q0 -32 -19 -56t-51 -24
q-26 0 -45 20t-19 47q0 20 12 35.5t34 15.5q13 0 20.5 -3.5t10.5 -6.5q1 3 1 8q0 8 -8.5 15t-22.5 12t-31.5 8t-35.5 3q-11 0 -24 -5.5t-24 -14.5t-18 -20t-7 -22q0 -20 5.5 -37t19 -33.5t36.5 -33.5t58 -37q25 -15 46 -28t36 -29t23 -35.5t8 -47.5q0 -26 -7 -51.5
t-22 -46.5t-37 -36.5t-52 -19.5q25 -14 45 -27.5t34.5 -29t22.5 -35t8 -46.5q0 -28 -8.5 -55.5t-26.5 -50t-44.5 -36.5t-62.5 -14q-91 0 -144.5 32t-53.5 93q0 32 19 56t51 24q26 0 45 -19.5t19 -47.5q0 -20 -17 -35.5t-37 -15.5q-7 0 -13 4.5t-8 5.5zM291 362q0 15 -6 26
t-15.5 20.5t-20.5 18t-21 17.5q-16 0 -31 -5.5t-27 -14.5t-19.5 -20t-7.5 -22q0 -27 10 -49.5t39 -45.5q20 0 38 5.5t31.5 15.5t21.5 24t8 30z" />
    <glyph glyph-name="dieresis" unicode="&#xa8;" horiz-adv-x="415" 
d="M329 717q26 0 46 -22t20 -52q0 -24 -20.5 -39.5t-46.5 -15.5q-29 0 -48.5 18.5t-19.5 45.5q0 13 6 24.5t16 20.5t22.5 14.5t24.5 5.5zM86 588q-26 0 -46 22t-20 52q0 24 20.5 39.5t46.5 15.5q29 0 48.5 -18.5t19.5 -45.5q0 -13 -6 -24.5t-16 -20.5t-22.5 -14.5
t-24.5 -5.5z" />
    <glyph glyph-name="ordfeminine" unicode="&#xaa;" horiz-adv-x="276" 
d="M184 327q-31 -31 -69 -31q-36 0 -58 20t-22 55q0 45 27.5 71t72.5 26h10.5t11.5 -1q1 6 1.5 12.5t0.5 14.5q0 72 -50 72q-21 0 -31 -24q8 4 19 4q24 0 24 -37q0 -11 -13.5 -21t-24.5 -10q-36 0 -36 49q0 32 27 48t76 16q36 0 52.5 -30.5t16.5 -103.5v-15t-0.5 -21
t-0.5 -21.5v-15.5q0 -62 20 -62q5 0 15 5q3 -6 3 -16q0 -14 -7 -16t-18 -2q-14 0 -28 10t-19 24zM156 390q0 8 0.5 19.5t0.5 25.5q-5 1 -11 1.5t-13 0.5q-17 0 -28 -15t-11 -38q0 -25 12.5 -42t34.5 -17q5 0 8.5 5t5.5 11t2.5 12t0.5 8q0 11 -1 18t-1 11z" />
    <glyph glyph-name="guillemotleft" unicode="&#xab;" horiz-adv-x="644" 
d="M19 159zM19 277q66 49 132.5 93t134.5 83q6 -16 8.5 -33t2.5 -34q-35 -18 -69 -40.5t-67 -50.5q32 -13 63.5 -26.5t69.5 -30.5q-6 -15 -10 -35.5t-6 -43.5q-54 27 -118 56.5t-141 61.5zM341 277q66 49 132.5 93t134.5 83q6 -16 8.5 -33t2.5 -34q-35 -18 -69 -40.5
t-67 -50.5q32 -13 63.5 -26.5t69.5 -30.5q-6 -15 -10 -35.5t-6 -43.5q-54 27 -118 56.5t-141 61.5z" />
    <glyph glyph-name="logicalnot" unicode="&#xac;" horiz-adv-x="567" 
d="M493 367q9 -37 11 -70.5t2 -65.5q0 -112 -9 -227q-10 -2 -34 -3t-49 -1q7 38 9.5 75t2.5 74q0 32 -2 64t-5 63q-30 1 -59.5 1h-58.5q-64 0 -126 -0.5t-125 -1.5q-7 13 -11 37.5t-4 47.5q21 0 57 0.5t80 1.5t92 1.5t92 1.5t80 1.5t57 0.5z" />
    <glyph glyph-name="macron" unicode="&#xaf;" horiz-adv-x="308" 
d="M29 619q0 7 -4.5 24.5t-4.5 33.5q18 0 54.5 0.5t76.5 1.5t77 1.5t55 0.5l5 -62h-259z" />
    <glyph glyph-name="degree" unicode="&#xb0;" horiz-adv-x="343" 
d="M304 700q0 -27 -7.5 -50t-23.5 -40t-40.5 -27t-58.5 -10q-22 0 -46 7.5t-43.5 23t-32.5 39.5t-13 57q0 21 9 43t25.5 40.5t40 30t52.5 11.5q30 0 55.5 -9t43.5 -25.5t28.5 -39.5t10.5 -51zM202 612q20 0 36 18.5t16 38.5t-8 40.5t-22.5 37t-34.5 26.5t-44 10
q-11 0 -19.5 -5.5t-14.5 -13t-9 -16.5t-3 -16q0 -51 26 -85.5t77 -34.5z" />
    <glyph glyph-name="plusminus" unicode="&#xb1;" horiz-adv-x="579" 
d="M49 52zM259 371h-203q-2 9 -4 29t-2 37h209v203q9 2 29 4t37 2v-209h199l10 -66h-209v-199l-66 -10v209zM55 52q-2 9 -4 29t-2 37h474l10 -66h-478z" />
    <glyph glyph-name="twosuperior" unicode="&#xb2;" horiz-adv-x="331" 
d="M24 409zM123 498q18 0 37.5 -4.5t38.5 -10.5t34.5 -10.5t26.5 -4.5q6 0 11.5 7.5t5.5 15.5q0 7 -4 11q13 5 32 7q0 -3 2 -11t2 -13q0 -12 -5.5 -25.5t-14 -25t-20 -18.5t-23.5 -7q-18 0 -36.5 5t-35 11t-30.5 11t-25 5q-15 0 -35 -2.5t-54 -14.5q-6 24 -6 43
q0 39 12.5 64.5t31 43t40 30.5t40 27.5t31 34.5t12.5 52q0 10 -5.5 21.5t-13.5 21t-18 16t-20 6.5q-8 0 -16.5 -4t-16.5 -10.5t-13.5 -14.5t-5.5 -15q7 9 17 9q13 0 21.5 -8t8.5 -21q0 -16 -13.5 -27t-30.5 -11q-19 0 -32.5 15.5t-13.5 34.5q0 82 114 82q59 0 82 -24.5
t23 -82.5q0 -55 -47 -99q-6 -6 -13 -11t-17.5 -12t-25.5 -16.5t-37 -24.5q-53 -36 -59 -70q30 24 64 24z" />
    <glyph glyph-name="threesuperior" unicode="&#xb3;" horiz-adv-x="279" 
d="M23 406zM264 815q-26 -45 -53 -87t-56 -82q44 -14 70.5 -46.5t26.5 -74.5q0 -57 -34.5 -88t-94.5 -31q-39 0 -65 16.5t-26 42.5q0 16 11.5 30t27.5 14q15 0 24.5 -12t9.5 -26q0 -19 -29 -29q3 -12 38 -12q45 0 62 18.5t17 63.5q0 27 -5 45t-18 29t-35 16t-56 7
q26 39 51 78t48 81q-2 2 -8 2q-63 0 -86 -10q-2 -1 -8 -6.5t-13 -11.5t-12.5 -11l-5.5 -5q-4 0 -11 1.5t-11 1.5q5 14 12.5 35.5t17.5 50.5h211z" />
    <glyph glyph-name="acute" unicode="&#xb4;" horiz-adv-x="243" 
d="M20 615q39 32 79 60t83 51q16 -16 25.5 -34.5t15.5 -38.5q-44 -11 -88 -30.5t-89 -44.5q-8 8 -14 17t-12 20z" />
    <glyph glyph-name="paragraph" unicode="&#xb6;" horiz-adv-x="722" 
d="M470 -66q2 31 3.5 76.5t2 97t1 106.5t0.5 105q0 57 -1 112.5t-5 110.5q-3 49 -7.5 78.5t-12 45.5t-19.5 20.5t-30 4.5q-35 0 -53 -20.5t-18 -48.5q0 -37 1 -90.5t2.5 -115.5t3 -128t3.5 -128.5t3.5 -117t2.5 -92.5q-26 3 -58.5 4.5t-62.5 1.5q-1 22 -1.5 63t-1.5 91
t-2 104.5t-2.5 104t-3 89t-3.5 59.5q-96 2 -141 44.5t-45 130.5q0 44 18 72t50 43.5t77.5 21.5t100.5 6q53 0 110 -3t112.5 -7t107.5 -7t97 -3q-1 -9 -1 -17v-16v-21t1 -21q-33 0 -56 -4.5t-38 -18t-22 -37t-7 -61.5q0 -19 1 -64t2 -104.5t2.5 -127.5t2.5 -133t2 -122t2 -93
q-23 5 -56 7t-62 2z" />
    <glyph glyph-name="periodcentered" unicode="&#xb7;" horiz-adv-x="210" 
d="M101 324q-16 0 -29.5 7.5t-23.5 20t-16 28t-6 32.5q0 25 22.5 45.5t55.5 20.5t55 -22t22 -55q0 -15 -6.5 -29t-17.5 -24.5t-25.5 -17t-30.5 -6.5z" />
    <glyph glyph-name="cedilla" unicode="&#xb8;" horiz-adv-x="195" 
d="M175 -110q0 -15 -7.5 -31t-19.5 -29t-28 -21.5t-33 -8.5q-12 0 -33 3v32q4 0 7 -0.5t7 -0.5q45 0 45 23q0 6 -1 7q-8 -4 -19.5 -4.5t-16.5 -0.5q-23 0 -39.5 13t-16.5 33q0 26 26.5 42t68.5 16q26 0 43 -21.5t17 -51.5z" />
    <glyph glyph-name="onesuperior" unicode="&#xb9;" horiz-adv-x="217" 
d="M30 413zM30 413q1 6 1 18v31q26 1 34.5 6.5t10.5 18.5q1 8 3 33t3.5 56.5t3 65t1.5 58.5q-5 1 -10 1.5t-11 0.5q-7 0 -15 -0.5t-19 -1.5q1 2 1 9q0 5 -0.5 11t-0.5 11v12.5t1 14.5q11 -2 17 -2.5t11 -0.5q27 10 27 42q0 3 -0.5 7t-0.5 9h61v-341q4 -9 12 -10.5t34 -2.5
v-46h-164z" />
    <glyph glyph-name="ordmasculine" unicode="&#xba;" horiz-adv-x="275" 
d="M134 292q-95 0 -95 170q0 25 7.5 49t20.5 43t30 30.5t37 11.5q107 0 107 -151q0 -71 -28 -112t-79 -41zM136 318q51 0 51 115q0 28 -3 52t-8.5 42t-13 28t-15.5 10q-48 0 -48 -117q0 -130 37 -130z" />
    <glyph glyph-name="guillemotright" unicode="&#xbb;" horiz-adv-x="644" 
d="M19 159zM297 277q-77 -32 -141 -61.5t-118 -56.5q-2 23 -6 43.5t-10 35.5q38 17 69.5 30.5t63.5 26.5q-33 28 -67 50.5t-69 40.5q0 17 2.5 34t8.5 33q68 -39 134.5 -83t132.5 -93zM619 277q-77 -32 -141 -61.5t-118 -56.5q-2 23 -6 43.5t-10 35.5q38 17 69.5 30.5
t63.5 26.5q-33 28 -67 50.5t-69 40.5q0 17 2.5 34t8.5 33q68 -39 134.5 -83t132.5 -93z" />
    <glyph glyph-name="onequarter" unicode="&#xbc;" horiz-adv-x="738" 
d="M28 0zM66 413q1 6 1 18v31q26 1 34.5 6.5t10.5 18.5q1 8 3 33t3.5 56.5t3 65t1.5 58.5q-5 1 -10 1.5t-11 0.5q-7 0 -15 -0.5t-19 -1.5q1 2 1 9q0 5 -0.5 11t-0.5 11v12.5t1 14.5q11 -2 17 -2.5t11 -0.5q27 10 27 42q0 3 -0.5 7t-0.5 9h61v-341q4 -9 12 -10.5t34 -2.5v-46
h-164zM28 -6q21 20 62.5 69.5t94.5 117t113.5 149.5t120 166.5t113.5 168t95 154.5q16 -14 21.5 -20.5t8.5 -14.5q-10 -28 -39 -77.5t-69 -112t-88.5 -133.5t-98.5 -140.5t-97.5 -133t-86.5 -112.5t-66 -78t-34 -29q-10 0 -25.5 6t-24.5 20zM545 13q20 6 31 9.5t16.5 7.5
t6.5 10t1 17q0 20 -7.5 28.5t-27.5 8.5q-3 0 -9 -0.5t-17.5 -0.5t-30 -0.5t-48.5 -0.5v13q0 1 8 18t21 42.5t28.5 56.5t29.5 61t26 56t17 41q6 0 20 1t30 1.5t30.5 1.5t22.5 1h15v-40q-4 1 -11 1q-13 0 -21.5 -7t-16.5 -17v-141q0 -17 6 -24t33 -7h6.5t7.5 1q-2 -17 -3 -27
t-1 -15q0 -7 3 -19h-47q-2 -8 -2 -17q0 -31 6.5 -41t25.5 -10q4 0 10.5 1.5t9.5 1.5q0 -4 1.5 -11t1.5 -11q0 -14 -6.5 -24t-17.5 -10q-8 0 -41.5 2t-106.5 2v40zM513 148h84v143z" />
    <glyph glyph-name="onehalf" unicode="&#xbd;" horiz-adv-x="780" 
d="M28 0zM66 413q1 6 1 18v31q26 1 34.5 6.5t10.5 18.5q1 8 3 33t3.5 56.5t3 65t1.5 58.5q-5 1 -10 1.5t-11 0.5q-7 0 -15 -0.5t-19 -1.5q1 2 1 9q0 5 -0.5 11t-0.5 11v12.5t1 14.5q11 -2 17 -2.5t11 -0.5q27 10 27 42q0 3 -0.5 7t-0.5 9h61v-341q4 -9 12 -10.5t34 -2.5v-46
h-164zM28 -6q21 20 62.5 69.5t94.5 117t113.5 149.5t120 166.5t113.5 168t95 154.5q16 -14 21.5 -20.5t8.5 -14.5q-10 -28 -39 -77.5t-69 -112t-88.5 -133.5t-98.5 -140.5t-97.5 -133t-86.5 -112.5t-66 -78t-34 -29q-10 0 -25.5 6t-24.5 20zM573 64q18 0 37.5 -4.5
t38.5 -10.5t34.5 -10.5t26.5 -4.5q6 0 11.5 7.5t5.5 15.5q0 7 -4 11q13 5 32 7q0 -3 2 -11t2 -13q0 -12 -5.5 -25.5t-14 -25t-20 -18.5t-23.5 -7q-18 0 -36.5 5t-35 11t-30.5 11t-25 5q-15 0 -35 -2.5t-54 -14.5q-6 24 -6 43q0 39 12.5 64.5t31 43t40 30.5t40 27.5t31 34.5
t12.5 52q0 10 -5.5 21.5t-13.5 21t-18 16t-20 6.5q-8 0 -16.5 -4t-16.5 -10.5t-13.5 -14.5t-5.5 -15q7 9 17 9q13 0 21.5 -8t8.5 -21q0 -16 -13.5 -27t-30.5 -11q-19 0 -32.5 15.5t-13.5 34.5q0 82 114 82q59 0 82 -24.5t23 -82.5q0 -55 -47 -99q-6 -6 -13 -11t-17.5 -12
t-25.5 -16.5t-37 -24.5q-53 -36 -59 -70q30 24 64 24z" />
    <glyph glyph-name="threequarters" unicode="&#xbe;" horiz-adv-x="718" 
d="M28 0zM288 815q-26 -45 -53 -87t-56 -82q44 -14 70.5 -46.5t26.5 -74.5q0 -57 -34.5 -88t-94.5 -31q-39 0 -65 16.5t-26 42.5q0 16 11.5 30t27.5 14q15 0 24.5 -12t9.5 -26q0 -19 -29 -29q3 -12 38 -12q45 0 62 18.5t17 63.5q0 27 -5 45t-18 29t-35 16t-56 7q26 39 51 78
t48 81q-2 2 -8 2q-63 0 -86 -10q-2 -1 -8 -6.5t-13 -11.5t-12.5 -11l-5.5 -5q-4 0 -11 1.5t-11 1.5q5 14 12.5 35.5t17.5 50.5h211zM28 -6q21 20 62.5 69.5t94.5 117t113.5 149.5t120 166.5t113.5 168t95 154.5q16 -14 21.5 -20.5t8.5 -14.5q-10 -28 -39 -77.5t-69 -112
t-88.5 -133.5t-98.5 -140.5t-97.5 -133t-86.5 -112.5t-66 -78t-34 -29q-10 0 -25.5 6t-24.5 20zM525 13q20 6 31 9.5t16.5 7.5t6.5 10t1 17q0 20 -7.5 28.5t-27.5 8.5q-3 0 -9 -0.5t-17.5 -0.5t-30 -0.5t-48.5 -0.5v13q0 1 8 18t21 42.5t28.5 56.5t29.5 61t26 56t17 41
q6 0 20 1t30 1.5t30.5 1.5t22.5 1h15v-40q-4 1 -11 1q-13 0 -21.5 -7t-16.5 -17v-141q0 -17 6 -24t33 -7h6.5t7.5 1q-2 -17 -3 -27t-1 -15q0 -7 3 -19h-47q-2 -8 -2 -17q0 -31 6.5 -41t25.5 -10q4 0 10.5 1.5t9.5 1.5q0 -4 1.5 -11t1.5 -11q0 -14 -6.5 -24t-17.5 -10
q-8 0 -41.5 2t-106.5 2v40zM493 148h84v143z" />
    <glyph glyph-name="questiondown" unicode="&#xbf;" horiz-adv-x="515" 
d="M26 0zM172.021 -16.9521q-32.998 0 -59.9961 17.499t-45.9971 47.4971t-29.498 68.9961q-10.5 38.9971 -10.5 81.9951q0 41.9971 6 70.9951t23.498 51.9971q17.499 22.998 49.9971 43.9971t85.4951 46.9971q57.9961 27.998 57.9961 66.9961q0 6 -3.49902 17.499
q-3.5 11.499 -9.5 23.498q-5.99902 12 -13.499 22.999t-14.499 14.999q0 55.9971 57.9961 55.9971q100.994 0 100.994 -72.9961q0 -37.998 -13.999 -68.4961t-42.998 -50.4961q-28.998 -19.999 -57.9961 -37.998t-51.9971 -40.498q-22.998 -22.498 -36.9971 -52.9961
t-13.999 -77.4951q0 -33.998 8.99902 -63.9961q8.99902 -29.999 25.498 -52.9971q16.499 -22.999 38.998 -36.498t49.4971 -13.499q102.993 0 135.991 77.9951q-24.998 6 -39.9971 12.499q-14.999 6.5 -23.499 14.499q-8.49902 8 -10.999 18.499q-2.5 10.5 -2.5 26.499
q0 13.999 6.5 25.998q6.49902 11.999 16.999 20.999q10.499 8.99902 24.498 14.499t27.998 5.5q76.9961 0 76.9961 -102.994q0 -86.9951 -80.4951 -132.492t-231.486 -45.4971zM287.014 813.997q15.999 0 29.498 -7.49902q13.499 -7.5 23.499 -19.999
q9.99902 -12.499 15.999 -27.998q5.99902 -15.499 5.99902 -32.498q0 -24.999 -22.498 -45.498q-22.499 -20.498 -55.4971 -20.498t-54.9961 21.998q-21.999 21.999 -21.999 54.9971q0 14.999 6.5 28.998q6.49902 13.999 17.498 24.499q11 10.499 25.499 16.999
q14.499 6.49902 30.498 6.49902z" />
    <glyph glyph-name="Agrave" unicode="&#xc0;" horiz-adv-x="620" 
d="M10 0zM284 -14q-60 3 -121 3q-77 0 -153 -3q1 11 1.5 22.5t0.5 22.5t-0.5 22.5t-1.5 22.5q60 2 88 23t33 69q10 106 29 215.5t49 225.5q6 25 8 34.5t3 16.5q0 8 -4 12.5t-11 6.5t-16.5 4t-20.5 5q2 19 8.5 43.5t16.5 59.5q4 0 10.5 -1.5t19.5 -4t35.5 -4t59.5 -1.5
q35 0 58 1.5t37.5 4t22 4t12.5 1.5v-86q-8 -4 -18 -9.5t-22 -12.5q0 -27 8 -83t21.5 -124.5t31 -141.5t37 -132.5t39.5 -98t38 -38.5q6 0 13.5 1t15.5 4q0 -9 1 -26t1 -26t-0.5 -15.5t-1.5 -14.5q-72 -3 -145 -3q-74 0 -147 3q1 14 1 40v65q25 0 35.5 12t10.5 36l-6 64
q-26 -2 -53.5 -3t-59.5 -2q-16 -35 -16 -67q0 -8 15 -21.5t37 -18.5v-107zM296 541q-12 -82 -51 -251q44 3 116 29q-19 56 -36 110t-29 112zM381 887q-6 -11 -12 -20t-14 -17q-45 25 -89 44.5t-88 30.5q6 20 15.5 38.5t25.5 34.5q43 -23 83 -51t79 -60z" />
    <glyph glyph-name="Aacute" unicode="&#xc1;" horiz-adv-x="620" 
d="M10 0zM284 -14q-60 3 -121 3q-77 0 -153 -3q1 11 1.5 22.5t0.5 22.5t-0.5 22.5t-1.5 22.5q60 2 88 23t33 69q10 106 29 215.5t49 225.5q6 25 8 34.5t3 16.5q0 8 -4 12.5t-11 6.5t-16.5 4t-20.5 5q2 19 8.5 43.5t16.5 59.5q4 0 10.5 -1.5t19.5 -4t35.5 -4t59.5 -1.5
q35 0 58 1.5t37.5 4t22 4t12.5 1.5v-86q-8 -4 -18 -9.5t-22 -12.5q0 -27 8 -83t21.5 -124.5t31 -141.5t37 -132.5t39.5 -98t38 -38.5q6 0 13.5 1t15.5 4q0 -9 1 -26t1 -26t-0.5 -15.5t-1.5 -14.5q-72 -3 -145 -3q-74 0 -147 3q1 14 1 40v65q25 0 35.5 12t10.5 36l-6 64
q-26 -2 -53.5 -3t-59.5 -2q-16 -35 -16 -67q0 -8 15 -21.5t37 -18.5v-107zM296 541q-12 -82 -51 -251q44 3 116 29q-19 56 -36 110t-29 112zM238 887q39 32 79 60t83 51q16 -16 25.5 -34.5t15.5 -38.5q-44 -11 -88 -30.5t-89 -44.5q-8 8 -14 17t-12 20z" />
    <glyph glyph-name="Acircumflex" unicode="&#xc2;" horiz-adv-x="620" 
d="M10 0zM284 -14q-60 3 -121 3q-77 0 -153 -3q1 11 1.5 22.5t0.5 22.5t-0.5 22.5t-1.5 22.5q60 2 88 23t33 69q10 106 29 215.5t49 225.5q6 25 8 34.5t3 16.5q0 8 -4 12.5t-11 6.5t-16.5 4t-20.5 5q2 19 8.5 43.5t16.5 59.5q4 0 10.5 -1.5t19.5 -4t35.5 -4t59.5 -1.5
q35 0 58 1.5t37.5 4t22 4t12.5 1.5v-86q-8 -4 -18 -9.5t-22 -12.5q0 -27 8 -83t21.5 -124.5t31 -141.5t37 -132.5t39.5 -98t38 -38.5q6 0 13.5 1t15.5 4q0 -9 1 -26t1 -26t-0.5 -15.5t-1.5 -14.5q-72 -3 -145 -3q-74 0 -147 3q1 14 1 40v65q25 0 35.5 12t10.5 36l-6 64
q-26 -2 -53.5 -3t-59.5 -2q-16 -35 -16 -67q0 -8 15 -21.5t37 -18.5v-107zM296 541q-12 -82 -51 -251q44 3 116 29q-19 56 -36 110t-29 112zM249 998q31 -6 57.5 -10.5t49.5 -4.5q44 -47 70 -81t34 -52h-103q-2 6 -9 19t-15.5 27t-17 26.5t-13.5 17.5q-18 -35 -29.5 -60.5
t-13.5 -25.5q-17 0 -41 1.5t-59 7.5z" />
    <glyph glyph-name="Atilde" unicode="&#xc3;" horiz-adv-x="620" 
d="M10 0zM284 -14q-60 3 -121 3q-77 0 -153 -3q1 11 1.5 22.5t0.5 22.5t-0.5 22.5t-1.5 22.5q60 2 88 23t33 69q10 106 29 215.5t49 225.5q6 25 8 34.5t3 16.5q0 8 -4 12.5t-11 6.5t-16.5 4t-20.5 5q2 19 8.5 43.5t16.5 59.5q4 0 10.5 -1.5t19.5 -4t35.5 -4t59.5 -1.5
q35 0 58 1.5t37.5 4t22 4t12.5 1.5v-86q-8 -4 -18 -9.5t-22 -12.5q0 -27 8 -83t21.5 -124.5t31 -141.5t37 -132.5t39.5 -98t38 -38.5q6 0 13.5 1t15.5 4q0 -9 1 -26t1 -26t-0.5 -15.5t-1.5 -14.5q-72 -3 -145 -3q-74 0 -147 3q1 14 1 40v65q25 0 35.5 12t10.5 36l-6 64
q-26 -2 -53.5 -3t-59.5 -2q-16 -35 -16 -67q0 -8 15 -21.5t37 -18.5v-107zM296 541q-12 -82 -51 -251q44 3 116 29q-19 56 -36 110t-29 112zM146 877q0 23 6.5 43.5t21 35.5t38 23.5t57.5 8.5q22 0 40.5 -11.5t33.5 -25t27 -25t21 -11.5q16 0 28.5 16t19.5 48l34 -4
q0 -26 -4.5 -46.5t-16.5 -35t-33 -22.5t-53 -8q-25 0 -45.5 10.5t-36.5 23t-28.5 23t-21.5 10.5q-48 0 -55 -59z" />
    <glyph glyph-name="Adieresis" unicode="&#xc4;" horiz-adv-x="620" 
d="M10 0zM284 -14q-60 3 -121 3q-77 0 -153 -3q1 11 1.5 22.5t0.5 22.5t-0.5 22.5t-1.5 22.5q60 2 88 23t33 69q10 106 29 215.5t49 225.5q6 25 8 34.5t3 16.5q0 8 -4 12.5t-11 6.5t-16.5 4t-20.5 5q2 19 8.5 43.5t16.5 59.5q4 0 10.5 -1.5t19.5 -4t35.5 -4t59.5 -1.5
q35 0 58 1.5t37.5 4t22 4t12.5 1.5v-86q-8 -4 -18 -9.5t-22 -12.5q0 -27 8 -83t21.5 -124.5t31 -141.5t37 -132.5t39.5 -98t38 -38.5q6 0 13.5 1t15.5 4q0 -9 1 -26t1 -26t-0.5 -15.5t-1.5 -14.5q-72 -3 -145 -3q-74 0 -147 3q1 14 1 40v65q25 0 35.5 12t10.5 36l-6 64
q-26 -2 -53.5 -3t-59.5 -2q-16 -35 -16 -67q0 -8 15 -21.5t37 -18.5v-107zM296 541q-12 -82 -51 -251q44 3 116 29q-19 56 -36 110t-29 112zM431 989q26 0 46 -22t20 -52q0 -24 -20.5 -39.5t-46.5 -15.5q-29 0 -48.5 18.5t-19.5 45.5q0 13 6 24.5t16 20.5t22.5 14.5
t24.5 5.5zM188 860q-26 0 -46 22t-20 52q0 24 20.5 39.5t46.5 15.5q29 0 48.5 -18.5t19.5 -45.5q0 -13 -6 -24.5t-16 -20.5t-22.5 -14.5t-24.5 -5.5z" />
    <glyph glyph-name="Aring" unicode="&#xc5;" horiz-adv-x="620" 
d="M10 0zM284 -14q-60 3 -121 3q-77 0 -153 -3q1 11 1.5 22.5t0.5 22.5t-0.5 22.5t-1.5 22.5q60 2 88 23t33 69q10 106 29 215.5t49 225.5q6 25 8 34.5t3 16.5q0 8 -4 12.5t-11 6.5t-16.5 4t-20.5 5q2 19 8.5 43.5t16.5 59.5q4 0 10.5 -1.5t19.5 -4t35.5 -4t59.5 -1.5
q35 0 58 1.5t37.5 4t22 4t12.5 1.5v-86q-8 -4 -18 -9.5t-22 -12.5q0 -27 8 -83t21.5 -124.5t31 -141.5t37 -132.5t39.5 -98t38 -38.5q6 0 13.5 1t15.5 4q0 -9 1 -26t1 -26t-0.5 -15.5t-1.5 -14.5q-72 -3 -145 -3q-74 0 -147 3q1 14 1 40v65q25 0 35.5 12t10.5 36l-6 64
q-26 -2 -53.5 -3t-59.5 -2q-16 -35 -16 -67q0 -8 15 -21.5t37 -18.5v-107zM296 541q-12 -82 -51 -251q44 3 116 29q-19 56 -36 110t-29 112zM217 924q0 33 27.5 53.5t64.5 20.5q38 0 65.5 -20.5t27.5 -53.5q0 -31 -27.5 -52.5t-65.5 -21.5q-37 0 -64.5 21.5t-27.5 52.5z
M251 924q0 -20 17.5 -33t40.5 -13t41 13t18 33q0 21 -18 34t-41 13t-40.5 -13t-17.5 -34z" />
    <glyph glyph-name="AE" unicode="&#xc6;" horiz-adv-x="739" 
d="M-5 76q26 0 44.5 5t32.5 15.5t24 28t18 43.5q13 40 26.5 88.5t26 99t23.5 99t19 90t13 71.5t5 44q0 16 -15.5 19.5t-37.5 8.5q3 19 9 47.5t15 55.5q21 -3 52.5 -4.5t69.5 -1.5q41 0 87 1t91.5 2.5t88 2.5t77.5 1h28t24 -1q-3 -36 -3 -77t3 -86q-23 -4 -49 -4
q-11 0 -23.5 1t-26.5 3q0 5 -3.5 14t-8.5 17.5t-11 15t-11 6.5q-29 3 -57 3t-56 -3q5 -82 7.5 -137t2.5 -87h68q1 8 3.5 17.5t8.5 23.5h103q-32 -128 -48 -222q-8 1 -15 1.5t-15 0.5h-16t-16 -2q-1 6 -3.5 16t-8.5 26q-9 2 -18 3t-18 1q-17 0 -30 -4q-5 -13 -7.5 -35.5
t-2.5 -49.5q0 -26 3 -52.5t10 -49.5q20 -5 39 -6.5t37 -1.5q38 0 53 16t17 54q24 6 48 6q26 0 52 -6q1 -12 1 -23v-23q0 -135 -1 -135v1q-213 -15 -412 -21q-6 27 -6 53q0 24 6 48q40 0 40 48q0 60 -46 60q-9 0 -26.5 -1t-25.5 -1h-10.5t-10.5 1q-16 -35 -16 -67
q0 -6 10.5 -14.5t22.5 -16.5q-4 -19 -4 -48q0 -15 1 -31t3 -33q-66 -2 -129 -3t-126 -1v90zM256 320q0 -14 11 -20.5t26 -6.5q11 0 23 1.5t28 9.5q3 40 5 84.5t2 89.5q0 54 -3 106t-8 94q-19 -76 -32.5 -129.5t-22.5 -90t-14.5 -59t-8.5 -37t-4 -23.5t-2 -19z" />
    <glyph glyph-name="Ccedilla" unicode="&#xc7;" horiz-adv-x="478" 
d="M16 0zM467 186q-3 -48 -19 -88.5t-42 -70t-61 -46t-77 -16.5q-51 0 -96.5 31t-80 80.5t-55 111t-20.5 123.5q0 107 18 196.5t52.5 154t83 100t110.5 35.5q30 0 61 -19t56.5 -48t42 -63.5t16.5 -65.5q0 -126 -114 -126q-13 0 -24.5 8t-19.5 21t-13 28.5t-5 30.5
q0 80 88 80q0 32 -17.5 46.5t-59.5 14.5q-32 0 -58 -24.5t-44 -68.5t-28 -104t-10 -131q0 -56 10.5 -108.5t28.5 -94t43.5 -66.5t55.5 -25t58 26t52 97q26 -12 68 -19zM326 -110q0 -15 -7.5 -31t-19.5 -29t-28 -21.5t-33 -8.5q-12 0 -33 3v32q4 0 7 -0.5t7 -0.5q45 0 45 23
q0 6 -1 7q-8 -4 -19.5 -4.5t-16.5 -0.5q-23 0 -39.5 13t-16.5 33q0 26 26.5 42t68.5 16q26 0 43 -21.5t17 -51.5z" />
    <glyph glyph-name="Egrave" unicode="&#xc8;" horiz-adv-x="517" 
d="M0 1zM3 1q-3 16 -3 71q15 1 32 3t32 8t25 16.5t10 29.5q0 11 4 57t9 114.5t9 152t4 169.5q0 28 -20 44t-55 16q3 21 4.5 41t1.5 50q19 4 40.5 7.5t58 5.5t94 3.5t148.5 1.5h92q-1 -12 -2 -28.5t-1 -48.5q0 -22 0.5 -43.5t1.5 -42.5q-19 0 -40 -2.5t-39 -5.5
q-11 8 -27.5 34t-25.5 56h-114q5 -97 8.5 -169t3.5 -124h67q12 46 18 85h70q-18 -116 -21 -226h-62q-2 8 -4.5 25t-6.5 46h-68q-2 -42 -6 -100.5t-11 -136.5q26 -5 51 -7.5t46 -2.5q38 0 52.5 27.5t16.5 65.5h101q0 -6 0.5 -14t0.5 -26v-51v-89zM350 887q-6 -11 -12 -20
t-14 -17q-45 25 -89 44.5t-88 30.5q6 20 15.5 38.5t25.5 34.5q43 -23 83 -51t79 -60z" />
    <glyph glyph-name="Eacute" unicode="&#xc9;" horiz-adv-x="517" 
d="M0 1zM3 1q-3 16 -3 71q15 1 32 3t32 8t25 16.5t10 29.5q0 11 4 57t9 114.5t9 152t4 169.5q0 28 -20 44t-55 16q3 21 4.5 41t1.5 50q19 4 40.5 7.5t58 5.5t94 3.5t148.5 1.5h92q-1 -12 -2 -28.5t-1 -48.5q0 -22 0.5 -43.5t1.5 -42.5q-19 0 -40 -2.5t-39 -5.5
q-11 8 -27.5 34t-25.5 56h-114q5 -97 8.5 -169t3.5 -124h67q12 46 18 85h70q-18 -116 -21 -226h-62q-2 8 -4.5 25t-6.5 46h-68q-2 -42 -6 -100.5t-11 -136.5q26 -5 51 -7.5t46 -2.5q38 0 52.5 27.5t16.5 65.5h101q0 -6 0.5 -14t0.5 -26v-51v-89zM187 887q39 32 79 60t83 51
q16 -16 25.5 -34.5t15.5 -38.5q-44 -11 -88 -30.5t-89 -44.5q-8 8 -14 17t-12 20z" />
    <glyph glyph-name="Ecircumflex" unicode="&#xca;" horiz-adv-x="517" 
d="M0 1zM3 1q-3 16 -3 71q15 1 32 3t32 8t25 16.5t10 29.5q0 11 4 57t9 114.5t9 152t4 169.5q0 28 -20 44t-55 16q3 21 4.5 41t1.5 50q19 4 40.5 7.5t58 5.5t94 3.5t148.5 1.5h92q-1 -12 -2 -28.5t-1 -48.5q0 -22 0.5 -43.5t1.5 -42.5q-19 0 -40 -2.5t-39 -5.5
q-11 8 -27.5 34t-25.5 56h-114q5 -97 8.5 -169t3.5 -124h67q12 46 18 85h70q-18 -116 -21 -226h-62q-2 8 -4.5 25t-6.5 46h-68q-2 -42 -6 -100.5t-11 -136.5q26 -5 51 -7.5t46 -2.5q38 0 52.5 27.5t16.5 65.5h101q0 -6 0.5 -14t0.5 -26v-51v-89zM208 998q31 -6 57.5 -10.5
t49.5 -4.5q44 -47 70 -81t34 -52h-103q-2 6 -9 19t-15.5 27t-17 26.5t-13.5 17.5q-18 -35 -29.5 -60.5t-13.5 -25.5q-17 0 -41 1.5t-59 7.5z" />
    <glyph glyph-name="Edieresis" unicode="&#xcb;" horiz-adv-x="517" 
d="M0 1zM3 1q-3 16 -3 71q15 1 32 3t32 8t25 16.5t10 29.5q0 11 4 57t9 114.5t9 152t4 169.5q0 28 -20 44t-55 16q3 21 4.5 41t1.5 50q19 4 40.5 7.5t58 5.5t94 3.5t148.5 1.5h92q-1 -12 -2 -28.5t-1 -48.5q0 -22 0.5 -43.5t1.5 -42.5q-19 0 -40 -2.5t-39 -5.5
q-11 8 -27.5 34t-25.5 56h-114q5 -97 8.5 -169t3.5 -124h67q12 46 18 85h70q-18 -116 -21 -226h-62q-2 8 -4.5 25t-6.5 46h-68q-2 -42 -6 -100.5t-11 -136.5q26 -5 51 -7.5t46 -2.5q38 0 52.5 27.5t16.5 65.5h101q0 -6 0.5 -14t0.5 -26v-51v-89zM390 989q26 0 46 -22t20 -52
q0 -24 -20.5 -39.5t-46.5 -15.5q-29 0 -48.5 18.5t-19.5 45.5q0 13 6 24.5t16 20.5t22.5 14.5t24.5 5.5zM147 860q-26 0 -46 22t-20 52q0 24 20.5 39.5t46.5 15.5q29 0 48.5 -18.5t19.5 -45.5q0 -13 -6 -24.5t-16 -20.5t-22.5 -14.5t-24.5 -5.5z" />
    <glyph glyph-name="Igrave" unicode="&#xcc;" horiz-adv-x="349" 
d="M11 0zM342 64q-1 -10 -1 -19v-17v-24t1 -23q-42 1 -83 1.5t-83 0.5t-82.5 -0.5t-82.5 -1.5q1 12 1.5 24t0.5 25v20t-2 20q16 -3 33 -3q50 0 68 31q5 8 8 20t4.5 36.5t2 66t0.5 110.5q0 57 -1 112.5t-5 110.5q-3 49 -7.5 80t-12 48t-19.5 23.5t-31 6.5h-7.5t-9.5 -2
q0 11 0.5 21t0.5 21v16t-1 17q38 -2 77.5 -5t77 -6t71 -5t59.5 -2q-1 -9 -1 -17v-16v-21t1 -21q-15 5 -26 5q-67 0 -67 -116q0 -22 1 -58.5t2 -81.5t3 -93.5t3 -93.5t2 -82t1 -58q0 -53 80 -53q15 0 24 3zM246 887q-6 -11 -12 -20t-14 -17q-45 25 -89 44.5t-88 30.5
q6 20 15.5 38.5t25.5 34.5q43 -23 83 -51t79 -60z" />
    <glyph glyph-name="Iacute" unicode="&#xcd;" horiz-adv-x="349" 
d="M11 0zM342 64q-1 -10 -1 -19v-17v-24t1 -23q-42 1 -83 1.5t-83 0.5t-82.5 -0.5t-82.5 -1.5q1 12 1.5 24t0.5 25v20t-2 20q16 -3 33 -3q50 0 68 31q5 8 8 20t4.5 36.5t2 66t0.5 110.5q0 57 -1 112.5t-5 110.5q-3 49 -7.5 80t-12 48t-19.5 23.5t-31 6.5h-7.5t-9.5 -2
q0 11 0.5 21t0.5 21v16t-1 17q38 -2 77.5 -5t77 -6t71 -5t59.5 -2q-1 -9 -1 -17v-16v-21t1 -21q-15 5 -26 5q-67 0 -67 -116q0 -22 1 -58.5t2 -81.5t3 -93.5t3 -93.5t2 -82t1 -58q0 -53 80 -53q15 0 24 3zM103 887q39 32 79 60t83 51q16 -16 25.5 -34.5t15.5 -38.5
q-44 -11 -88 -30.5t-89 -44.5q-8 8 -14 17t-12 20z" />
    <glyph glyph-name="Icircumflex" unicode="&#xce;" horiz-adv-x="349" 
d="M11 0zM342 64q-1 -10 -1 -19v-17v-24t1 -23q-42 1 -83 1.5t-83 0.5t-82.5 -0.5t-82.5 -1.5q1 12 1.5 24t0.5 25v20t-2 20q16 -3 33 -3q50 0 68 31q5 8 8 20t4.5 36.5t2 66t0.5 110.5q0 57 -1 112.5t-5 110.5q-3 49 -7.5 80t-12 48t-19.5 23.5t-31 6.5h-7.5t-9.5 -2
q0 11 0.5 21t0.5 21v16t-1 17q38 -2 77.5 -5t77 -6t71 -5t59.5 -2q-1 -9 -1 -17v-16v-21t1 -21q-15 5 -26 5q-67 0 -67 -116q0 -22 1 -58.5t2 -81.5t3 -93.5t3 -93.5t2 -82t1 -58q0 -53 80 -53q15 0 24 3zM114 998q31 -6 57.5 -10.5t49.5 -4.5q44 -47 70 -81t34 -52h-103
q-2 6 -9 19t-15.5 27t-17 26.5t-13.5 17.5q-18 -35 -29.5 -60.5t-13.5 -25.5q-17 0 -41 1.5t-59 7.5z" />
    <glyph glyph-name="Idieresis" unicode="&#xcf;" horiz-adv-x="349" 
d="M0 0zM342 64q-1 -10 -1 -19v-17v-24t1 -23q-42 1 -83 1.5t-83 0.5t-82.5 -0.5t-82.5 -1.5q1 12 1.5 24t0.5 25v20t-2 20q16 -3 33 -3q50 0 68 31q5 8 8 20t4.5 36.5t2 66t0.5 110.5q0 57 -1 112.5t-5 110.5q-3 49 -7.5 80t-12 48t-19.5 23.5t-31 6.5h-7.5t-9.5 -2
q0 11 0.5 21t0.5 21v16t-1 17q38 -2 77.5 -5t77 -6t71 -5t59.5 -2q-1 -9 -1 -17v-16v-21t1 -21q-15 5 -26 5q-67 0 -67 -116q0 -22 1 -58.5t2 -81.5t3 -93.5t3 -93.5t2 -82t1 -58q0 -53 80 -53q15 0 24 3zM297 989q26 0 46 -22t20 -52q0 -24 -20.5 -39.5t-46.5 -15.5
q-29 0 -48.5 18.5t-19.5 45.5q0 13 6 24.5t16 20.5t22.5 14.5t24.5 5.5zM54 860q-26 0 -46 22t-20 52q0 24 20.5 39.5t46.5 15.5q29 0 48.5 -18.5t19.5 -45.5q0 -13 -6 -24.5t-16 -20.5t-22.5 -14.5t-24.5 -5.5z" />
    <glyph glyph-name="Eth" unicode="&#xd0;" horiz-adv-x="558" 
d="M42 348q0 6 -1.5 17t-3.5 23.5t-3.5 25t-1.5 20.5v13h37t47 1q4 46 6 89t2 85q0 28 -19 44t-47 16h-10q3 25 5 47.5t2 43.5q35 10 65.5 15t59.5 5q108 0 176.5 -17t106.5 -60t52 -116.5t14 -185.5q0 -100 -23.5 -181t-68 -138t-109.5 -88t-148 -31q-8 0 -24.5 0.5
t-34.5 1.5t-35 1.5t-25 0.5q-19 0 -33.5 -0.5t-25.5 -1.5q2 19 3.5 43.5t1.5 54.5q104 0 104 116q0 7 -1.5 25t-3 38.5t-2.5 39t-1 26.5v11t1 11v5h-62zM241 129h25q29 0 55 23t45.5 64.5t31 98t11.5 123.5q0 52 -8.5 96.5t-24.5 76.5t-39 50t-52 18h-44v-226q28 1 51 1h40
l6 -106h-97v-219z" />
    <glyph glyph-name="Ntilde" unicode="&#xd1;" horiz-adv-x="656" 
d="M9 0zM255 -11q-68 3 -137 3q-54 0 -109 -3q1 10 1 31v56q103 0 103 116q0 8 -1.5 26t-3 38t-2.5 38.5t-1 26.5v11t1 11q11 75 15.5 144.5t4.5 134.5q0 28 -19 44t-47 16h-10q4 25 5.5 47.5t1.5 44.5q38 5 65.5 8t44.5 3q14 0 29 -0.5t34 -1.5q83 -159 147.5 -291.5
t113.5 -245.5q1 51 1.5 101.5t0.5 102.5v103.5t-2 105.5q-1 26 -17 44.5t-60 18.5q1 8 1.5 15.5t0.5 15.5q0 7 -0.5 14t-1.5 15q33 1 65.5 1.5t65.5 0.5q27 0 54 -0.5t54 -1.5q-1 -8 -1 -14v-12v-14.5t1 -13.5q-19 2 -30.5 3.5t-16.5 1.5q-15 0 -25 -8.5t-16 -21t-8.5 -26
t-2.5 -23.5q0 -168 5 -331t6 -327q-8 -3 -26.5 -5.5t-30.5 -2.5q-4 0 -23.5 30t-48 78.5t-62.5 110t-67.5 125t-63.5 122.5t-49 103l-10 -206t-5 -218q0 -11 4.5 -23.5t13 -23t19.5 -17.5t24 -7q3 0 6 0.5t8 1.5q3 -9 3 -24q0 -9 -1 -25.5t-1 -25.5zM174 877q0 23 6.5 43.5
t21 35.5t38 23.5t57.5 8.5q22 0 40.5 -11.5t33.5 -25t27 -25t21 -11.5q16 0 28.5 16t19.5 48l34 -4q0 -26 -4.5 -46.5t-16.5 -35t-33 -22.5t-53 -8q-25 0 -45.5 10.5t-36.5 23t-28.5 23t-21.5 10.5q-48 0 -55 -59z" />
    <glyph glyph-name="Ograve" unicode="&#xd2;" horiz-adv-x="525" 
d="M12 0zM259 -35q-57 0 -102.5 29t-77.5 82t-49.5 126t-17.5 162q0 97 17.5 175t50.5 133t81.5 84t110.5 29q59 0 104.5 -26.5t76.5 -76.5t47 -122t16 -164q0 -100 -17 -180t-50 -135.5t-81 -85.5t-109 -30zM259 71q21 0 39 26t31.5 67.5t21 93t7.5 103.5q0 59 -7 119
t-19 108.5t-29 79t-36 30.5q-97 0 -97 -292q0 -335 89 -335zM334 887q-6 -11 -12 -20t-14 -17q-45 25 -89 44.5t-88 30.5q6 20 15.5 38.5t25.5 34.5q43 -23 83 -51t79 -60z" />
    <glyph glyph-name="Oacute" unicode="&#xd3;" horiz-adv-x="525" 
d="M12 0zM259 -35q-57 0 -102.5 29t-77.5 82t-49.5 126t-17.5 162q0 97 17.5 175t50.5 133t81.5 84t110.5 29q59 0 104.5 -26.5t76.5 -76.5t47 -122t16 -164q0 -100 -17 -180t-50 -135.5t-81 -85.5t-109 -30zM259 71q21 0 39 26t31.5 67.5t21 93t7.5 103.5q0 59 -7 119
t-19 108.5t-29 79t-36 30.5q-97 0 -97 -292q0 -335 89 -335zM191 887q39 32 79 60t83 51q16 -16 25.5 -34.5t15.5 -38.5q-44 -11 -88 -30.5t-89 -44.5q-8 8 -14 17t-12 20z" />
    <glyph glyph-name="Ocircumflex" unicode="&#xd4;" horiz-adv-x="525" 
d="M12 0zM259 -35q-57 0 -102.5 29t-77.5 82t-49.5 126t-17.5 162q0 97 17.5 175t50.5 133t81.5 84t110.5 29q59 0 104.5 -26.5t76.5 -76.5t47 -122t16 -164q0 -100 -17 -180t-50 -135.5t-81 -85.5t-109 -30zM259 71q21 0 39 26t31.5 67.5t21 93t7.5 103.5q0 59 -7 119
t-19 108.5t-29 79t-36 30.5q-97 0 -97 -292q0 -335 89 -335zM202 998q31 -6 57.5 -10.5t49.5 -4.5q44 -47 70 -81t34 -52h-103q-2 6 -9 19t-15.5 27t-17 26.5t-13.5 17.5q-18 -35 -29.5 -60.5t-13.5 -25.5q-17 0 -41 1.5t-59 7.5z" />
    <glyph glyph-name="Otilde" unicode="&#xd5;" horiz-adv-x="525" 
d="M12 0zM259 -35q-57 0 -102.5 29t-77.5 82t-49.5 126t-17.5 162q0 97 17.5 175t50.5 133t81.5 84t110.5 29q59 0 104.5 -26.5t76.5 -76.5t47 -122t16 -164q0 -100 -17 -180t-50 -135.5t-81 -85.5t-109 -30zM259 71q21 0 39 26t31.5 67.5t21 93t7.5 103.5q0 59 -7 119
t-19 108.5t-29 79t-36 30.5q-97 0 -97 -292q0 -335 89 -335zM99 877q0 23 6.5 43.5t21 35.5t38 23.5t57.5 8.5q22 0 40.5 -11.5t33.5 -25t27 -25t21 -11.5q16 0 28.5 16t19.5 48l34 -4q0 -26 -4.5 -46.5t-16.5 -35t-33 -22.5t-53 -8q-25 0 -45.5 10.5t-36.5 23t-28.5 23
t-21.5 10.5q-48 0 -55 -59z" />
    <glyph glyph-name="Odieresis" unicode="&#xd6;" horiz-adv-x="525" 
d="M12 0zM259 -35q-57 0 -102.5 29t-77.5 82t-49.5 126t-17.5 162q0 97 17.5 175t50.5 133t81.5 84t110.5 29q59 0 104.5 -26.5t76.5 -76.5t47 -122t16 -164q0 -100 -17 -180t-50 -135.5t-81 -85.5t-109 -30zM259 71q21 0 39 26t31.5 67.5t21 93t7.5 103.5q0 59 -7 119
t-19 108.5t-29 79t-36 30.5q-97 0 -97 -292q0 -335 89 -335zM384 989q26 0 46 -22t20 -52q0 -24 -20.5 -39.5t-46.5 -15.5q-29 0 -48.5 18.5t-19.5 45.5q0 13 6 24.5t16 20.5t22.5 14.5t24.5 5.5zM141 860q-26 0 -46 22t-20 52q0 24 20.5 39.5t46.5 15.5q29 0 48.5 -18.5
t19.5 -45.5q0 -13 -6 -24.5t-16 -20.5t-22.5 -14.5t-24.5 -5.5z" />
    <glyph glyph-name="multiply" unicode="&#xd7;" horiz-adv-x="579" 
d="M300 361l-143 -144q-8 5 -23.5 17.5t-27.5 24.5l147 148l-144 144q5 8 17.5 23t25.5 27l148 -147l140 141l54 -40l-148 -148l141 -140l-39 -54z" />
    <glyph glyph-name="Oslash" unicode="&#xd8;" horiz-adv-x="545" 
d="M116 -64q-15 5 -29.5 15t-25.5 27q11 14 20.5 32t20.5 41q-42 55 -61.5 137t-19.5 176q0 97 17 175t50 133t81.5 84t111.5 29q39 0 83 -15q3 14 11 33t14 30q32 -6 52 -26q-8 -15 -14 -32.5t-11 -36.5q109 -100 109 -342q0 -100 -17.5 -180t-50.5 -135.5t-81 -85.5
t-109 -30q-67 0 -118 37q-10 -13 -18.5 -29.5t-14.5 -36.5zM349 552q-43 -88 -79 -190t-68 -213q22 -78 65 -78q21 0 39 26t31.5 67.5t21.5 93t8 103.5q0 88 -18 190v1zM183 265q34 75 68 170.5t70 217.5q-20 45 -45 45q-97 0 -97 -292q0 -40 1 -74.5t3 -66.5z" />
    <glyph glyph-name="Ugrave" unicode="&#xd9;" horiz-adv-x="557" 
d="M11 0zM184 322q0 -240 101 -240q24 0 39.5 18t25.5 45.5t14.5 60.5t5.5 62q2 54 3 106t1 105q0 41 -0.5 80.5t-1.5 79.5q-1 29 -11 38.5t-40 9.5q3 27 3 54q0 20 -3 41q29 -2 57.5 -3t57.5 -1q32 0 62.5 1t61.5 3v-72q-7 0 -18 3t-17 3q-9 0 -20.5 -5t-21 -14t-16.5 -22
t-7 -30q0 -44 4 -90t4 -105q0 -48 -0.5 -96t-0.5 -97q0 -32 -1 -58t-6 -50t-16 -47t-31 -50q-29 -38 -64 -59.5t-67 -21.5q-50 0 -90.5 28.5t-69.5 78.5t-44.5 118t-15.5 147q0 24 3.5 66.5t8 86.5t8.5 80.5t4 49.5q0 23 -20.5 39.5t-43.5 16.5q-9 0 -11 -1q0 7 1 20
t1.5 26.5t1.5 26.5t1 20q28 0 89.5 3t155.5 8q-1 -11 -1.5 -22t-0.5 -22q0 -14 0.5 -27t1.5 -27q-78 -14 -78 -199q0 -6 0.5 -18t0.5 -26t0.5 -26.5t0.5 -18.5v-8.5t-0.5 -13t-0.5 -21.5v-34zM360 887q-6 -11 -12 -20t-14 -17q-45 25 -89 44.5t-88 30.5q6 20 15.5 38.5
t25.5 34.5q43 -23 83 -51t79 -60z" />
    <glyph glyph-name="Uacute" unicode="&#xda;" horiz-adv-x="557" 
d="M11 0zM184 322q0 -240 101 -240q24 0 39.5 18t25.5 45.5t14.5 60.5t5.5 62q2 54 3 106t1 105q0 41 -0.5 80.5t-1.5 79.5q-1 29 -11 38.5t-40 9.5q3 27 3 54q0 20 -3 41q29 -2 57.5 -3t57.5 -1q32 0 62.5 1t61.5 3v-72q-7 0 -18 3t-17 3q-9 0 -20.5 -5t-21 -14t-16.5 -22
t-7 -30q0 -44 4 -90t4 -105q0 -48 -0.5 -96t-0.5 -97q0 -32 -1 -58t-6 -50t-16 -47t-31 -50q-29 -38 -64 -59.5t-67 -21.5q-50 0 -90.5 28.5t-69.5 78.5t-44.5 118t-15.5 147q0 24 3.5 66.5t8 86.5t8.5 80.5t4 49.5q0 23 -20.5 39.5t-43.5 16.5q-9 0 -11 -1q0 7 1 20
t1.5 26.5t1.5 26.5t1 20q28 0 89.5 3t155.5 8q-1 -11 -1.5 -22t-0.5 -22q0 -14 0.5 -27t1.5 -27q-78 -14 -78 -199q0 -6 0.5 -18t0.5 -26t0.5 -26.5t0.5 -18.5v-8.5t-0.5 -13t-0.5 -21.5v-34zM217 887q39 32 79 60t83 51q16 -16 25.5 -34.5t15.5 -38.5q-44 -11 -88 -30.5
t-89 -44.5q-8 8 -14 17t-12 20z" />
    <glyph glyph-name="Ucircumflex" unicode="&#xdb;" horiz-adv-x="557" 
d="M11 0zM184 322q0 -240 101 -240q24 0 39.5 18t25.5 45.5t14.5 60.5t5.5 62q2 54 3 106t1 105q0 41 -0.5 80.5t-1.5 79.5q-1 29 -11 38.5t-40 9.5q3 27 3 54q0 20 -3 41q29 -2 57.5 -3t57.5 -1q32 0 62.5 1t61.5 3v-72q-7 0 -18 3t-17 3q-9 0 -20.5 -5t-21 -14t-16.5 -22
t-7 -30q0 -44 4 -90t4 -105q0 -48 -0.5 -96t-0.5 -97q0 -32 -1 -58t-6 -50t-16 -47t-31 -50q-29 -38 -64 -59.5t-67 -21.5q-50 0 -90.5 28.5t-69.5 78.5t-44.5 118t-15.5 147q0 24 3.5 66.5t8 86.5t8.5 80.5t4 49.5q0 23 -20.5 39.5t-43.5 16.5q-9 0 -11 -1q0 7 1 20
t1.5 26.5t1.5 26.5t1 20q28 0 89.5 3t155.5 8q-1 -11 -1.5 -22t-0.5 -22q0 -14 0.5 -27t1.5 -27q-78 -14 -78 -199q0 -6 0.5 -18t0.5 -26t0.5 -26.5t0.5 -18.5v-8.5t-0.5 -13t-0.5 -21.5v-34zM228 998q31 -6 57.5 -10.5t49.5 -4.5q44 -47 70 -81t34 -52h-103q-2 6 -9 19
t-15.5 27t-17 26.5t-13.5 17.5q-18 -35 -29.5 -60.5t-13.5 -25.5q-17 0 -41 1.5t-59 7.5z" />
    <glyph glyph-name="Udieresis" unicode="&#xdc;" horiz-adv-x="557" 
d="M11 0zM184 322q0 -240 101 -240q24 0 39.5 18t25.5 45.5t14.5 60.5t5.5 62q2 54 3 106t1 105q0 41 -0.5 80.5t-1.5 79.5q-1 29 -11 38.5t-40 9.5q3 27 3 54q0 20 -3 41q29 -2 57.5 -3t57.5 -1q32 0 62.5 1t61.5 3v-72q-7 0 -18 3t-17 3q-9 0 -20.5 -5t-21 -14t-16.5 -22
t-7 -30q0 -44 4 -90t4 -105q0 -48 -0.5 -96t-0.5 -97q0 -32 -1 -58t-6 -50t-16 -47t-31 -50q-29 -38 -64 -59.5t-67 -21.5q-50 0 -90.5 28.5t-69.5 78.5t-44.5 118t-15.5 147q0 24 3.5 66.5t8 86.5t8.5 80.5t4 49.5q0 23 -20.5 39.5t-43.5 16.5q-9 0 -11 -1q0 7 1 20
t1.5 26.5t1.5 26.5t1 20q28 0 89.5 3t155.5 8q-1 -11 -1.5 -22t-0.5 -22q0 -14 0.5 -27t1.5 -27q-78 -14 -78 -199q0 -6 0.5 -18t0.5 -26t0.5 -26.5t0.5 -18.5v-8.5t-0.5 -13t-0.5 -21.5v-34zM400 989q26 0 46 -22t20 -52q0 -24 -20.5 -39.5t-46.5 -15.5q-29 0 -48.5 18.5
t-19.5 45.5q0 13 6 24.5t16 20.5t22.5 14.5t24.5 5.5zM157 860q-26 0 -46 22t-20 52q0 24 20.5 39.5t46.5 15.5q29 0 48.5 -18.5t19.5 -45.5q0 -13 -6 -24.5t-16 -20.5t-22.5 -14.5t-24.5 -5.5z" />
    <glyph glyph-name="Yacute" unicode="&#xdd;" horiz-adv-x="612" 
d="M0 0zM180 76q2 -1 11 -1q54 0 54 107v7t-2 10v18q-1 9 -3 27.5t-9 44.5q-54 216 -148 375q-11 19 -57 19h-12.5t-15.5 -1q7 31 7 60q0 23 -7 37q72 -3 143 -3q69 0 137 3q2 -10 3.5 -19.5t1.5 -20.5q0 -13 -1.5 -25.5t-3.5 -26.5h-2q-11 0 -25 -5.5t-31 -15.5
q4 -38 28 -111t70 -183l65 146q25 56 36 89.5t12 46.5q0 6 -6 12.5t-15 12t-19 9.5t-17 4h-6q2 12 3 23.5t1 22.5t-1 21t-3 20q33 1 66.5 1.5t67.5 0.5q28 0 55 -0.5t55 -1.5q1 -9 1.5 -18.5t0.5 -20.5q0 -12 -0.5 -25.5t-1.5 -27.5h-17q-49 0 -63 -23q-2 -3 -11 -23
t-26 -56q-140 -306 -140 -388v-37q0 -77 69 -90q-1 -10 -1.5 -19.5t-0.5 -20.5q0 -14 0.5 -27.5t1.5 -28.5q-33 5 -65.5 6.5t-64.5 1.5t-62 -1.5t-58 -6.5q6 49 6 87v15zM244 887q39 32 79 60t83 51q16 -16 25.5 -34.5t15.5 -38.5q-44 -11 -88 -30.5t-89 -44.5q-8 8 -14 17
t-12 20z" />
    <glyph glyph-name="Thorn" unicode="&#xde;" horiz-adv-x="556" 
d="M7 -11q2 10 2 31v56q44 0 75 35t35 106q3 71 4.5 175.5t1.5 235.5q0 32 -23 46t-53 14q3 26 4.5 42.5t1.5 38.5q20 7 81 10t144 3q12 -20 21 -75q-15 0 -29 -1t-25 -3t-18 -6t-7 -11q0 -6 1.5 -14t3.5 -16t5 -15t6 -11q14 2 25.5 3t23.5 1q70 0 119.5 -12t80.5 -35
t45.5 -55.5t14.5 -73.5q0 -53 -23 -98t-56 -79t-69 -55.5t-62 -25.5q-10 -2 -19.5 -3t-19.5 -1q-31 0 -62 9q-1 -9 -1.5 -18.5t-0.5 -18.5q0 -16 2.5 -31t11 -26t23 -18t38.5 -7q6 0 10 0.5t9 1.5v-40t2 -59h-323zM247 575q-2 -38 -3 -75t-1 -73q0 -39 1 -76.5t3 -74.5
q76 2 108.5 45.5t32.5 121.5q0 132 -109 132h-32z" />
    <glyph glyph-name="germandbls" unicode="&#xdf;" horiz-adv-x="563" 
d="M274 -4q-74 3 -146 3q-57 0 -114 -3q3 22 3 46q0 9 -0.5 17.5t-1.5 16.5q24 0 39 21t24 75.5t12.5 149t3.5 241.5q0 90 12 145.5t38.5 85.5t69.5 40t105 10q43 0 77 -16.5t58 -46t37 -70t13 -89.5q0 -29 -5 -52t-15.5 -41.5t-27 -33.5t-40.5 -28q43 -17 69.5 -38.5
t41 -46.5t19.5 -53t5 -59q0 -47 -14 -93t-41 -84t-67.5 -65.5t-93.5 -38.5q3 21 3 41q0 15 -3 29q25 7 41 25.5t25 44.5t12 59.5t3 72.5q0 81 -27 114.5t-89 33.5q-22 0 -47 -3q0 2 -0.5 11t-1 21t-2 24.5t-3.5 23.5q147 3 147 138q0 24 -6.5 49t-18 44.5t-27.5 32t-34 12.5
q-16 0 -31 -6t-27 -15.5t-19 -23t-7 -28.5q-11 -142 -15 -280t-4 -276q6 -25 18.5 -36t35.5 -11q2 0 6 0.5t10 1.5q2 -11 3 -22t1 -22q0 -12 -1 -24t-3 -24z" />
    <glyph glyph-name="agrave" unicode="&#xe0;" 
d="M9 0zM280 49q-54 -56 -126 -56q-66 0 -105.5 36t-39.5 100q0 81 49.5 129t132.5 48q9 0 18.5 -0.5t20.5 -1.5q4 19 4 48q0 131 -90 131q-38 0 -56 -43q15 7 34 7q43 0 43 -67q0 -10 -7 -20t-17.5 -18.5t-22.5 -13.5t-21 -5q-66 0 -66 90q0 57 49 87t139 30
q65 0 94.5 -56.5t29.5 -188.5q0 -9 -0.5 -27t-0.5 -38.5t-0.5 -39t-0.5 -27.5q0 -113 37 -113q12 0 27 9q5 -10 5 -29q0 -25 -12 -29t-32 -4q-27 0 -51.5 18t-34.5 44zM229 163q0 16 0.5 36t1.5 46q-10 2 -20.5 3.5t-22.5 1.5q-32 0 -52 -28t-20 -70q0 -45 23.5 -76
t61.5 -31q10 0 16 9t9.5 20.5t4.5 22t1 14.5q0 20 -1.5 32.5t-1.5 19.5zM278 615q-6 -11 -12 -20t-14 -17q-45 25 -89 44.5t-88 30.5q6 20 15.5 38.5t25.5 34.5q43 -23 83 -51t79 -60z" />
    <glyph glyph-name="aacute" unicode="&#xe1;" 
d="M9 0zM280 49q-54 -56 -126 -56q-66 0 -105.5 36t-39.5 100q0 81 49.5 129t132.5 48q9 0 18.5 -0.5t20.5 -1.5q4 19 4 48q0 131 -90 131q-38 0 -56 -43q15 7 34 7q43 0 43 -67q0 -10 -7 -20t-17.5 -18.5t-22.5 -13.5t-21 -5q-66 0 -66 90q0 57 49 87t139 30
q65 0 94.5 -56.5t29.5 -188.5q0 -9 -0.5 -27t-0.5 -38.5t-0.5 -39t-0.5 -27.5q0 -113 37 -113q12 0 27 9q5 -10 5 -29q0 -25 -12 -29t-32 -4q-27 0 -51.5 18t-34.5 44zM229 163q0 16 0.5 36t1.5 46q-10 2 -20.5 3.5t-22.5 1.5q-32 0 -52 -28t-20 -70q0 -45 23.5 -76
t61.5 -31q10 0 16 9t9.5 20.5t4.5 22t1 14.5q0 20 -1.5 32.5t-1.5 19.5zM105 615q39 32 79 60t83 51q16 -16 25.5 -34.5t15.5 -38.5q-44 -11 -88 -30.5t-89 -44.5q-8 8 -14 17t-12 20z" />
    <glyph glyph-name="acircumflex" unicode="&#xe2;" 
d="M9 0zM280 49q-54 -56 -126 -56q-66 0 -105.5 36t-39.5 100q0 81 49.5 129t132.5 48q9 0 18.5 -0.5t20.5 -1.5q4 19 4 48q0 131 -90 131q-38 0 -56 -43q15 7 34 7q43 0 43 -67q0 -10 -7 -20t-17.5 -18.5t-22.5 -13.5t-21 -5q-66 0 -66 90q0 57 49 87t139 30
q65 0 94.5 -56.5t29.5 -188.5q0 -9 -0.5 -27t-0.5 -38.5t-0.5 -39t-0.5 -27.5q0 -113 37 -113q12 0 27 9q5 -10 5 -29q0 -25 -12 -29t-32 -4q-27 0 -51.5 18t-34.5 44zM229 163q0 16 0.5 36t1.5 46q-10 2 -20.5 3.5t-22.5 1.5q-32 0 -52 -28t-20 -70q0 -45 23.5 -76
t61.5 -31q10 0 16 9t9.5 20.5t4.5 22t1 14.5q0 20 -1.5 32.5t-1.5 19.5zM136 726q31 -6 57.5 -10.5t49.5 -4.5q44 -47 70 -81t34 -52h-103q-2 6 -9 19t-15.5 27t-17 26.5t-13.5 17.5q-18 -35 -29.5 -60.5t-13.5 -25.5q-17 0 -41 1.5t-59 7.5z" />
    <glyph glyph-name="atilde" unicode="&#xe3;" 
d="M9 0zM280 49q-54 -56 -126 -56q-66 0 -105.5 36t-39.5 100q0 81 49.5 129t132.5 48q9 0 18.5 -0.5t20.5 -1.5q4 19 4 48q0 131 -90 131q-38 0 -56 -43q15 7 34 7q43 0 43 -67q0 -10 -7 -20t-17.5 -18.5t-22.5 -13.5t-21 -5q-66 0 -66 90q0 57 49 87t139 30
q65 0 94.5 -56.5t29.5 -188.5q0 -9 -0.5 -27t-0.5 -38.5t-0.5 -39t-0.5 -27.5q0 -113 37 -113q12 0 27 9q5 -10 5 -29q0 -25 -12 -29t-32 -4q-27 0 -51.5 18t-34.5 44zM229 163q0 16 0.5 36t1.5 46q-10 2 -20.5 3.5t-22.5 1.5q-32 0 -52 -28t-20 -70q0 -45 23.5 -76
t61.5 -31q10 0 16 9t9.5 20.5t4.5 22t1 14.5q0 20 -1.5 32.5t-1.5 19.5zM33 605q0 23 6.5 43.5t21 35.5t38 23.5t57.5 8.5q22 0 40.5 -11.5t33.5 -25t27 -25t21 -11.5q16 0 28.5 16t19.5 48l34 -4q0 -26 -4.5 -46.5t-16.5 -35t-33 -22.5t-53 -8q-25 0 -45.5 10.5t-36.5 23
t-28.5 23t-21.5 10.5q-48 0 -55 -59z" />
    <glyph glyph-name="adieresis" unicode="&#xe4;" 
d="M9 0zM280 49q-54 -56 -126 -56q-66 0 -105.5 36t-39.5 100q0 81 49.5 129t132.5 48q9 0 18.5 -0.5t20.5 -1.5q4 19 4 48q0 131 -90 131q-38 0 -56 -43q15 7 34 7q43 0 43 -67q0 -10 -7 -20t-17.5 -18.5t-22.5 -13.5t-21 -5q-66 0 -66 90q0 57 49 87t139 30
q65 0 94.5 -56.5t29.5 -188.5q0 -9 -0.5 -27t-0.5 -38.5t-0.5 -39t-0.5 -27.5q0 -113 37 -113q12 0 27 9q5 -10 5 -29q0 -25 -12 -29t-32 -4q-27 0 -51.5 18t-34.5 44zM229 163q0 16 0.5 36t1.5 46q-10 2 -20.5 3.5t-22.5 1.5q-32 0 -52 -28t-20 -70q0 -45 23.5 -76
t61.5 -31q10 0 16 9t9.5 20.5t4.5 22t1 14.5q0 20 -1.5 32.5t-1.5 19.5zM319 717q26 0 46 -22t20 -52q0 -24 -20.5 -39.5t-46.5 -15.5q-29 0 -48.5 18.5t-19.5 45.5q0 13 6 24.5t16 20.5t22.5 14.5t24.5 5.5zM76 588q-26 0 -46 22t-20 52q0 24 20.5 39.5t46.5 15.5
q29 0 48.5 -18.5t19.5 -45.5q0 -13 -6 -24.5t-16 -20.5t-22.5 -14.5t-24.5 -5.5z" />
    <glyph glyph-name="aring" unicode="&#xe5;" 
d="M9 0zM280 49q-54 -56 -126 -56q-66 0 -105.5 36t-39.5 100q0 81 49.5 129t132.5 48q9 0 18.5 -0.5t20.5 -1.5q4 19 4 48q0 131 -90 131q-38 0 -56 -43q15 7 34 7q43 0 43 -67q0 -10 -7 -20t-17.5 -18.5t-22.5 -13.5t-21 -5q-66 0 -66 90q0 57 49 87t139 30
q65 0 94.5 -56.5t29.5 -188.5q0 -9 -0.5 -27t-0.5 -38.5t-0.5 -39t-0.5 -27.5q0 -113 37 -113q12 0 27 9q5 -10 5 -29q0 -25 -12 -29t-32 -4q-27 0 -51.5 18t-34.5 44zM229 163q0 16 0.5 36t1.5 46q-10 2 -20.5 3.5t-22.5 1.5q-32 0 -52 -28t-20 -70q0 -45 23.5 -76
t61.5 -31q10 0 16 9t9.5 20.5t4.5 22t1 14.5q0 20 -1.5 32.5t-1.5 19.5zM104 652q0 33 27.5 53.5t64.5 20.5q38 0 65.5 -20.5t27.5 -53.5q0 -31 -27.5 -52.5t-65.5 -21.5q-37 0 -64.5 21.5t-27.5 52.5zM138 652q0 -20 17.5 -33t40.5 -13t41 13t18 33q0 21 -18 34t-41 13
t-40.5 -13t-17.5 -34z" />
    <glyph glyph-name="ae" unicode="&#xe6;" horiz-adv-x="601" 
d="M574 281q-26 -2 -53 -3t-54 -1q-29 0 -58.5 1t-59.5 3q-2 -25 -2 -41.5v-26.5q0 -35 5.5 -66.5t16 -54.5t25.5 -36.5t35 -13.5q51 0 96 99q4 -1 8 -1h9h11t12 1q-9 -41 -24 -69.5t-37.5 -46.5t-53.5 -26t-73 -8q-70 0 -94 64q-58 -62 -125 -62q-66 0 -105 36t-39 100
q0 41 13 73.5t36.5 55.5t56.5 35.5t74 12.5q20 0 40 -3q3 22 3 49q0 131 -90 131q-38 0 -56 -43q15 7 35 7q43 0 43 -67q0 -12 -7 -22.5t-17.5 -18t-22.5 -12t-22 -4.5q-66 0 -66 90q0 58 50.5 87.5t137.5 29.5q29 0 54.5 -17.5t33.5 -43.5q19 55 110 55q78 0 120.5 -47.5
t42.5 -128.5q0 -46 -9 -67zM354 345q37 -3 75 -3q28 0 57 3q2 5 2 11.5v12.5q0 115 -65 115q-13 0 -25.5 -11.5t-22 -28.5t-15.5 -36.5t-6 -36.5v-26zM235 245q-23 5 -44 5q-32 0 -51 -28t-19 -70q0 -45 22 -76t61 -31q10 0 16.5 10t10 26t4.5 37t1 42q0 24 -0.5 46.5
t-0.5 38.5z" />
    <glyph glyph-name="ccedilla" unicode="&#xe7;" horiz-adv-x="376" 
d="M28 0zM316 434q0 44 -74 44q-55 0 -80.5 -43.5t-25.5 -148.5q0 -69 4.5 -117t13.5 -78t24 -43.5t36 -13.5q16 0 28.5 2.5t24.5 10.5t24.5 23t27.5 41q22 -10 39 -28q-34 -58 -69 -79t-73 -21q-91 0 -139.5 79.5t-48.5 224.5q0 46 14 90t37.5 78t55 54.5t66.5 20.5
q34 0 64.5 -9.5t53.5 -26t36.5 -39t13.5 -49.5q0 -32 -19 -55t-48 -23q-26 0 -44 19.5t-18 45.5q0 19 15.5 34t35.5 15q14 0 25 -8zM285 -110q0 -15 -7.5 -31t-19.5 -29t-28 -21.5t-33 -8.5q-12 0 -33 3v32q4 0 7 -0.5t7 -0.5q45 0 45 23q0 6 -1 7q-8 -4 -19.5 -4.5
t-16.5 -0.5q-23 0 -39.5 13t-16.5 33q0 26 26.5 42t68.5 16q26 0 43 -21.5t17 -51.5z" />
    <glyph glyph-name="egrave" unicode="&#xe8;" horiz-adv-x="382" 
d="M16 0zM132 281q-2 -25 -3 -42t-1 -26q0 -168 76 -168q58 0 102 96q5 1 10.5 1.5t10.5 0.5t9.5 -0.5t9.5 -1.5q-33 -148 -160 -148q-170 0 -170 294q0 51 13 94.5t37 75t58 49.5t77 18q78 0 121 -47.5t43 -128.5q0 -50 -10 -67h-223zM135 345h132q2 6 2 12.5v11.5
q0 115 -65 115q-13 0 -25.5 -11.5t-22 -28.5t-15.5 -36.5t-6 -36.5v-26zM272 615q-6 -11 -12 -20t-14 -17q-45 25 -89 44.5t-88 30.5q6 20 15.5 38.5t25.5 34.5q43 -23 83 -51t79 -60z" />
    <glyph glyph-name="eacute" unicode="&#xe9;" horiz-adv-x="382" 
d="M16 0zM132 281q-2 -25 -3 -42t-1 -26q0 -168 76 -168q58 0 102 96q5 1 10.5 1.5t10.5 0.5t9.5 -0.5t9.5 -1.5q-33 -148 -160 -148q-170 0 -170 294q0 51 13 94.5t37 75t58 49.5t77 18q78 0 121 -47.5t43 -128.5q0 -50 -10 -67h-223zM135 345h132q2 6 2 12.5v11.5
q0 115 -65 115q-13 0 -25.5 -11.5t-22 -28.5t-15.5 -36.5t-6 -36.5v-26zM109 615q39 32 79 60t83 51q16 -16 25.5 -34.5t15.5 -38.5q-44 -11 -88 -30.5t-89 -44.5q-8 8 -14 17t-12 20z" />
    <glyph glyph-name="ecircumflex" unicode="&#xea;" horiz-adv-x="382" 
d="M16 0zM132 281q-2 -25 -3 -42t-1 -26q0 -168 76 -168q58 0 102 96q5 1 10.5 1.5t10.5 0.5t9.5 -0.5t9.5 -1.5q-33 -148 -160 -148q-170 0 -170 294q0 51 13 94.5t37 75t58 49.5t77 18q78 0 121 -47.5t43 -128.5q0 -50 -10 -67h-223zM135 345h132q2 6 2 12.5v11.5
q0 115 -65 115q-13 0 -25.5 -11.5t-22 -28.5t-15.5 -36.5t-6 -36.5v-26zM140 726q31 -6 57.5 -10.5t49.5 -4.5q44 -47 70 -81t34 -52h-103q-2 6 -9 19t-15.5 27t-17 26.5t-13.5 17.5q-18 -35 -29.5 -60.5t-13.5 -25.5q-17 0 -41 1.5t-59 7.5z" />
    <glyph glyph-name="edieresis" unicode="&#xeb;" horiz-adv-x="382" 
d="M5 0zM132 281q-2 -25 -3 -42t-1 -26q0 -168 76 -168q58 0 102 96q5 1 10.5 1.5t10.5 0.5t9.5 -0.5t9.5 -1.5q-33 -148 -160 -148q-170 0 -170 294q0 51 13 94.5t37 75t58 49.5t77 18q78 0 121 -47.5t43 -128.5q0 -50 -10 -67h-223zM135 345h132q2 6 2 12.5v11.5
q0 115 -65 115q-13 0 -25.5 -11.5t-22 -28.5t-15.5 -36.5t-6 -36.5v-26zM314 717q26 0 46 -22t20 -52q0 -24 -20.5 -39.5t-46.5 -15.5q-29 0 -48.5 18.5t-19.5 45.5q0 13 6 24.5t16 20.5t22.5 14.5t24.5 5.5zM71 588q-26 0 -46 22t-20 52q0 24 20.5 39.5t46.5 15.5
q29 0 48.5 -18.5t19.5 -45.5q0 -13 -6 -24.5t-16 -20.5t-22.5 -14.5t-24.5 -5.5z" />
    <glyph glyph-name="igrave" unicode="&#xec;" horiz-adv-x="274" 
d="M7 4zM264 55q-1 -6 -1.5 -11.5t-0.5 -11.5q0 -7 0.5 -14t1.5 -14q-69 3 -138 3q-54 0 -108 -3q-1 8 -1.5 15t-0.5 15q0 6 0.5 12.5t1.5 12.5q3 -1 16 -1q59 0 59 85q0 42 -1.5 75.5t-1.5 71.5q0 25 1 51t4 59q0 26 -18.5 39.5t-43.5 13.5q0 9 -0.5 18.5t-4.5 19.5
q48 10 92 22t88 26q-6 -99 -9 -198t-3 -203q0 -42 12 -63.5t46 -21.5q4 0 10 2zM210 615q-6 -11 -12 -20t-14 -17q-45 25 -89 44.5t-88 30.5q6 20 15.5 38.5t25.5 34.5q43 -23 83 -51t79 -60z" />
    <glyph glyph-name="iacute" unicode="&#xed;" horiz-adv-x="274" 
d="M16 4zM264 55q-1 -6 -1.5 -11.5t-0.5 -11.5q0 -7 0.5 -14t1.5 -14q-69 3 -138 3q-54 0 -108 -3q-1 8 -1.5 15t-0.5 15q0 6 0.5 12.5t1.5 12.5q3 -1 16 -1q59 0 59 85q0 42 -1.5 75.5t-1.5 71.5q0 25 1 51t4 59q0 26 -18.5 39.5t-43.5 13.5q0 9 -0.5 18.5t-4.5 19.5
q48 10 92 22t88 26q-6 -99 -9 -198t-3 -203q0 -42 12 -63.5t46 -21.5q4 0 10 2zM65 615q39 32 79 60t83 51q16 -16 25.5 -34.5t15.5 -38.5q-44 -11 -88 -30.5t-89 -44.5q-8 8 -14 17t-12 20z" />
    <glyph glyph-name="icircumflex" unicode="&#xee;" horiz-adv-x="274" 
d="M0 4zM264 55q-1 -6 -1.5 -11.5t-0.5 -11.5q0 -7 0.5 -14t1.5 -14q-69 3 -138 3q-54 0 -108 -3q-1 8 -1.5 15t-0.5 15q0 6 0.5 12.5t1.5 12.5q3 -1 16 -1q59 0 59 85q0 42 -1.5 75.5t-1.5 71.5q0 25 1 51t4 59q0 26 -18.5 39.5t-43.5 13.5q0 9 -0.5 18.5t-4.5 19.5
q48 10 92 22t88 26q-6 -99 -9 -198t-3 -203q0 -42 12 -63.5t46 -21.5q4 0 10 2zM78 726q31 -6 57.5 -10.5t49.5 -4.5q44 -47 70 -81t34 -52h-103q-2 6 -9 19t-15.5 27t-17 26.5t-13.5 17.5q-18 -35 -29.5 -60.5t-13.5 -25.5q-17 0 -41 1.5t-59 7.5z" />
    <glyph glyph-name="idieresis" unicode="&#xef;" horiz-adv-x="274" 
d="M0 4zM264 55q-1 -6 -1.5 -11.5t-0.5 -11.5q0 -7 0.5 -14t1.5 -14q-69 3 -138 3q-54 0 -108 -3q-1 8 -1.5 15t-0.5 15q0 6 0.5 12.5t1.5 12.5q3 -1 16 -1q59 0 59 85q0 42 -1.5 75.5t-1.5 71.5q0 25 1 51t4 59q0 26 -18.5 39.5t-43.5 13.5q0 9 -0.5 18.5t-4.5 19.5
q48 10 92 22t88 26q-6 -99 -9 -198t-3 -203q0 -42 12 -63.5t46 -21.5q4 0 10 2zM260 717q26 0 46 -22t20 -52q0 -24 -20.5 -39.5t-46.5 -15.5q-29 0 -48.5 18.5t-19.5 45.5q0 13 6 24.5t16 20.5t22.5 14.5t24.5 5.5zM17 588q-26 0 -46 22t-20 52q0 24 20.5 39.5t46.5 15.5
q29 0 48.5 -18.5t19.5 -45.5q0 -13 -6 -24.5t-16 -20.5t-22.5 -14.5t-24.5 -5.5z" />
    <glyph glyph-name="eth" unicode="&#xf0;" horiz-adv-x="440" 
d="M318 782q13 -21 36 -35q-15 -19 -30 -36.5t-32 -34.5q65 -71 98 -177.5t33 -252.5q0 -60 -14.5 -108t-42.5 -82t-68 -52t-91 -18q-192 0 -192 290q0 43 15 84t41 73t61 51.5t75 19.5q21 0 38.5 -2.5t37.5 -14.5q-7 25 -22.5 56.5t-39.5 66.5q-47 -39 -96 -72q-8 4 -16 11
t-16 17q25 20 49.5 40.5t49.5 43.5q-28 35 -61 67.5t-70 58.5l19 20q101 -24 175 -84q16 17 31.5 34t31.5 36zM211 30q104 0 104 195q0 48 -6.5 89.5t-17.5 71.5t-26 47.5t-32 17.5q-98 0 -98 -199q0 -222 76 -222z" />
    <glyph glyph-name="ntilde" unicode="&#xf1;" horiz-adv-x="509" 
d="M14 3zM260 4q-34 1 -67.5 1.5t-67.5 0.5q-28 0 -55.5 -0.5t-55.5 -1.5q0 6 0.5 12.5t0.5 14.5q0 7 -0.5 13.5t-0.5 14.5q9 1 21 2.5t22 6.5t17 15t7 29q0 6 -1 17.5t-1.5 24t-1.5 24t-1 17.5q0 17 2.5 51t5 69.5t5 64t2.5 33.5q0 14 -18 27t-44 13v9q0 11 -1.5 18
t-3.5 12q31 9 76.5 20.5t108.5 26.5q-1 -8 -2.5 -18.5t-1.5 -21.5q0 -13 3 -22q36 47 76 47q22 0 47.5 -18.5t47.5 -46t37 -58t15 -54.5v-219q0 -26 4.5 -45t15.5 -19q8 0 13.5 9.5t5.5 20.5q0 5 -1 14.5t-1 14.5v9q10 -3 23 -3q11 0 23 3v-44q0 -36 -26 -60.5t-62 -24.5
q-104 0 -104 97v204q0 28 -6 55t-17 47.5t-26 33t-33 12.5q-16 0 -28.5 -13.5t-12.5 -29.5q-6 -273 -6 -280q0 -76 55 -76q9 0 12 2q-1 -8 -1 -14.5v-13.5v-12t1 -11zM101 605q0 23 6.5 43.5t21 35.5t38 23.5t57.5 8.5q22 0 40.5 -11.5t33.5 -25t27 -25t21 -11.5
q16 0 28.5 16t19.5 48l34 -4q0 -26 -4.5 -46.5t-16.5 -35t-33 -22.5t-53 -8q-25 0 -45.5 10.5t-36.5 23t-28.5 23t-21.5 10.5q-48 0 -55 -59z" />
    <glyph glyph-name="ograve" unicode="&#xf2;" horiz-adv-x="391" 
d="M17 0zM189 -14q-172 0 -172 309q0 46 13.5 89.5t37 77.5t54.5 55t67 21q194 0 194 -275q0 -64 -13 -115t-38 -87t-61 -55.5t-82 -19.5zM193 33q93 0 93 208q0 51 -6 95t-15.5 76t-23 50.5t-28.5 18.5q-88 0 -88 -212q0 -236 68 -236zM267 615q-6 -11 -12 -20t-14 -17
q-45 25 -89 44.5t-88 30.5q6 20 15.5 38.5t25.5 34.5q43 -23 83 -51t79 -60z" />
    <glyph glyph-name="oacute" unicode="&#xf3;" horiz-adv-x="391" 
d="M17 0zM189 -14q-172 0 -172 309q0 46 13.5 89.5t37 77.5t54.5 55t67 21q194 0 194 -275q0 -64 -13 -115t-38 -87t-61 -55.5t-82 -19.5zM193 33q93 0 93 208q0 51 -6 95t-15.5 76t-23 50.5t-28.5 18.5q-88 0 -88 -212q0 -236 68 -236zM124 615q39 32 79 60t83 51
q16 -16 25.5 -34.5t15.5 -38.5q-44 -11 -88 -30.5t-89 -44.5q-8 8 -14 17t-12 20z" />
    <glyph glyph-name="ocircumflex" unicode="&#xf4;" horiz-adv-x="391" 
d="M17 0zM189 -14q-172 0 -172 309q0 46 13.5 89.5t37 77.5t54.5 55t67 21q194 0 194 -275q0 -64 -13 -115t-38 -87t-61 -55.5t-82 -19.5zM193 33q93 0 93 208q0 51 -6 95t-15.5 76t-23 50.5t-28.5 18.5q-88 0 -88 -212q0 -236 68 -236zM135 726q31 -6 57.5 -10.5t49.5 -4.5
q44 -47 70 -81t34 -52h-103q-2 6 -9 19t-15.5 27t-17 26.5t-13.5 17.5q-18 -35 -29.5 -60.5t-13.5 -25.5q-17 0 -41 1.5t-59 7.5z" />
    <glyph glyph-name="otilde" unicode="&#xf5;" horiz-adv-x="391" 
d="M17 0zM189 -14q-172 0 -172 309q0 46 13.5 89.5t37 77.5t54.5 55t67 21q194 0 194 -275q0 -64 -13 -115t-38 -87t-61 -55.5t-82 -19.5zM193 33q93 0 93 208q0 51 -6 95t-15.5 76t-23 50.5t-28.5 18.5q-88 0 -88 -212q0 -236 68 -236zM32 605q0 23 6.5 43.5t21 35.5
t38 23.5t57.5 8.5q22 0 40.5 -11.5t33.5 -25t27 -25t21 -11.5q16 0 28.5 16t19.5 48l34 -4q0 -26 -4.5 -46.5t-16.5 -35t-33 -22.5t-53 -8q-25 0 -45.5 10.5t-36.5 23t-28.5 23t-21.5 10.5q-48 0 -55 -59z" />
    <glyph glyph-name="odieresis" unicode="&#xf6;" horiz-adv-x="391" 
d="M9 0zM189 -14q-172 0 -172 309q0 46 13.5 89.5t37 77.5t54.5 55t67 21q194 0 194 -275q0 -64 -13 -115t-38 -87t-61 -55.5t-82 -19.5zM193 33q93 0 93 208q0 51 -6 95t-15.5 76t-23 50.5t-28.5 18.5q-88 0 -88 -212q0 -236 68 -236zM318 717q26 0 46 -22t20 -52
q0 -24 -20.5 -39.5t-46.5 -15.5q-29 0 -48.5 18.5t-19.5 45.5q0 13 6 24.5t16 20.5t22.5 14.5t24.5 5.5zM75 588q-26 0 -46 22t-20 52q0 24 20.5 39.5t46.5 15.5q29 0 48.5 -18.5t19.5 -45.5q0 -13 -6 -24.5t-16 -20.5t-22.5 -14.5t-24.5 -5.5z" />
    <glyph glyph-name="divide" unicode="&#xf7;" horiz-adv-x="579" 
d="M50 74zM56 371q-2 9 -4 29t-2 37h474l10 -66h-478zM287 554q-16 0 -29.5 7.5t-23.5 20t-16 28t-6 32.5q0 25 22.5 45.5t55.5 20.5t55 -22t22 -55q0 -15 -6.5 -29t-17.5 -24.5t-25.5 -17t-30.5 -6.5zM287 74q-16 0 -29.5 7.5t-23.5 20t-16 28t-6 32.5q0 25 22.5 45.5
t55.5 20.5t55 -22t22 -55q0 -15 -6.5 -29t-17.5 -24.5t-25.5 -17t-30.5 -6.5z" />
    <glyph glyph-name="oslash" unicode="&#xf8;" 
d="M66 -30q-23 8 -41 31q9 11 18.5 23.5t18.5 27.5q-51 73 -51 235q0 46 13.5 89.5t36.5 77.5t55 55t68 21q61 0 102 -27q5 10 13.5 24.5t17.5 19.5q11 -2 19.5 -8.5t13.5 -15.5q-10 -11 -16.5 -23.5t-10.5 -29.5q54 -71 54 -207q0 -61 -13 -110.5t-38 -85t-61 -55
t-81 -19.5q-53 0 -86 23q-11 -23 -32 -46zM269 358q-32 -58 -65 -125t-67 -140q17 -53 49 -53q93 0 93 201q0 29 -2.5 58.5t-7.5 58.5zM123 169q37 61 68 126t58 134q-17 44 -42 44q-88 0 -88 -204q0 -29 1 -53.5t3 -46.5z" />
    <glyph glyph-name="ugrave" unicode="&#xf9;" horiz-adv-x="448" 
d="M0 0zM65 125q-6 54 -6 107q0 32 3 64t3 65q0 27 -20 44t-46 17q1 7 2 18t2 27q42 9 81.5 20.5t77.5 26.5q-2 -102 -3 -175t-1 -119q0 -53 5 -87t14 -53.5t22.5 -27t30.5 -7.5q65 0 65 128v150q0 59 -16 84t-48 25q-1 5 -1.5 10.5t-0.5 11.5q0 5 0.5 9t1.5 9
q36 11 78 22.5t90 24.5q1 -61 1 -109v-86q0 -51 -0.5 -81.5t-1 -49.5t-1 -30.5t-0.5 -25.5q0 -69 53 -93q0 -8 -0.5 -18t-3 -18.5t-7.5 -14.5t-13 -6q-26 0 -51 18t-35 44q-54 -56 -126 -56q-29 0 -56 9.5t-47.5 26.5t-33 41.5t-12.5 54.5zM295 615q-6 -11 -12 -20t-14 -17
q-45 25 -89 44.5t-88 30.5q6 20 15.5 38.5t25.5 34.5q43 -23 83 -51t79 -60z" />
    <glyph glyph-name="uacute" unicode="&#xfa;" horiz-adv-x="448" 
d="M0 0zM65 125q-6 54 -6 107q0 32 3 64t3 65q0 27 -20 44t-46 17q1 7 2 18t2 27q42 9 81.5 20.5t77.5 26.5q-2 -102 -3 -175t-1 -119q0 -53 5 -87t14 -53.5t22.5 -27t30.5 -7.5q65 0 65 128v150q0 59 -16 84t-48 25q-1 5 -1.5 10.5t-0.5 11.5q0 5 0.5 9t1.5 9
q36 11 78 22.5t90 24.5q1 -61 1 -109v-86q0 -51 -0.5 -81.5t-1 -49.5t-1 -30.5t-0.5 -25.5q0 -69 53 -93q0 -8 -0.5 -18t-3 -18.5t-7.5 -14.5t-13 -6q-26 0 -51 18t-35 44q-54 -56 -126 -56q-29 0 -56 9.5t-47.5 26.5t-33 41.5t-12.5 54.5zM152 615q39 32 79 60t83 51
q16 -16 25.5 -34.5t15.5 -38.5q-44 -11 -88 -30.5t-89 -44.5q-8 8 -14 17t-12 20z" />
    <glyph glyph-name="ucircumflex" unicode="&#xfb;" horiz-adv-x="448" 
d="M0 0zM65 125q-6 54 -6 107q0 32 3 64t3 65q0 27 -20 44t-46 17q1 7 2 18t2 27q42 9 81.5 20.5t77.5 26.5q-2 -102 -3 -175t-1 -119q0 -53 5 -87t14 -53.5t22.5 -27t30.5 -7.5q65 0 65 128v150q0 59 -16 84t-48 25q-1 5 -1.5 10.5t-0.5 11.5q0 5 0.5 9t1.5 9
q36 11 78 22.5t90 24.5q1 -61 1 -109v-86q0 -51 -0.5 -81.5t-1 -49.5t-1 -30.5t-0.5 -25.5q0 -69 53 -93q0 -8 -0.5 -18t-3 -18.5t-7.5 -14.5t-13 -6q-26 0 -51 18t-35 44q-54 -56 -126 -56q-29 0 -56 9.5t-47.5 26.5t-33 41.5t-12.5 54.5zM163 726q31 -6 57.5 -10.5
t49.5 -4.5q44 -47 70 -81t34 -52h-103q-2 6 -9 19t-15.5 27t-17 26.5t-13.5 17.5q-18 -35 -29.5 -60.5t-13.5 -25.5q-17 0 -41 1.5t-59 7.5z" />
    <glyph glyph-name="udieresis" unicode="&#xfc;" horiz-adv-x="448" 
d="M0 0zM65 125q-6 54 -6 107q0 32 3 64t3 65q0 27 -20 44t-46 17q1 7 2 18t2 27q42 9 81.5 20.5t77.5 26.5q-2 -102 -3 -175t-1 -119q0 -53 5 -87t14 -53.5t22.5 -27t30.5 -7.5q65 0 65 128v150q0 59 -16 84t-48 25q-1 5 -1.5 10.5t-0.5 11.5q0 5 0.5 9t1.5 9
q36 11 78 22.5t90 24.5q1 -61 1 -109v-86q0 -51 -0.5 -81.5t-1 -49.5t-1 -30.5t-0.5 -25.5q0 -69 53 -93q0 -8 -0.5 -18t-3 -18.5t-7.5 -14.5t-13 -6q-26 0 -51 18t-35 44q-54 -56 -126 -56q-29 0 -56 9.5t-47.5 26.5t-33 41.5t-12.5 54.5zM345 717q26 0 46 -22t20 -52
q0 -24 -20.5 -39.5t-46.5 -15.5q-29 0 -48.5 18.5t-19.5 45.5q0 13 6 24.5t16 20.5t22.5 14.5t24.5 5.5zM102 588q-26 0 -46 22t-20 52q0 24 20.5 39.5t46.5 15.5q29 0 48.5 -18.5t19.5 -45.5q0 -13 -6 -24.5t-16 -20.5t-22.5 -14.5t-24.5 -5.5z" />
    <glyph glyph-name="yacute" unicode="&#xfd;" horiz-adv-x="439" 
d="M2 0zM156 533q19 -108 44.5 -206.5t52.5 -195.5q81 279 81 282q0 8 -5 17t-13 16.5t-17 12t-18 4.5q-1 0 -9 -2v41q28 7 69.5 19t98.5 27q3 -11 5 -24t2 -27q0 -5 -0.5 -9.5t-0.5 -9.5q-3 -9 -16 -43t-31 -80.5t-39 -100.5t-40.5 -103.5t-35.5 -89.5t-23 -58
q-23 -55 -37.5 -86.5t-22.5 -42.5q-48 -68 -116 -68q-33 0 -58 19t-25 51q0 23 14.5 43.5t49.5 20.5q8 0 18 -3t18.5 -8.5t14.5 -14t6 -19.5q0 -22 -10.5 -34.5t-24.5 -15.5q6 -3 15 -3q13 0 27.5 20t27.5 46.5t21.5 53.5t8.5 42q0 6 -6 36q-23 103 -48.5 186t-40.5 147
q-11 44 -32.5 60.5t-51.5 18.5q1 7 2 18t2 26q35 13 70 22.5t73 14.5zM148 615q39 32 79 60t83 51q16 -16 25.5 -34.5t15.5 -38.5q-44 -11 -88 -30.5t-89 -44.5q-8 8 -14 17t-12 20z" />
    <glyph glyph-name="thorn" unicode="&#xfe;" horiz-adv-x="438" 
d="M15 -179q3 10 3 22q0 11 -3 23q29 2 45 22.5t16 62.5q0 85 2 171.5t2 175.5q0 97 -1 194.5t-3 197.5q-2 50 -60 50q0 26 -6 40q29 9 74 19.5t111 27.5l-15 -329q15 14 31.5 20.5t45.5 9.5q165 0 165 -295q0 -42 -12.5 -84.5t-34 -76t-50 -55t-61.5 -21.5q-29 0 -47 16.5
t-30 39.5q-1 -2 -2 -6.5t-1 -15.5v-93q0 -32 10.5 -50t46.5 -18q2 0 5.5 1t9.5 2q-2 -9 -4 -23t-2 -28q-9 0 -31.5 -1.5t-49 -3.5t-51 -3.5t-37.5 -1.5q-28 0 -43.5 3.5t-22.5 6.5zM180 389q-3 -48 -3 -102q0 -42 1.5 -79.5t7.5 -66t19 -45.5t36 -17q73 0 73 198
q0 199 -73 199q-54 0 -61 -87z" />
    <glyph glyph-name="ydieresis" unicode="&#xff;" horiz-adv-x="439" 
d="M2 0zM156 533q19 -108 44.5 -206.5t52.5 -195.5q81 279 81 282q0 8 -5 17t-13 16.5t-17 12t-18 4.5q-1 0 -9 -2v41q28 7 69.5 19t98.5 27q3 -11 5 -24t2 -27q0 -5 -0.5 -9.5t-0.5 -9.5q-3 -9 -16 -43t-31 -80.5t-39 -100.5t-40.5 -103.5t-35.5 -89.5t-23 -58
q-23 -55 -37.5 -86.5t-22.5 -42.5q-48 -68 -116 -68q-33 0 -58 19t-25 51q0 23 14.5 43.5t49.5 20.5q8 0 18 -3t18.5 -8.5t14.5 -14t6 -19.5q0 -22 -10.5 -34.5t-24.5 -15.5q6 -3 15 -3q13 0 27.5 20t27.5 46.5t21.5 53.5t8.5 42q0 6 -6 36q-23 103 -48.5 186t-40.5 147
q-11 44 -32.5 60.5t-51.5 18.5q1 7 2 18t2 26q35 13 70 22.5t73 14.5zM341 717q26 0 46 -22t20 -52q0 -24 -20.5 -39.5t-46.5 -15.5q-29 0 -48.5 18.5t-19.5 45.5q0 13 6 24.5t16 20.5t22.5 14.5t24.5 5.5zM98 588q-26 0 -46 22t-20 52q0 24 20.5 39.5t46.5 15.5
q29 0 48.5 -18.5t19.5 -45.5q0 -13 -6 -24.5t-16 -20.5t-22.5 -14.5t-24.5 -5.5z" />
    <glyph glyph-name="Amacron" unicode="&#x100;" horiz-adv-x="620" 
d="M10 0zM284 -14q-60 3 -121 3q-77 0 -153 -3q1 11 1.5 22.5t0.5 22.5t-0.5 22.5t-1.5 22.5q60 2 88 23t33 69q10 106 29 215.5t49 225.5q6 25 8 34.5t3 16.5q0 8 -4 12.5t-11 6.5t-16.5 4t-20.5 5q2 19 8.5 43.5t16.5 59.5q4 0 10.5 -1.5t19.5 -4t35.5 -4t59.5 -1.5
q35 0 58 1.5t37.5 4t22 4t12.5 1.5v-86q-8 -4 -18 -9.5t-22 -12.5q0 -27 8 -83t21.5 -124.5t31 -141.5t37 -132.5t39.5 -98t38 -38.5q6 0 13.5 1t15.5 4q0 -9 1 -26t1 -26t-0.5 -15.5t-1.5 -14.5q-72 -3 -145 -3q-74 0 -147 3q1 14 1 40v65q25 0 35.5 12t10.5 36l-6 64
q-26 -2 -53.5 -3t-59.5 -2q-16 -35 -16 -67q0 -8 15 -21.5t37 -18.5v-107zM296 541q-12 -82 -51 -251q44 3 116 29q-19 56 -36 110t-29 112zM185 891q0 7 -4.5 24.5t-4.5 33.5q18 0 54.5 0.5t76.5 1.5t77 1.5t55 0.5l5 -62h-259z" />
    <glyph glyph-name="amacron" unicode="&#x101;" 
d="M9 0zM280 49q-54 -56 -126 -56q-66 0 -105.5 36t-39.5 100q0 81 49.5 129t132.5 48q9 0 18.5 -0.5t20.5 -1.5q4 19 4 48q0 131 -90 131q-38 0 -56 -43q15 7 34 7q43 0 43 -67q0 -10 -7 -20t-17.5 -18.5t-22.5 -13.5t-21 -5q-66 0 -66 90q0 57 49 87t139 30
q65 0 94.5 -56.5t29.5 -188.5q0 -9 -0.5 -27t-0.5 -38.5t-0.5 -39t-0.5 -27.5q0 -113 37 -113q12 0 27 9q5 -10 5 -29q0 -25 -12 -29t-32 -4q-27 0 -51.5 18t-34.5 44zM229 163q0 16 0.5 36t1.5 46q-10 2 -20.5 3.5t-22.5 1.5q-32 0 -52 -28t-20 -70q0 -45 23.5 -76
t61.5 -31q10 0 16 9t9.5 20.5t4.5 22t1 14.5q0 20 -1.5 32.5t-1.5 19.5zM71 619q0 7 -4.5 24.5t-4.5 33.5q18 0 54.5 0.5t76.5 1.5t77 1.5t55 0.5l5 -62h-259z" />
    <glyph glyph-name="Abreve" unicode="&#x102;" horiz-adv-x="620" 
d="M10 0zM284 -14q-60 3 -121 3q-77 0 -153 -3q1 11 1.5 22.5t0.5 22.5t-0.5 22.5t-1.5 22.5q60 2 88 23t33 69q10 106 29 215.5t49 225.5q6 25 8 34.5t3 16.5q0 8 -4 12.5t-11 6.5t-16.5 4t-20.5 5q2 19 8.5 43.5t16.5 59.5q4 0 10.5 -1.5t19.5 -4t35.5 -4t59.5 -1.5
q35 0 58 1.5t37.5 4t22 4t12.5 1.5v-86q-8 -4 -18 -9.5t-22 -12.5q0 -27 8 -83t21.5 -124.5t31 -141.5t37 -132.5t39.5 -98t38 -38.5q6 0 13.5 1t15.5 4q0 -9 1 -26t1 -26t-0.5 -15.5t-1.5 -14.5q-72 -3 -145 -3q-74 0 -147 3q1 14 1 40v65q25 0 35.5 12t10.5 36l-6 64
q-26 -2 -53.5 -3t-59.5 -2q-16 -35 -16 -67q0 -8 15 -21.5t37 -18.5v-107zM296 541q-12 -82 -51 -251q44 3 116 29q-19 56 -36 110t-29 112zM462 985q-14 -74 -51.5 -104.5t-103.5 -30.5q-38 0 -66 11.5t-46.5 30t-27.5 41.5t-9 47q0 9 3 18h103q-3 -14 -3 -23
q0 -18 6 -30.5t14.5 -20.5t18 -12t16.5 -4q30 0 39.5 18t9.5 37q0 16 -3 31q17 0 41 -1.5t59 -7.5z" />
    <glyph glyph-name="abreve" unicode="&#x103;" 
d="M9 0zM280 49q-54 -56 -126 -56q-66 0 -105.5 36t-39.5 100q0 81 49.5 129t132.5 48q9 0 18.5 -0.5t20.5 -1.5q4 19 4 48q0 131 -90 131q-38 0 -56 -43q15 7 34 7q43 0 43 -67q0 -10 -7 -20t-17.5 -18.5t-22.5 -13.5t-21 -5q-66 0 -66 90q0 57 49 87t139 30
q65 0 94.5 -56.5t29.5 -188.5q0 -9 -0.5 -27t-0.5 -38.5t-0.5 -39t-0.5 -27.5q0 -113 37 -113q12 0 27 9q5 -10 5 -29q0 -25 -12 -29t-32 -4q-27 0 -51.5 18t-34.5 44zM229 163q0 16 0.5 36t1.5 46q-10 2 -20.5 3.5t-22.5 1.5q-32 0 -52 -28t-20 -70q0 -45 23.5 -76
t61.5 -31q10 0 16 9t9.5 20.5t4.5 22t1 14.5q0 20 -1.5 32.5t-1.5 19.5zM348 713q-14 -74 -51.5 -104.5t-103.5 -30.5q-38 0 -66 11.5t-46.5 30t-27.5 41.5t-9 47q0 9 3 18h103q-3 -14 -3 -23q0 -18 6 -30.5t14.5 -20.5t18 -12t16.5 -4q30 0 39.5 18t9.5 37q0 16 -3 31
q17 0 41 -1.5t59 -7.5z" />
    <glyph glyph-name="Aogonek" unicode="&#x104;" horiz-adv-x="620" 
d="M531 -200q-32 0 -52 20t-20 49q0 26 19 59.5t64 57.5q-19 -1 -37.5 -1h-37.5q-74 0 -147 3q1 14 1 40v65q25 0 35.5 12t10.5 36l-6 64q-26 -2 -53.5 -3t-59.5 -2q-16 -35 -16 -67q0 -8 15 -21.5t37 -18.5v-107q-60 3 -121 3q-77 0 -153 -3q1 11 1.5 22.5t0.5 22.5
t-0.5 22.5t-1.5 22.5q60 2 88 23t33 69q10 106 29 215.5t49 225.5q6 25 8 34.5t3 16.5q0 8 -4 12.5t-11 6.5t-16.5 4t-20.5 5q2 19 8.5 43.5t16.5 59.5q4 0 10.5 -1.5t19.5 -4t35.5 -4t59.5 -1.5q35 0 58 1.5t37.5 4t22 4t12.5 1.5v-86q-8 -4 -18 -9.5t-22 -12.5
q0 -27 8 -83t21.5 -124.5t31 -141.5t37 -132.5t39.5 -98t38 -38.5q6 0 13.5 1t15.5 4q0 -9 1 -26t1 -26q0 -10 -1 -16t-1 -14q-24 0 -41 -12.5t-27.5 -28.5t-15.5 -29.5t-5 -16.5q0 -20 27 -20q17 0 34 4.5t28 9.5q2 -11 2 -22.5v-22.5v-18t-1 -18q-17 -10 -38 -12t-44 -2z
M296 541q-12 -82 -51 -251q44 3 116 29q-19 56 -36 110t-29 112z" />
    <glyph glyph-name="aogonek" unicode="&#x105;" 
d="M323 -200q-32 0 -52 20t-20 49q0 14 5 30t16 32.5t28.5 32t42.5 27.5q-21 6 -38 22t-25 36q-54 -56 -126 -56q-66 0 -105.5 36t-39.5 100q0 81 49.5 129t132.5 48q9 0 18.5 -0.5t20.5 -1.5q4 19 4 48q0 131 -90 131q-38 0 -56 -43q15 7 34 7q43 0 43 -67q0 -10 -7 -20
t-17.5 -18.5t-22.5 -13.5t-21 -5q-66 0 -66 90q0 57 49 87t139 30q65 0 94.5 -56.5t29.5 -188.5q0 -9 -0.5 -27t-0.5 -38.5t-0.5 -39t-0.5 -27.5q0 -113 37 -113q12 0 27 9q5 -10 5 -29t-7.5 -23.5t-18.5 -8.5q-21 -7 -34.5 -18.5t-21 -24.5t-10.5 -25t-3 -19q0 -20 27 -20
q17 0 34 4.5t28 9.5q2 -11 2 -22.5v-22.5v-18t-1 -18q-17 -10 -38 -12t-44 -2zM229 163q0 16 0.5 36t1.5 46q-10 2 -20.5 3.5t-22.5 1.5q-32 0 -52 -28t-20 -70q0 -45 23.5 -76t61.5 -31q10 0 16 9t9.5 20.5t4.5 22t1 14.5q0 20 -1.5 32.5t-1.5 19.5z" />
    <glyph glyph-name="Cacute" unicode="&#x106;" horiz-adv-x="478" 
d="M16 0zM467 186q-3 -48 -19 -88.5t-42 -70t-61 -46t-77 -16.5q-51 0 -96.5 31t-80 80.5t-55 111t-20.5 123.5q0 107 18 196.5t52.5 154t83 100t110.5 35.5q30 0 61 -19t56.5 -48t42 -63.5t16.5 -65.5q0 -126 -114 -126q-13 0 -24.5 8t-19.5 21t-13 28.5t-5 30.5
q0 80 88 80q0 32 -17.5 46.5t-59.5 14.5q-32 0 -58 -24.5t-44 -68.5t-28 -104t-10 -131q0 -56 10.5 -108.5t28.5 -94t43.5 -66.5t55.5 -25t58 26t52 97q26 -12 68 -19zM177 887q39 32 79 60t83 51q16 -16 25.5 -34.5t15.5 -38.5q-44 -11 -88 -30.5t-89 -44.5q-8 8 -14 17
t-12 20z" />
    <glyph glyph-name="cacute" unicode="&#x107;" horiz-adv-x="376" 
d="M28 0zM316 434q0 44 -74 44q-55 0 -80.5 -43.5t-25.5 -148.5q0 -69 4.5 -117t13.5 -78t24 -43.5t36 -13.5q16 0 28.5 2.5t24.5 10.5t24.5 23t27.5 41q22 -10 39 -28q-34 -58 -69 -79t-73 -21q-91 0 -139.5 79.5t-48.5 224.5q0 46 14 90t37.5 78t55 54.5t66.5 20.5
q34 0 64.5 -9.5t53.5 -26t36.5 -39t13.5 -49.5q0 -32 -19 -55t-48 -23q-26 0 -44 19.5t-18 45.5q0 19 15.5 34t35.5 15q14 0 25 -8zM116 615q39 32 79 60t83 51q16 -16 25.5 -34.5t15.5 -38.5q-44 -11 -88 -30.5t-89 -44.5q-8 8 -14 17t-12 20z" />
    <glyph glyph-name="Cdotaccent" unicode="&#x10a;" horiz-adv-x="478" 
d="M16 0zM467 186q-3 -48 -19 -88.5t-42 -70t-61 -46t-77 -16.5q-51 0 -96.5 31t-80 80.5t-55 111t-20.5 123.5q0 107 18 196.5t52.5 154t83 100t110.5 35.5q30 0 61 -19t56.5 -48t42 -63.5t16.5 -65.5q0 -126 -114 -126q-13 0 -24.5 8t-19.5 21t-13 28.5t-5 30.5
q0 80 88 80q0 32 -17.5 46.5t-59.5 14.5q-32 0 -58 -24.5t-44 -68.5t-28 -104t-10 -131q0 -56 10.5 -108.5t28.5 -94t43.5 -66.5t55.5 -25t58 26t52 97q26 -12 68 -19zM257 860q-26 0 -46 22t-20 52q0 24 20.5 39.5t46.5 15.5q29 0 48.5 -18.5t19.5 -45.5q0 -13 -6 -24.5
t-16 -20.5t-22.5 -14.5t-24.5 -5.5z" />
    <glyph glyph-name="cdotaccent" unicode="&#x10b;" horiz-adv-x="376" 
d="M28 0zM316 434q0 44 -74 44q-55 0 -80.5 -43.5t-25.5 -148.5q0 -69 4.5 -117t13.5 -78t24 -43.5t36 -13.5q16 0 28.5 2.5t24.5 10.5t24.5 23t27.5 41q22 -10 39 -28q-34 -58 -69 -79t-73 -21q-91 0 -139.5 79.5t-48.5 224.5q0 46 14 90t37.5 78t55 54.5t66.5 20.5
q34 0 64.5 -9.5t53.5 -26t36.5 -39t13.5 -49.5q0 -32 -19 -55t-48 -23q-26 0 -44 19.5t-18 45.5q0 19 15.5 34t35.5 15q14 0 25 -8zM186 588q-26 0 -46 22t-20 52q0 24 20.5 39.5t46.5 15.5q29 0 48.5 -18.5t19.5 -45.5q0 -13 -6 -24.5t-16 -20.5t-22.5 -14.5t-24.5 -5.5z
" />
    <glyph glyph-name="Ccaron" unicode="&#x10c;" horiz-adv-x="478" 
d="M16 0zM467 186q-3 -48 -19 -88.5t-42 -70t-61 -46t-77 -16.5q-51 0 -96.5 31t-80 80.5t-55 111t-20.5 123.5q0 107 18 196.5t52.5 154t83 100t110.5 35.5q30 0 61 -19t56.5 -48t42 -63.5t16.5 -65.5q0 -126 -114 -126q-13 0 -24.5 8t-19.5 21t-13 28.5t-5 30.5
q0 80 88 80q0 32 -17.5 46.5t-59.5 14.5q-32 0 -58 -24.5t-44 -68.5t-28 -104t-10 -131q0 -56 10.5 -108.5t28.5 -94t43.5 -66.5t55.5 -25t58 26t52 97q26 -12 68 -19zM309 850q-31 6 -57.5 10.5t-49.5 4.5q-44 47 -70 81t-34 52h103q2 -6 9 -19t15.5 -27t17 -26.5
t13.5 -17.5q18 35 29.5 60.5t13.5 25.5q17 0 41 -1.5t59 -7.5z" />
    <glyph glyph-name="ccaron" unicode="&#x10d;" horiz-adv-x="376" 
d="M28 0zM316 434q0 44 -74 44q-55 0 -80.5 -43.5t-25.5 -148.5q0 -69 4.5 -117t13.5 -78t24 -43.5t36 -13.5q16 0 28.5 2.5t24.5 10.5t24.5 23t27.5 41q22 -10 39 -28q-34 -58 -69 -79t-73 -21q-91 0 -139.5 79.5t-48.5 224.5q0 46 14 90t37.5 78t55 54.5t66.5 20.5
q34 0 64.5 -9.5t53.5 -26t36.5 -39t13.5 -49.5q0 -32 -19 -55t-48 -23q-26 0 -44 19.5t-18 45.5q0 19 15.5 34t35.5 15q14 0 25 -8zM248 578q-31 6 -57.5 10.5t-49.5 4.5q-44 47 -70 81t-34 52h103q2 -6 9 -19t15.5 -27t17 -26.5t13.5 -17.5q18 35 29.5 60.5t13.5 25.5
q17 0 41 -1.5t59 -7.5z" />
    <glyph glyph-name="Dcaron" unicode="&#x10e;" horiz-adv-x="545" 
d="M2 0zM48 682q3 25 5 47.5t2 43.5q77 20 125 20q107 0 175 -13.5t106.5 -54t53 -115t14.5 -196.5q0 -123 -20 -207t-62 -135.5t-108 -73.5t-159 -22q-8 0 -24.5 0.5t-34.5 1.5t-35 1.5t-25 0.5q-19 0 -33.5 -0.5t-25.5 -1.5q2 19 3.5 43.5t1.5 54.5q104 0 104 116
q0 8 -0.5 26t-1.5 38t-1.5 38.5t-0.5 26.5q0 79 8.5 155.5t8.5 145.5q0 28 -20.5 44t-55.5 16zM241 129h25q32 0 58.5 17.5t45 55t29 96t10.5 140.5q0 52 -8.5 96.5t-24.5 76.5t-39 50t-52 18h-22t-22 -2v-548zM323 850q-31 6 -57.5 10.5t-49.5 4.5q-44 47 -70 81t-34 52
h103q2 -6 9 -19t15.5 -27t17 -26.5t13.5 -17.5q18 35 29.5 60.5t13.5 25.5q17 0 41 -1.5t59 -7.5z" />
    <glyph glyph-name="dcaron" unicode="&#x10f;" horiz-adv-x="573" 
d="M22 0zM371 827q-2 -83 -3 -166t-1 -168q0 -94 1.5 -188t3.5 -191q0 -12 6.5 -23.5t16 -20.5t21 -15t23.5 -6q4 -7 4 -28q0 -25 -12.5 -29.5t-32.5 -4.5q-26 0 -50.5 18t-35.5 44q-54 -56 -125 -56q-165 0 -165 294q0 43 12.5 85.5t33.5 76t50 54.5t62 21q9 0 15 -1
t13.5 -6.5t18.5 -16.5t29 -32q4 11 4 201q0 71 -55 71h-7v12q0 8 -1.5 14l-3.5 14q58 15 102.5 26.5t75.5 20.5zM202 45q64 0 64 128q0 12 -1 35t-1 35q0 11 1 30.5t1 29.5q0 139 -64 139q-71 0 -71 -199q0 -198 71 -198zM573 749q0 -20 -8 -41t-22 -38.5t-33.5 -28.5
t-43.5 -11h-10.5t-10.5 2v40q10 -2 15 -2q47 0 47 30q0 6 -1 8q-6 -4 -19 -5t-19 -1q-25 0 -42 19.5t-17 44.5q0 35 27.5 55.5t72.5 20.5q29 0 46.5 -27.5t17.5 -65.5z" />
    <glyph glyph-name="Dcroat" unicode="&#x110;" horiz-adv-x="558" 
d="M2 0zM42 348q0 6 -1.5 17t-3.5 23.5t-3.5 25t-1.5 20.5v13h37t47 1q4 46 6 89t2 85q0 28 -19 44t-47 16h-10q3 25 5 47.5t2 43.5q35 10 65.5 15t59.5 5q108 0 176.5 -17t106.5 -60t52 -116.5t14 -185.5q0 -100 -23.5 -181t-68 -138t-109.5 -88t-148 -31q-8 0 -24.5 0.5
t-34.5 1.5t-35 1.5t-25 0.5q-19 0 -33.5 -0.5t-25.5 -1.5q2 19 3.5 43.5t1.5 54.5q104 0 104 116q0 7 -1.5 25t-3 38.5t-2.5 39t-1 26.5v11t1 11v5h-62zM241 129h25q29 0 55 23t45.5 64.5t31 98t11.5 123.5q0 52 -8.5 96.5t-24.5 76.5t-39 50t-52 18h-44v-226q28 1 51 1h40
l6 -106h-97v-219z" />
    <glyph glyph-name="dcroat" unicode="&#x111;" horiz-adv-x="424" 
d="M367 619v-126q0 -94 1.5 -188t3.5 -191q0 -12 6.5 -23.5t16 -20.5t21 -15t23.5 -6q4 -7 4 -28q0 -25 -12.5 -29.5t-32.5 -4.5q-26 0 -50.5 18t-35.5 44q-54 -56 -125 -56q-165 0 -165 294q0 43 12.5 85.5t33.5 76t50 54.5t62 21q9 0 15 -1t13.5 -6.5t18.5 -16.5t29 -32
q2 5 2.5 43.5t1.5 107.5h-95q0 7 -4.5 24.5t-4.5 33.5h43t61 1q-4 62 -55 62h-7v12q0 8 -1.5 14l-3.5 14q58 15 102.5 26.5t75.5 20.5q-3 -74 -3 -147q16 1 29 1h22l5 -62h-57zM202 45q64 0 64 128q0 12 -1 35t-1 35q0 11 1 30.5t1 29.5q0 139 -64 139q-71 0 -71 -199
q0 -198 71 -198z" />
    <glyph glyph-name="Emacron" unicode="&#x112;" horiz-adv-x="517" 
d="M0 1zM3 1q-3 16 -3 71q15 1 32 3t32 8t25 16.5t10 29.5q0 11 4 57t9 114.5t9 152t4 169.5q0 28 -20 44t-55 16q3 21 4.5 41t1.5 50q19 4 40.5 7.5t58 5.5t94 3.5t148.5 1.5h92q-1 -12 -2 -28.5t-1 -48.5q0 -22 0.5 -43.5t1.5 -42.5q-19 0 -40 -2.5t-39 -5.5
q-11 8 -27.5 34t-25.5 56h-114q5 -97 8.5 -169t3.5 -124h67q12 46 18 85h70q-18 -116 -21 -226h-62q-2 8 -4.5 25t-6.5 46h-68q-2 -42 -6 -100.5t-11 -136.5q26 -5 51 -7.5t46 -2.5q38 0 52.5 27.5t16.5 65.5h101q0 -6 0.5 -14t0.5 -26v-51v-89zM143 891q0 7 -4.5 24.5
t-4.5 33.5q18 0 54.5 0.5t76.5 1.5t77 1.5t55 0.5l5 -62h-259z" />
    <glyph glyph-name="emacron" unicode="&#x113;" horiz-adv-x="382" 
d="M16 0zM132 281q-2 -25 -3 -42t-1 -26q0 -168 76 -168q58 0 102 96q5 1 10.5 1.5t10.5 0.5t9.5 -0.5t9.5 -1.5q-33 -148 -160 -148q-170 0 -170 294q0 51 13 94.5t37 75t58 49.5t77 18q78 0 121 -47.5t43 -128.5q0 -50 -10 -67h-223zM135 345h132q2 6 2 12.5v11.5
q0 115 -65 115q-13 0 -25.5 -11.5t-22 -28.5t-15.5 -36.5t-6 -36.5v-26zM66 619q0 7 -4.5 24.5t-4.5 33.5q18 0 54.5 0.5t76.5 1.5t77 1.5t55 0.5l5 -62h-259z" />
    <glyph glyph-name="Ebreve" unicode="&#x114;" horiz-adv-x="517" 
d="M0 1zM3 1q-3 16 -3 71q15 1 32 3t32 8t25 16.5t10 29.5q0 11 4 57t9 114.5t9 152t4 169.5q0 28 -20 44t-55 16q3 21 4.5 41t1.5 50q19 4 40.5 7.5t58 5.5t94 3.5t148.5 1.5h92q-1 -12 -2 -28.5t-1 -48.5q0 -22 0.5 -43.5t1.5 -42.5q-19 0 -40 -2.5t-39 -5.5
q-11 8 -27.5 34t-25.5 56h-114q5 -97 8.5 -169t3.5 -124h67q12 46 18 85h70q-18 -116 -21 -226h-62q-2 8 -4.5 25t-6.5 46h-68q-2 -42 -6 -100.5t-11 -136.5q26 -5 51 -7.5t46 -2.5q38 0 52.5 27.5t16.5 65.5h101q0 -6 0.5 -14t0.5 -26v-51v-89zM430 985
q-14 -74 -51.5 -104.5t-103.5 -30.5q-38 0 -66 11.5t-46.5 30t-27.5 41.5t-9 47q0 9 3 18h103q-3 -14 -3 -23q0 -18 6 -30.5t14.5 -20.5t18 -12t16.5 -4q30 0 39.5 18t9.5 37q0 16 -3 31q17 0 41 -1.5t59 -7.5z" />
    <glyph glyph-name="ebreve" unicode="&#x115;" horiz-adv-x="382" 
d="M16 0zM132 281q-2 -25 -3 -42t-1 -26q0 -168 76 -168q58 0 102 96q5 1 10.5 1.5t10.5 0.5t9.5 -0.5t9.5 -1.5q-33 -148 -160 -148q-170 0 -170 294q0 51 13 94.5t37 75t58 49.5t77 18q78 0 121 -47.5t43 -128.5q0 -50 -10 -67h-223zM135 345h132q2 6 2 12.5v11.5
q0 115 -65 115q-13 0 -25.5 -11.5t-22 -28.5t-15.5 -36.5t-6 -36.5v-26zM343 713q-14 -74 -51.5 -104.5t-103.5 -30.5q-38 0 -66 11.5t-46.5 30t-27.5 41.5t-9 47q0 9 3 18h103q-3 -14 -3 -23q0 -18 6 -30.5t14.5 -20.5t18 -12t16.5 -4q30 0 39.5 18t9.5 37q0 16 -3 31
q17 0 41 -1.5t59 -7.5z" />
    <glyph glyph-name="Edotaccent" unicode="&#x116;" horiz-adv-x="517" 
d="M0 1zM3 1q-3 16 -3 71q15 1 32 3t32 8t25 16.5t10 29.5q0 11 4 57t9 114.5t9 152t4 169.5q0 28 -20 44t-55 16q3 21 4.5 41t1.5 50q19 4 40.5 7.5t58 5.5t94 3.5t148.5 1.5h92q-1 -12 -2 -28.5t-1 -48.5q0 -22 0.5 -43.5t1.5 -42.5q-19 0 -40 -2.5t-39 -5.5
q-11 8 -27.5 34t-25.5 56h-114q5 -97 8.5 -169t3.5 -124h67q12 46 18 85h70q-18 -116 -21 -226h-62q-2 8 -4.5 25t-6.5 46h-68q-2 -42 -6 -100.5t-11 -136.5q26 -5 51 -7.5t46 -2.5q38 0 52.5 27.5t16.5 65.5h101q0 -6 0.5 -14t0.5 -26v-51v-89zM277 860q-26 0 -46 22
t-20 52q0 24 20.5 39.5t46.5 15.5q29 0 48.5 -18.5t19.5 -45.5q0 -13 -6 -24.5t-16 -20.5t-22.5 -14.5t-24.5 -5.5z" />
    <glyph glyph-name="edotaccent" unicode="&#x117;" horiz-adv-x="382" 
d="M16 0zM132 281q-2 -25 -3 -42t-1 -26q0 -168 76 -168q58 0 102 96q5 1 10.5 1.5t10.5 0.5t9.5 -0.5t9.5 -1.5q-33 -148 -160 -148q-170 0 -170 294q0 51 13 94.5t37 75t58 49.5t77 18q78 0 121 -47.5t43 -128.5q0 -50 -10 -67h-223zM135 345h132q2 6 2 12.5v11.5
q0 115 -65 115q-13 0 -25.5 -11.5t-22 -28.5t-15.5 -36.5t-6 -36.5v-26zM189 588q-26 0 -46 22t-20 52q0 24 20.5 39.5t46.5 15.5q29 0 48.5 -18.5t19.5 -45.5q0 -13 -6 -24.5t-16 -20.5t-22.5 -14.5t-24.5 -5.5z" />
    <glyph glyph-name="Eogonek" unicode="&#x118;" horiz-adv-x="517" 
d="M415 -200q-32 0 -52 20t-20 49q0 15 6.5 35.5t20 40.5t35 38t51.5 29l-453 -11q-3 16 -3 71q15 1 32 3t32 8t25 16.5t10 29.5q0 11 4 57t9 114.5t9 152t4 169.5q0 28 -20 44t-55 16q3 21 4.5 41t1.5 50q19 4 40.5 7.5t58 5.5t94 3.5t148.5 1.5h92q-1 -12 -2 -28.5
t-1 -48.5q0 -22 0.5 -43.5t1.5 -42.5q-19 0 -40 -2.5t-39 -5.5q-11 8 -27.5 34t-25.5 56h-114q5 -97 8.5 -169t3.5 -124h67q12 46 18 85h70q-18 -116 -21 -226h-62q-2 8 -4.5 25t-6.5 46h-68q-2 -42 -6 -100.5t-11 -136.5q26 -5 51 -7.5t46 -2.5q38 0 52.5 27.5t16.5 65.5
h101q0 -6 0.5 -14t0.5 -26v-51v-89q-24 -13 -41 -29t-28.5 -32t-16.5 -29.5t-5 -21.5q0 -20 27 -20q17 0 34 4.5t28 9.5q2 -11 2 -22.5v-22.5v-18t-1 -18q-17 -10 -38 -12t-44 -2z" />
    <glyph glyph-name="eogonek" unicode="&#x119;" horiz-adv-x="382" 
d="M153 -200q-32 0 -52 20t-20 49q0 14 5.5 31t17.5 33.5t30.5 32t44.5 27.5q-163 6 -163 294q0 51 13 94.5t37 75t58 49.5t77 18q78 0 121 -47.5t43 -128.5q0 -50 -10 -67h-223q-2 -25 -3 -42t-1 -26q0 -168 76 -168q58 0 102 96q5 1 10.5 1.5t10.5 0.5t9.5 -0.5t9.5 -1.5
q-14 -59 -41.5 -91.5t-69.5 -49.5q-25 -10 -42 -24t-27.5 -28t-15.5 -26.5t-5 -20.5q0 -20 27 -20q17 0 34 4.5t28 9.5q2 -11 2 -22.5v-22.5v-18t-1 -18q-17 -10 -38 -12t-44 -2zM135 345h132q2 6 2 12.5v11.5q0 115 -65 115q-13 0 -25.5 -11.5t-22 -28.5t-15.5 -36.5
t-6 -36.5v-26z" />
    <glyph glyph-name="Ecaron" unicode="&#x11a;" horiz-adv-x="517" 
d="M0 1zM3 1q-3 16 -3 71q15 1 32 3t32 8t25 16.5t10 29.5q0 11 4 57t9 114.5t9 152t4 169.5q0 28 -20 44t-55 16q3 21 4.5 41t1.5 50q19 4 40.5 7.5t58 5.5t94 3.5t148.5 1.5h92q-1 -12 -2 -28.5t-1 -48.5q0 -22 0.5 -43.5t1.5 -42.5q-19 0 -40 -2.5t-39 -5.5
q-11 8 -27.5 34t-25.5 56h-114q5 -97 8.5 -169t3.5 -124h67q12 46 18 85h70q-18 -116 -21 -226h-62q-2 8 -4.5 25t-6.5 46h-68q-2 -42 -6 -100.5t-11 -136.5q26 -5 51 -7.5t46 -2.5q38 0 52.5 27.5t16.5 65.5h101q0 -6 0.5 -14t0.5 -26v-51v-89zM329 850q-31 6 -57.5 10.5
t-49.5 4.5q-44 47 -70 81t-34 52h103q2 -6 9 -19t15.5 -27t17 -26.5t13.5 -17.5q18 35 29.5 60.5t13.5 25.5q17 0 41 -1.5t59 -7.5z" />
    <glyph glyph-name="ecaron" unicode="&#x11b;" horiz-adv-x="382" 
d="M16 0zM132 281q-2 -25 -3 -42t-1 -26q0 -168 76 -168q58 0 102 96q5 1 10.5 1.5t10.5 0.5t9.5 -0.5t9.5 -1.5q-33 -148 -160 -148q-170 0 -170 294q0 51 13 94.5t37 75t58 49.5t77 18q78 0 121 -47.5t43 -128.5q0 -50 -10 -67h-223zM135 345h132q2 6 2 12.5v11.5
q0 115 -65 115q-13 0 -25.5 -11.5t-22 -28.5t-15.5 -36.5t-6 -36.5v-26zM251 578q-31 6 -57.5 10.5t-49.5 4.5q-44 47 -70 81t-34 52h103q2 -6 9 -19t15.5 -27t17 -26.5t13.5 -17.5q18 35 29.5 60.5t13.5 25.5q17 0 41 -1.5t59 -7.5z" />
    <glyph glyph-name="Gbreve" unicode="&#x11e;" horiz-adv-x="568" 
d="M10 0zM566 76q-1 -8 -1.5 -20t-0.5 -22q0 -13 0.5 -25.5t1.5 -24.5q-11 -8 -35 -8q-16 0 -34.5 6t-36 15.5t-32.5 22.5t-24 27q-12 -16 -29.5 -31t-37 -26t-40 -18t-36.5 -7q-51 0 -97 31.5t-80 81.5t-54 111.5t-20 121.5q0 107 18 196.5t52 154t82.5 100t110.5 35.5
q30 0 61 -19t56.5 -48t42 -63.5t16.5 -65.5q0 -126 -114 -126q-13 0 -24 8t-19.5 20.5t-13.5 28t-5 31.5q0 80 89 80q0 32 -18 46.5t-59 14.5q-33 0 -59 -24.5t-44.5 -68t-28 -103.5t-9.5 -132q0 -56 10 -108.5t28.5 -94t43.5 -66.5t55 -25q21 0 39 12.5t31 32.5t20.5 46
t7.5 53q0 35 -8 45t-28 10q-9 0 -27 -2t-28 -2q3 7 3 29q0 10 -0.5 29t-1.5 48q35 -2 71 -3t71 -1q33 0 65 1t64 3q-1 -12 -1.5 -24t-0.5 -23q0 -14 0.5 -27t1.5 -27q-3 1 -8 1.5t-19 0.5q-15 0 -33 -4.5t-33 -13.5q0 -32 5.5 -66t14.5 -63t20.5 -47.5t23.5 -18.5t20 1.5
t15 3.5zM426 985q-14 -74 -51.5 -104.5t-103.5 -30.5q-38 0 -66 11.5t-46.5 30t-27.5 41.5t-9 47q0 9 3 18h103q-3 -14 -3 -23q0 -18 6 -30.5t14.5 -20.5t18 -12t16.5 -4q30 0 39.5 18t9.5 37q0 16 -3 31q17 0 41 -1.5t59 -7.5z" />
    <glyph glyph-name="gbreve" unicode="&#x11f;" horiz-adv-x="384" 
d="M18 0zM100 60q-26 5 -41.5 18t-15.5 33q0 16 5 26.5t14 17t21 11t25 8.5q-42 34 -61.5 71t-19.5 76q0 58 10.5 98t33 65.5t57 37t82.5 11.5q17 0 32.5 -2.5t28.5 -8.5q1 21 10 43.5t22.5 41t31 30t35.5 11.5q37 0 37 -42q0 -24 -11.5 -30.5t-27.5 -11t-33.5 -15.5
t-30.5 -43q13 -8 24 -24t19 -36t13 -42.5t5 -43.5q0 -38 -11 -69t-35.5 -57.5t-62.5 -50t-92 -46.5q-20 -9 -31 -15t-16 -11t-6 -8t-1 -6q0 -23 31 -23q13 12 29 25.5t37.5 25t49 19t65.5 7.5q12 0 21 -9.5t16 -25t10.5 -36.5t3.5 -45q0 -36 -25.5 -77.5t-63 -76.5t-81 -58
t-79.5 -23q-106 0 -106 117q0 21 3.5 38t12.5 33t25 33t41 39zM172 197q21 0 36.5 8.5t25 29t14.5 53.5t5 81q0 133 -60 133q-16 0 -27 -6.5t-17.5 -27.5t-9 -61.5t-2.5 -109.5q0 -100 35 -100zM169 -153q21 0 41 15t35 39t24 54t9 59q0 23 -9.5 44t-24.5 21q-23 0 -44 -15
t-37 -38t-26 -51.5t-10 -55.5q0 -72 42 -72zM340 741q-14 -74 -51.5 -104.5t-103.5 -30.5q-38 0 -66 11.5t-46.5 30t-27.5 41.5t-9 47q0 9 3 18h103q-3 -14 -3 -23q0 -18 6 -30.5t14.5 -20.5t18 -12t16.5 -4q30 0 39.5 18t9.5 37q0 16 -3 31q17 0 41 -1.5t59 -7.5z" />
    <glyph glyph-name="Gdotaccent" unicode="&#x120;" horiz-adv-x="568" 
d="M10 0zM566 76q-1 -8 -1.5 -20t-0.5 -22q0 -13 0.5 -25.5t1.5 -24.5q-11 -8 -35 -8q-16 0 -34.5 6t-36 15.5t-32.5 22.5t-24 27q-12 -16 -29.5 -31t-37 -26t-40 -18t-36.5 -7q-51 0 -97 31.5t-80 81.5t-54 111.5t-20 121.5q0 107 18 196.5t52 154t82.5 100t110.5 35.5
q30 0 61 -19t56.5 -48t42 -63.5t16.5 -65.5q0 -126 -114 -126q-13 0 -24 8t-19.5 20.5t-13.5 28t-5 31.5q0 80 89 80q0 32 -18 46.5t-59 14.5q-33 0 -59 -24.5t-44.5 -68t-28 -103.5t-9.5 -132q0 -56 10 -108.5t28.5 -94t43.5 -66.5t55 -25q21 0 39 12.5t31 32.5t20.5 46
t7.5 53q0 35 -8 45t-28 10q-9 0 -27 -2t-28 -2q3 7 3 29q0 10 -0.5 29t-1.5 48q35 -2 71 -3t71 -1q33 0 65 1t64 3q-1 -12 -1.5 -24t-0.5 -23q0 -14 0.5 -27t1.5 -27q-3 1 -8 1.5t-19 0.5q-15 0 -33 -4.5t-33 -13.5q0 -32 5.5 -66t14.5 -63t20.5 -47.5t23.5 -18.5t20 1.5
t15 3.5zM292 860q-26 0 -46 22t-20 52q0 24 20.5 39.5t46.5 15.5q29 0 48.5 -18.5t19.5 -45.5q0 -13 -6 -24.5t-16 -20.5t-22.5 -14.5t-24.5 -5.5z" />
    <glyph glyph-name="gdotaccent" unicode="&#x121;" horiz-adv-x="384" 
d="M18 0zM100 60q-26 5 -41.5 18t-15.5 33q0 16 5 26.5t14 17t21 11t25 8.5q-42 34 -61.5 71t-19.5 76q0 58 10.5 98t33 65.5t57 37t82.5 11.5q17 0 32.5 -2.5t28.5 -8.5q1 21 10 43.5t22.5 41t31 30t35.5 11.5q37 0 37 -42q0 -24 -11.5 -30.5t-27.5 -11t-33.5 -15.5
t-30.5 -43q13 -8 24 -24t19 -36t13 -42.5t5 -43.5q0 -38 -11 -69t-35.5 -57.5t-62.5 -50t-92 -46.5q-20 -9 -31 -15t-16 -11t-6 -8t-1 -6q0 -23 31 -23q13 12 29 25.5t37.5 25t49 19t65.5 7.5q12 0 21 -9.5t16 -25t10.5 -36.5t3.5 -45q0 -36 -25.5 -77.5t-63 -76.5t-81 -58
t-79.5 -23q-106 0 -106 117q0 21 3.5 38t12.5 33t25 33t41 39zM172 197q21 0 36.5 8.5t25 29t14.5 53.5t5 81q0 133 -60 133q-16 0 -27 -6.5t-17.5 -27.5t-9 -61.5t-2.5 -109.5q0 -100 35 -100zM169 -153q21 0 41 15t35 39t24 54t9 59q0 23 -9.5 44t-24.5 21q-23 0 -44 -15
t-37 -38t-26 -51.5t-10 -55.5q0 -72 42 -72zM190 588q-26 0 -46 22t-20 52q0 24 20.5 39.5t46.5 15.5q29 0 48.5 -18.5t19.5 -45.5q0 -13 -6 -24.5t-16 -20.5t-22.5 -14.5t-24.5 -5.5z" />
    <glyph glyph-name="Gcommaaccent" unicode="&#x122;" horiz-adv-x="568" 
d="M10 0zM566 76q-1 -8 -1.5 -20t-0.5 -22q0 -13 0.5 -25.5t1.5 -24.5q-11 -8 -35 -8q-16 0 -34.5 6t-36 15.5t-32.5 22.5t-24 27q-12 -16 -29.5 -31t-37 -26t-40 -18t-36.5 -7q-51 0 -97 31.5t-80 81.5t-54 111.5t-20 121.5q0 107 18 196.5t52 154t82.5 100t110.5 35.5
q30 0 61 -19t56.5 -48t42 -63.5t16.5 -65.5q0 -126 -114 -126q-13 0 -24 8t-19.5 20.5t-13.5 28t-5 31.5q0 80 89 80q0 32 -18 46.5t-59 14.5q-33 0 -59 -24.5t-44.5 -68t-28 -103.5t-9.5 -132q0 -56 10 -108.5t28.5 -94t43.5 -66.5t55 -25q21 0 39 12.5t31 32.5t20.5 46
t7.5 53q0 35 -8 45t-28 10q-9 0 -27 -2t-28 -2q3 7 3 29q0 10 -0.5 29t-1.5 48q35 -2 71 -3t71 -1q33 0 65 1t64 3q-1 -12 -1.5 -24t-0.5 -23q0 -14 0.5 -27t1.5 -27q-3 1 -8 1.5t-19 0.5q-15 0 -33 -4.5t-33 -13.5q0 -32 5.5 -66t14.5 -63t20.5 -47.5t23.5 -18.5t20 1.5
t15 3.5zM362 -110q0 -15 -7.5 -31t-19.5 -29t-28 -21.5t-33 -8.5q-12 0 -33 3v32q4 0 7 -0.5t7 -0.5q45 0 45 23q0 6 -1 7q-8 -4 -19.5 -4.5t-16.5 -0.5q-23 0 -39.5 13t-16.5 33q0 26 26.5 42t68.5 16q26 0 43 -21.5t17 -51.5z" />
    <glyph glyph-name="gcommaaccent" unicode="&#x123;" horiz-adv-x="384" 
d="M18 0zM100 60q-26 5 -41.5 18t-15.5 33q0 16 5 26.5t14 17t21 11t25 8.5q-42 34 -61.5 71t-19.5 76q0 58 10.5 98t33 65.5t57 37t82.5 11.5q17 0 32.5 -2.5t28.5 -8.5q1 21 10 43.5t22.5 41t31 30t35.5 11.5q37 0 37 -42q0 -24 -11.5 -30.5t-27.5 -11t-33.5 -15.5
t-30.5 -43q13 -8 24 -24t19 -36t13 -42.5t5 -43.5q0 -38 -11 -69t-35.5 -57.5t-62.5 -50t-92 -46.5q-20 -9 -31 -15t-16 -11t-6 -8t-1 -6q0 -23 31 -23q13 12 29 25.5t37.5 25t49 19t65.5 7.5q12 0 21 -9.5t16 -25t10.5 -36.5t3.5 -45q0 -36 -25.5 -77.5t-63 -76.5t-81 -58
t-79.5 -23q-106 0 -106 117q0 21 3.5 38t12.5 33t25 33t41 39zM172 197q21 0 36.5 8.5t25 29t14.5 53.5t5 81q0 133 -60 133q-16 0 -27 -6.5t-17.5 -27.5t-9 -61.5t-2.5 -109.5q0 -100 35 -100zM169 -153q21 0 41 15t35 39t24 54t9 59q0 23 -9.5 44t-24.5 21q-23 0 -44 -15
t-37 -38t-26 -51.5t-10 -55.5q0 -72 42 -72zM114.011 697.993q0 14.999 7.49902 30.998q7.5 15.999 19.499 28.998q11.999 13 27.999 21.499q15.998 8.5 32.9971 8.5q12 0 32.998 -3v-31.998q-3.99902 0 -6.99902 0.5t-7 0.5q-44.9971 0 -44.9971 -22.999q0 -6 1 -6.99902
q7.99902 3.99902 19.499 4.49902q11.499 0.5 16.499 0.5q22.998 0 39.4971 -12.999t16.499 -32.998q0 -25.998 -26.498 -41.9971t-68.4961 -15.999q-25.998 0 -42.9971 21.498q-16.999 21.499 -16.999 51.4971z" />
    <glyph glyph-name="Hbar" unicode="&#x126;" horiz-adv-x="614" 
d="M284 -19q-35 1 -68.5 1.5t-68.5 0.5t-69 -0.5t-69 -1.5v39.5t1 55.5q103 1 103 116q0 8 -1.5 26t-3 38t-2.5 38.5t-1 26.5q0 19 1 44.5t5 58.5q5 40 7.5 68.5t4 48t2 32t0.5 22.5q0 40 -14.5 63.5t-60.5 23.5q2 21 4 41t2 50q43 12 99 12q57 0 129 -12q-4 -11 -5.5 -28
t-1.5 -46q-10 0 -22 -7t-12 -18q0 -2 0.5 -20t2.5 -44q31 0 65 1t63 1q-9 70 -36 93q0 25 -6 75q32 -2 64 -3.5t64 -1.5q35 0 69.5 1.5t69.5 3.5q3 -15 3 -31q0 -20 -3 -39q-19 0 -32 -1.5t-23.5 -6.5t-20.5 -14t-22 -24q-3 -99 -3 -194q0 -93 2 -182t6 -177q0 -9 7.5 -17.5
t17.5 -14.5t21 -10t19 -4q6 0 17.5 2.5t17.5 2.5v-89q-31 -1 -62 -1.5t-62 -0.5q-38 0 -75 0.5t-75 1.5q-2 11 -2 23v24v23.5t2 23.5q40 22 40 115v128h-124q-5 -49 -8 -81t-5 -51.5t-3 -29t-1 -13.5q0 -23 8 -44t28 -21q10 0 15 5q1 -6 1.5 -28.5t0.5 -73.5zM376 458
q1 32 1.5 52.5t0.5 28.5v12h-128q2 -31 3 -57t1 -36h122z" />
    <glyph glyph-name="hbar" unicode="&#x127;" horiz-adv-x="505" 
d="M206 619l2 -142q13 16 24 25t20.5 14t19.5 6.5t22 1.5q37 0 63 -27t43 -65t25 -80t8 -72q0 -37 -1 -76t-1 -76q0 -28 5.5 -48t14.5 -20q13 0 16 15t3 29v15.5t-1 12.5q5 1 10 1.5t10 0.5q6 0 12.5 -0.5t12.5 -1.5q1 -5 1.5 -9.5t0.5 -9.5q0 -45 -22.5 -77.5t-67.5 -32.5
q-32 0 -52.5 8t-32 24.5t-15.5 40.5t-4 57q0 32 2 62t2 59q0 24 -3 50q-3 22 -12 46t-22 43t-29.5 31.5t-34.5 12.5q-21 0 -31 -24q-2 -36 -3 -74t-1 -76q0 -43 1 -86.5t3 -88.5q2 -35 47 -35h9t10 2v-51h-246v55h4q67 0 67 78v127q0 43 2.5 130t3.5 225h-82q0 7 -4.5 24.5
t-4.5 33.5h38t53 1v4q0 21 -17.5 34.5t-43.5 13.5q0 14 -1.5 21.5l-3.5 17.5q33 8 79 19t105 28q-2 -35 -3 -58.5t-1 -35.5v-42q18 1 33 1h25l5 -62h-62z" />
    <glyph glyph-name="Itilde" unicode="&#x128;" horiz-adv-x="349" 
d="M11 0zM342 64q-1 -10 -1 -19v-17v-24t1 -23q-42 1 -83 1.5t-83 0.5t-82.5 -0.5t-82.5 -1.5q1 12 1.5 24t0.5 25v20t-2 20q16 -3 33 -3q50 0 68 31q5 8 8 20t4.5 36.5t2 66t0.5 110.5q0 57 -1 112.5t-5 110.5q-3 49 -7.5 80t-12 48t-19.5 23.5t-31 6.5h-7.5t-9.5 -2
q0 11 0.5 21t0.5 21v16t-1 17q38 -2 77.5 -5t77 -6t71 -5t59.5 -2q-1 -9 -1 -17v-16v-21t1 -21q-15 5 -26 5q-67 0 -67 -116q0 -22 1 -58.5t2 -81.5t3 -93.5t3 -93.5t2 -82t1 -58q0 -53 80 -53q15 0 24 3zM12 877q0 23 6.5 43.5t21 35.5t38 23.5t57.5 8.5q22 0 40.5 -11.5
t33.5 -25t27 -25t21 -11.5q16 0 28.5 16t19.5 48l34 -4q0 -26 -4.5 -46.5t-16.5 -35t-33 -22.5t-53 -8q-25 0 -45.5 10.5t-36.5 23t-28.5 23t-21.5 10.5q-48 0 -55 -59z" />
    <glyph glyph-name="itilde" unicode="&#x129;" horiz-adv-x="274" 
d="M0 4zM264 55q-1 -6 -1.5 -11.5t-0.5 -11.5q0 -7 0.5 -14t1.5 -14q-69 3 -138 3q-54 0 -108 -3q-1 8 -1.5 15t-0.5 15q0 6 0.5 12.5t1.5 12.5q3 -1 16 -1q59 0 59 85q0 42 -1.5 75.5t-1.5 71.5q0 25 1 51t4 59q0 26 -18.5 39.5t-43.5 13.5q0 9 -0.5 18.5t-4.5 19.5
q48 10 92 22t88 26q-6 -99 -9 -198t-3 -203q0 -42 12 -63.5t46 -21.5q4 0 10 2zM-25 605q0 23 6.5 43.5t21 35.5t38 23.5t57.5 8.5q22 0 40.5 -11.5t33.5 -25t27 -25t21 -11.5q16 0 28.5 16t19.5 48l34 -4q0 -26 -4.5 -46.5t-16.5 -35t-33 -22.5t-53 -8q-25 0 -45.5 10.5
t-36.5 23t-28.5 23t-21.5 10.5q-48 0 -55 -59z" />
    <glyph glyph-name="uni012A" unicode="&#x12a;" horiz-adv-x="349" 
d="M11 0zM342 64q-1 -10 -1 -19v-17v-24t1 -23q-42 1 -83 1.5t-83 0.5t-82.5 -0.5t-82.5 -1.5q1 12 1.5 24t0.5 25v20t-2 20q16 -3 33 -3q50 0 68 31q5 8 8 20t4.5 36.5t2 66t0.5 110.5q0 57 -1 112.5t-5 110.5q-3 49 -7.5 80t-12 48t-19.5 23.5t-31 6.5h-7.5t-9.5 -2
q0 11 0.5 21t0.5 21v16t-1 17q38 -2 77.5 -5t77 -6t71 -5t59.5 -2q-1 -9 -1 -17v-16v-21t1 -21q-15 5 -26 5q-67 0 -67 -116q0 -22 1 -58.5t2 -81.5t3 -93.5t3 -93.5t2 -82t1 -58q0 -53 80 -53q15 0 24 3zM49 891q0 7 -4.5 24.5t-4.5 33.5q18 0 54.5 0.5t76.5 1.5t77 1.5
t55 0.5l5 -62h-259z" />
    <glyph glyph-name="imacron" unicode="&#x12b;" horiz-adv-x="274" 
d="M4 4zM264 55q-1 -6 -1.5 -11.5t-0.5 -11.5q0 -7 0.5 -14t1.5 -14q-69 3 -138 3q-54 0 -108 -3q-1 8 -1.5 15t-0.5 15q0 6 0.5 12.5t1.5 12.5q3 -1 16 -1q59 0 59 85q0 42 -1.5 75.5t-1.5 71.5q0 25 1 51t4 59q0 26 -18.5 39.5t-43.5 13.5q0 9 -0.5 18.5t-4.5 19.5
q48 10 92 22t88 26q-6 -99 -9 -198t-3 -203q0 -42 12 -63.5t46 -21.5q4 0 10 2zM13 619q0 7 -4.5 24.5t-4.5 33.5q18 0 54.5 0.5t76.5 1.5t77 1.5t55 0.5l5 -62h-259z" />
    <glyph glyph-name="Ibreve" unicode="&#x12c;" horiz-adv-x="349" 
d="M11 0zM342 64q-1 -10 -1 -19v-17v-24t1 -23q-42 1 -83 1.5t-83 0.5t-82.5 -0.5t-82.5 -1.5q1 12 1.5 24t0.5 25v20t-2 20q16 -3 33 -3q50 0 68 31q5 8 8 20t4.5 36.5t2 66t0.5 110.5q0 57 -1 112.5t-5 110.5q-3 49 -7.5 80t-12 48t-19.5 23.5t-31 6.5h-7.5t-9.5 -2
q0 11 0.5 21t0.5 21v16t-1 17q38 -2 77.5 -5t77 -6t71 -5t59.5 -2q-1 -9 -1 -17v-16v-21t1 -21q-15 5 -26 5q-67 0 -67 -116q0 -22 1 -58.5t2 -81.5t3 -93.5t3 -93.5t2 -82t1 -58q0 -53 80 -53q15 0 24 3zM326 985q-14 -74 -51.5 -104.5t-103.5 -30.5q-38 0 -66 11.5
t-46.5 30t-27.5 41.5t-9 47q0 9 3 18h103q-3 -14 -3 -23q0 -18 6 -30.5t14.5 -20.5t18 -12t16.5 -4q30 0 39.5 18t9.5 37q0 16 -3 31q17 0 41 -1.5t59 -7.5z" />
    <glyph glyph-name="ibreve" unicode="&#x12d;" horiz-adv-x="274" 
d="M0 4zM264 55q-1 -6 -1.5 -11.5t-0.5 -11.5q0 -7 0.5 -14t1.5 -14q-69 3 -138 3q-54 0 -108 -3q-1 8 -1.5 15t-0.5 15q0 6 0.5 12.5t1.5 12.5q3 -1 16 -1q59 0 59 85q0 42 -1.5 75.5t-1.5 71.5q0 25 1 51t4 59q0 26 -18.5 39.5t-43.5 13.5q0 9 -0.5 18.5t-4.5 19.5
q48 10 92 22t88 26q-6 -99 -9 -198t-3 -203q0 -42 12 -63.5t46 -21.5q4 0 10 2zM290 713q-14 -74 -51.5 -104.5t-103.5 -30.5q-38 0 -66 11.5t-46.5 30t-27.5 41.5t-9 47q0 9 3 18h103q-3 -14 -3 -23q0 -18 6 -30.5t14.5 -20.5t18 -12t16.5 -4q30 0 39.5 18t9.5 37
q0 16 -3 31q17 0 41 -1.5t59 -7.5z" />
    <glyph glyph-name="Iogonek" unicode="&#x12e;" horiz-adv-x="349" 
d="M169 -200q-32 0 -52 20t-20 49q0 26 18 58t60 56q-42 0 -82 -0.5t-82 -1.5q1 12 1.5 24t0.5 25v20t-2 20q16 -3 33 -3q50 0 68 31q5 8 8 20t4.5 36.5t2 66t0.5 110.5q0 57 -1 112.5t-5 110.5q-3 49 -7.5 80t-12 48t-19.5 23.5t-31 6.5h-7.5t-9.5 -2q0 11 0.5 21t0.5 21
v16t-1 17q38 -2 77.5 -5t77 -6t71 -5t59.5 -2q-1 -9 -1 -17v-16v-21t1 -21q-15 5 -26 5q-67 0 -67 -116q0 -22 1 -58.5t2 -81.5t3 -93.5t3 -93.5t2 -82t1 -58q0 -53 80 -53q15 0 24 3q-1 -10 -1 -19v-17v-24t1 -23q-30 1 -59.5 1.5t-59.5 0.5q-33 -23 -47.5 -45.5
t-14.5 -36.5q0 -20 27 -20q17 0 34 4.5t28 9.5q2 -11 2 -22.5v-22.5v-18t-1 -18q-17 -10 -38 -12t-44 -2z" />
    <glyph glyph-name="iogonek" unicode="&#x12f;" horiz-adv-x="274" 
d="M131 -200q-32 0 -52 20t-20 49q0 15 6.5 34.5t20.5 39t35.5 36.5t52.5 28h-48q-54 0 -108 -3q-1 8 -1.5 15t-0.5 15q0 6 0.5 12.5t1.5 12.5q3 -1 16 -1q59 0 59 85q0 42 -1.5 75.5t-1.5 71.5q0 25 1 51t4 59q0 26 -18.5 39.5t-43.5 13.5q0 9 -0.5 18.5t-4.5 19.5
q48 10 92 22t88 26q-6 -99 -9 -198t-3 -203q0 -42 12 -63.5t46 -21.5q4 0 10 2q-1 -6 -1.5 -11.5t-0.5 -11.5q0 -7 0.5 -14t1.5 -14l-52 2q-47 -26 -68 -57.5t-21 -47.5q0 -20 27 -20q17 0 34 4.5t28 9.5q2 -11 2 -22.5v-22.5v-18t-1 -18q-17 -10 -38 -12t-44 -2z" />
    <glyph glyph-name="Idotaccent" unicode="&#x130;" horiz-adv-x="349" 
d="M11 0zM342 64q-1 -10 -1 -19v-17v-24t1 -23q-42 1 -83 1.5t-83 0.5t-82.5 -0.5t-82.5 -1.5q1 12 1.5 24t0.5 25v20t-2 20q16 -3 33 -3q50 0 68 31q5 8 8 20t4.5 36.5t2 66t0.5 110.5q0 57 -1 112.5t-5 110.5q-3 49 -7.5 80t-12 48t-19.5 23.5t-31 6.5h-7.5t-9.5 -2
q0 11 0.5 21t0.5 21v16t-1 17q38 -2 77.5 -5t77 -6t71 -5t59.5 -2q-1 -9 -1 -17v-16v-21t1 -21q-15 5 -26 5q-67 0 -67 -116q0 -22 1 -58.5t2 -81.5t3 -93.5t3 -93.5t2 -82t1 -58q0 -53 80 -53q15 0 24 3zM173 860q-26 0 -46 22t-20 52q0 24 20.5 39.5t46.5 15.5
q29 0 48.5 -18.5t19.5 -45.5q0 -13 -6 -24.5t-16 -20.5t-22.5 -14.5t-24.5 -5.5z" />
    <glyph glyph-name="dotlessi" unicode="&#x131;" horiz-adv-x="274" 
d="M264 55q-1 -6 -1.5 -11.5t-0.5 -11.5q0 -7 0.5 -14t1.5 -14q-69 3 -138 3q-54 0 -108 -3q-1 8 -1.5 15t-0.5 15q0 6 0.5 12.5t1.5 12.5q3 -1 16 -1q59 0 59 85q0 42 -1.5 75.5t-1.5 71.5q0 25 1 51t4 59q0 26 -18.5 39.5t-43.5 13.5q0 9 -0.5 18.5t-4.5 19.5q48 10 92 22
t88 26q-6 -99 -9 -198t-3 -203q0 -42 12 -63.5t46 -21.5q4 0 10 2z" />
    <glyph glyph-name="IJ" unicode="&#x132;" horiz-adv-x="871" 
d="M11 0zM342 64q-1 -10 -1 -19v-17v-24t1 -23q-42 1 -83 1.5t-83 0.5t-82.5 -0.5t-82.5 -1.5q1 12 1.5 24t0.5 25v20t-2 20q16 -3 33 -3q50 0 68 31q5 8 8 20t4.5 36.5t2 66t0.5 110.5q0 57 -1 112.5t-5 110.5q-3 49 -7.5 80t-12 48t-19.5 23.5t-31 6.5h-7.5t-9.5 -2
q0 11 0.5 21t0.5 21v16t-1 17q38 -2 77.5 -5t77 -6t71 -5t59.5 -2q-1 -9 -1 -17v-16v-21t1 -21q-15 5 -26 5q-67 0 -67 -116q0 -22 1 -58.5t2 -81.5t3 -93.5t3 -93.5t2 -82t1 -58q0 -53 80 -53q15 0 24 3zM765 167q0 -43 -16.5 -80t-45.5 -64t-67.5 -42.5t-81.5 -15.5
q-41 0 -78.5 17.5t-65.5 47t-44.5 68t-16.5 79.5q0 45 22 72t60 27q88 0 88 -91q0 -38 -18 -58.5t-46 -20.5q-5 0 -13.5 2t-16.5 6q34 -43 74 -43q48 0 86.5 34t51.5 98l3.5 182t1.5 131q0 86 -13 126t-56 40h-12q1 17 1.5 29t0.5 23q0 14 -0.5 25t-2.5 23q40 -2 79.5 -3
t79.5 -1q36 0 72.5 1t72.5 3q-2 -7 -2 -15.5v-16.5v-21t2 -19q-7 0 -17.5 3t-17.5 3q-19 0 -31 -8t-19.5 -18.5t-10.5 -22.5t-3 -19v-481z" />
    <glyph glyph-name="ij" unicode="&#x133;" horiz-adv-x="514" 
d="M16 0zM134 566q-15 0 -28.5 7t-24 19t-16.5 28t-6 34q0 14 6.5 26t17.5 21t24.5 14t28.5 5q33 0 55 -22t22 -55q0 -15 -7 -29t-18.5 -24.5t-25.5 -17t-28 -6.5zM264 55q-1 -6 -1.5 -11.5t-0.5 -11.5q0 -7 0.5 -14t1.5 -14q-69 3 -138 3q-54 0 -108 -3q-1 8 -1.5 15
t-0.5 15q0 6 0.5 12.5t1.5 12.5q3 -1 16 -1q59 0 59 85q0 42 -1.5 75.5t-1.5 71.5q0 25 1 51t4 59q0 26 -18.5 39.5t-43.5 13.5q0 9 -0.5 18.5t-4.5 19.5q48 10 92 22t88 26q-6 -99 -9 -198t-3 -203q0 -42 12 -63.5t46 -21.5q4 0 10 2zM413 571q-15 0 -28.5 7t-24 19
t-16.5 28t-6 34q0 15 6.5 27t17.5 20.5t25 13.5t28 5q33 0 55 -22t22 -55q0 -15 -7 -28.5t-18 -24.5t-25 -17.5t-29 -6.5zM487 550q-2 -75 -3 -146.5t-1 -143.5q0 -78 1 -154t3 -151q0 -27 -12.5 -53.5t-34 -47t-50 -33.5t-59.5 -13q-27 0 -53 8t-46 23t-32 35.5t-12 45.5
q0 35 16 59.5t44 24.5q29 0 52 -15.5t23 -37.5q0 -35 -14.5 -53t-48.5 -18q-5 0 -10 0.5t-10 1.5q11 -14 28.5 -21t25.5 -7q19 0 32.5 10t22.5 25.5t14 34.5t6 37q3 60 5 123t2 127q0 55 -1.5 108.5t-5.5 104.5q-2 22 -22 31t-39 9q0 17 -1.5 25t-3.5 14q35 13 80 24.5
t104 22.5z" />
    <glyph glyph-name="Kcommaaccent" unicode="&#x136;" horiz-adv-x="623" 
d="M7 0zM323 -14q-80 6 -158 6q-80 0 -158 -6q2 11 2 33v57q103 0 103 116q0 8 -1.5 26t-3 38t-2.5 38.5t-1 26.5q0 5 0.5 11t1.5 11q10 75 14.5 144t4.5 135q0 26 -19 43t-45 17h-5.5t-5.5 -1q1 6 2 15.5t2 20.5t2 22.5t1 20.5q0 5 -0.5 8t-0.5 6q33 -2 66 -3t67 -1
q26 0 52.5 1t52.5 3q-1 -10 -1.5 -20t-0.5 -21q0 -12 0.5 -25t1.5 -26h-6q-22 0 -39.5 -15t-17.5 -30q0 -13 -0.5 -25.5t-0.5 -24.5q0 -30 1 -58t3 -54q35 35 74 81t81 104q3 6 3 13q0 11 -14.5 12.5t-27.5 1.5h-13q2 10 2 29q0 24 -3 66q33 -2 66 -2h65h66t66 2
q-1 -9 -1.5 -17.5t-0.5 -16.5q0 -10 0.5 -19.5t1.5 -18.5q-10 6 -34 6q-8 0 -28.5 -21t-51 -57.5t-68.5 -85t-81 -103.5q36 -9 69 -32.5t50 -61.5q7 -17 14 -54t13 -79t11 -83t10 -65q2 -8 5.5 -14t11.5 -6q10 0 15.5 15t8.5 34t3.5 37.5t0.5 26.5q0 4 21.5 6t47.5 2
q1 -14 1.5 -28.5t0.5 -28.5q0 -13 -0.5 -25.5t-1.5 -25.5q-1 -15 -10 -30t-22 -27t-29 -19.5t-32 -7.5q-117 0 -150 100q-10 42 -13.5 91t-9.5 96q-12 100 -82 100h-27q-2 -33 -3.5 -66t-1.5 -67q0 -31 1.5 -61.5t3.5 -62.5q1 -14 26.5 -24.5t54.5 -12.5v-90zM399 -110
q0 -15 -7.5 -31t-19.5 -29t-28 -21.5t-33 -8.5q-12 0 -33 3v32q4 0 7 -0.5t7 -0.5q45 0 45 23q0 6 -1 7q-8 -4 -19.5 -4.5t-16.5 -0.5q-23 0 -39.5 13t-16.5 33q0 26 26.5 42t68.5 16q26 0 43 -21.5t17 -51.5z" />
    <glyph glyph-name="kcommaaccent" unicode="&#x137;" horiz-adv-x="508" 
d="M18 0zM266 55q-1 -6 -1 -12v-13v-12.5t1 -13.5q-69 -3 -138 -3q-54 0 -108 3q-1 8 -1.5 16t-0.5 16q0 6 0.5 12t1.5 11q70 0 70 78q0 10 -1.5 18t-3 28t-2.5 57.5t-1 105.5q0 32 2 75t4.5 89t4.5 91t2 81q0 21 -16.5 34.5t-44.5 13.5q0 12 -1 21t-4 18q32 9 77 20.5
t107 26.5q-10 -49 -12 -101.5t-2 -124.5q0 -69 0.5 -139t0.5 -139q9 6 34.5 32.5t73.5 74.5q6 7 6 14q0 14 -29 14h-7q0 8 0.5 15.5t0.5 15.5t-0.5 16t-0.5 16q49 -3 100 -3q49 0 99 3q-1 -6 -1.5 -12.5t-0.5 -12.5q0 -8 0.5 -16t1.5 -16q-27 0 -57.5 -13t-59 -35
t-53.5 -51.5t-41 -62.5h8q41 0 72 -18t51.5 -46.5t31 -64.5t10.5 -71q0 -20 3 -26.5t11 -6.5t12.5 5.5t6.5 13.5t2.5 17.5t0.5 18.5v9.5t-1 9.5q5 1 9.5 1.5t9.5 0.5q7 0 13 -0.5t13 -1.5q1 -5 1 -11v-11q0 -44 -21.5 -75.5t-66.5 -31.5q-48 0 -69.5 17t-29.5 43.5t-9 59
t-8 63.5q-3 16 -13 28t-22 20t-24.5 12t-21.5 4q-37 0 -37 -58v-70q0 -34 16 -50.5t52 -16.5zM351 -110q0 -15 -7.5 -31t-19.5 -29t-28 -21.5t-33 -8.5q-12 0 -33 3v32q4 0 7 -0.5t7 -0.5q45 0 45 23q0 6 -1 7q-8 -4 -19.5 -4.5t-16.5 -0.5q-23 0 -39.5 13t-16.5 33
q0 26 26.5 42t68.5 16q26 0 43 -21.5t17 -51.5z" />
    <glyph glyph-name="Lacute" unicode="&#x139;" horiz-adv-x="541" 
d="M3 0zM503 -16q-125 3 -248 3q-125 0 -249 -3q-3 13 -3 29q0 15 1.5 30.5t2.5 32.5q104 0 104 116q0 8 -1.5 26t-3 38t-3 38.5t-1.5 26.5q0 18 3.5 35.5t7 48t7 81.5t3.5 136q0 28 -20 44t-55 16q2 21 3.5 41t1.5 50q63 17 115 17q11 0 33 -1.5t46 -4t46 -4t34 -1.5
q0 -6 0.5 -19t1.5 -28t2.5 -29t2.5 -22q-32 -9 -50.5 -15t-28 -19t-12.5 -36.5t-3 -66.5q0 -54 0.5 -106.5t0.5 -106.5q0 -22 -2 -37t-4 -38t-4 -62.5t-2 -111.5q33 -3 68 -3q42 0 86 3q16 1 32 8t30 18.5t25 27t18 33.5q8 -1 15 -1.5t14 -0.5q9 0 17.5 0.5t16.5 1.5
q-13 -44 -25 -89.5t-23 -95.5zM109 887q39 32 79 60t83 51q16 -16 25.5 -34.5t15.5 -38.5q-44 -11 -88 -30.5t-89 -44.5q-8 8 -14 17t-12 20z" />
    <glyph glyph-name="lacute" unicode="&#x13a;" horiz-adv-x="258" 
d="M10 4zM256 55q-2 -7 -2 -13v-13v-12.5t2 -12.5q-31 1 -61.5 1.5t-61.5 0.5t-61.5 -0.5t-61.5 -1.5q1 7 1.5 13.5t0.5 13.5q0 8 -0.5 14.5t-1.5 13.5q68 3 68 50q0 6 -1 16t-1 15q4 75 7 150t3 153q0 29 -1 59.5t-1 59.5q0 32 1.5 62.5t1.5 63.5q0 25 -17 38.5t-44 13.5
q0 16 -1.5 24.5t-5.5 15.5q32 9 77.5 20.5t107.5 26.5q0 -12 -2 -61t-8 -137q-5 -60 -7.5 -124.5t-2.5 -139.5q0 -69 1.5 -137.5t3.5 -139.5q0 -35 47 -35h9.5t10.5 2zM57 887q39 32 79 60t83 51q16 -16 25.5 -34.5t15.5 -38.5q-44 -11 -88 -30.5t-89 -44.5q-8 8 -14 17
t-12 20z" />
    <glyph glyph-name="Lcommaaccent" unicode="&#x13b;" horiz-adv-x="541" 
d="M3 0zM503 -16q-125 3 -248 3q-125 0 -249 -3q-3 13 -3 29q0 15 1.5 30.5t2.5 32.5q104 0 104 116q0 8 -1.5 26t-3 38t-3 38.5t-1.5 26.5q0 18 3.5 35.5t7 48t7 81.5t3.5 136q0 28 -20 44t-55 16q2 21 3.5 41t1.5 50q63 17 115 17q11 0 33 -1.5t46 -4t46 -4t34 -1.5
q0 -6 0.5 -19t1.5 -28t2.5 -29t2.5 -22q-32 -9 -50.5 -15t-28 -19t-12.5 -36.5t-3 -66.5q0 -54 0.5 -106.5t0.5 -106.5q0 -22 -2 -37t-4 -38t-4 -62.5t-2 -111.5q33 -3 68 -3q42 0 86 3q16 1 32 8t30 18.5t25 27t18 33.5q8 -1 15 -1.5t14 -0.5q9 0 17.5 0.5t16.5 1.5
q-13 -44 -25 -89.5t-23 -95.5zM348 -110q0 -15 -7.5 -31t-19.5 -29t-28 -21.5t-33 -8.5q-12 0 -33 3v32q4 0 7 -0.5t7 -0.5q45 0 45 23q0 6 -1 7q-8 -4 -19.5 -4.5t-16.5 -0.5q-23 0 -39.5 13t-16.5 33q0 26 26.5 42t68.5 16q26 0 43 -21.5t17 -51.5z" />
    <glyph glyph-name="lcommaaccent" unicode="&#x13c;" horiz-adv-x="258" 
d="M10 0zM256 55q-2 -7 -2 -13v-13v-12.5t2 -12.5q-31 1 -61.5 1.5t-61.5 0.5t-61.5 -0.5t-61.5 -1.5q1 7 1.5 13.5t0.5 13.5q0 8 -0.5 14.5t-1.5 13.5q68 3 68 50q0 6 -1 16t-1 15q4 75 7 150t3 153q0 29 -1 59.5t-1 59.5q0 32 1.5 62.5t1.5 63.5q0 25 -17 38.5t-44 13.5
q0 16 -1.5 24.5t-5.5 15.5q32 9 77.5 20.5t107.5 26.5q0 -12 -2 -61t-8 -137q-5 -60 -7.5 -124.5t-2.5 -139.5q0 -69 1.5 -137.5t3.5 -139.5q0 -35 47 -35h9.5t10.5 2zM206 -110q0 -15 -7.5 -31t-19.5 -29t-28 -21.5t-33 -8.5q-12 0 -33 3v32q4 0 7 -0.5t7 -0.5q45 0 45 23
q0 6 -1 7q-8 -4 -19.5 -4.5t-16.5 -0.5q-23 0 -39.5 13t-16.5 33q0 26 26.5 42t68.5 16q26 0 43 -21.5t17 -51.5z" />
    <glyph glyph-name="Lcaron" unicode="&#x13d;" horiz-adv-x="541" 
d="M3 0zM503 -16q-125 3 -248 3q-125 0 -249 -3q-3 13 -3 29q0 15 1.5 30.5t2.5 32.5q104 0 104 116q0 8 -1.5 26t-3 38t-3 38.5t-1.5 26.5q0 18 3.5 35.5t7 48t7 81.5t3.5 136q0 28 -20 44t-55 16q2 21 3.5 41t1.5 50q63 17 115 17q11 0 33 -1.5t46 -4t46 -4t34 -1.5
q0 -6 0.5 -19t1.5 -28t2.5 -29t2.5 -22q-32 -9 -50.5 -15t-28 -19t-12.5 -36.5t-3 -66.5q0 -54 0.5 -106.5t0.5 -106.5q0 -22 -2 -37t-4 -38t-4 -62.5t-2 -111.5q33 -3 68 -3q42 0 86 3q16 1 32 8t30 18.5t25 27t18 33.5q8 -1 15 -1.5t14 -0.5q9 0 17.5 0.5t16.5 1.5
q-13 -44 -25 -89.5t-23 -95.5zM531 749q0 -20 -8 -41t-22 -38.5t-33.5 -28.5t-43.5 -11h-10.5t-10.5 2v40q10 -2 15 -2q47 0 47 30q0 6 -1 8q-6 -4 -19 -5t-19 -1q-25 0 -42 19.5t-17 44.5q0 35 27.5 55.5t72.5 20.5q29 0 46.5 -27.5t17.5 -65.5z" />
    <glyph glyph-name="lcaron" unicode="&#x13e;" horiz-adv-x="406" 
d="M10 4zM256 55q-2 -7 -2 -13v-13v-12.5t2 -12.5q-31 1 -61.5 1.5t-61.5 0.5t-61.5 -0.5t-61.5 -1.5q1 7 1.5 13.5t0.5 13.5q0 8 -0.5 14.5t-1.5 13.5q68 3 68 50q0 6 -1 16t-1 15q4 75 7 150t3 153q0 29 -1 59.5t-1 59.5q0 32 1.5 62.5t1.5 63.5q0 25 -17 38.5t-44 13.5
q0 16 -1.5 24.5t-5.5 15.5q32 9 77.5 20.5t107.5 26.5q0 -12 -2 -61t-8 -137q-5 -60 -7.5 -124.5t-2.5 -139.5q0 -69 1.5 -137.5t3.5 -139.5q0 -35 47 -35h9.5t10.5 2zM406 749q0 -20 -8 -41t-22 -38.5t-33.5 -28.5t-43.5 -11h-10.5t-10.5 2v40q10 -2 15 -2q47 0 47 30
q0 6 -1 8q-6 -4 -19 -5t-19 -1q-25 0 -42 19.5t-17 44.5q0 35 27.5 55.5t72.5 20.5q29 0 46.5 -27.5t17.5 -65.5z" />
    <glyph glyph-name="Ldot" unicode="&#x13f;" horiz-adv-x="541" 
d="M3 0zM503 -16q-125 3 -248 3q-125 0 -249 -3q-3 13 -3 29q0 15 1.5 30.5t2.5 32.5q104 0 104 116q0 8 -1.5 26t-3 38t-3 38.5t-1.5 26.5q0 18 3.5 35.5t7 48t7 81.5t3.5 136q0 28 -20 44t-55 16q2 21 3.5 41t1.5 50q63 17 115 17q11 0 33 -1.5t46 -4t46 -4t34 -1.5
q0 -6 0.5 -19t1.5 -28t2.5 -29t2.5 -22q-32 -9 -50.5 -15t-28 -19t-12.5 -36.5t-3 -66.5q0 -54 0.5 -106.5t0.5 -106.5q0 -22 -2 -37t-4 -38t-4 -62.5t-2 -111.5q33 -3 68 -3q42 0 86 3q16 1 32 8t30 18.5t25 27t18 33.5q8 -1 15 -1.5t14 -0.5q9 0 17.5 0.5t16.5 1.5
q-13 -44 -25 -89.5t-23 -95.5zM333 317q-26 0 -46 22t-20 52q0 24 20.5 39.5t46.5 15.5q29 0 48.5 -18.5t19.5 -45.5q0 -13 -6 -24.5t-16 -20.5t-22.5 -14.5t-24.5 -5.5z" />
    <glyph glyph-name="ldot" unicode="&#x140;" horiz-adv-x="354" 
d="M10 4zM256 55q-2 -7 -2 -13v-13v-12.5t2 -12.5q-31 1 -61.5 1.5t-61.5 0.5t-61.5 -0.5t-61.5 -1.5q1 7 1.5 13.5t0.5 13.5q0 8 -0.5 14.5t-1.5 13.5q68 3 68 50q0 6 -1 16t-1 15q4 75 7 150t3 153q0 29 -1 59.5t-1 59.5q0 32 1.5 62.5t1.5 63.5q0 25 -17 38.5t-44 13.5
q0 16 -1.5 24.5t-5.5 15.5q32 9 77.5 20.5t107.5 26.5q0 -12 -2 -61t-8 -137q-5 -60 -7.5 -124.5t-2.5 -139.5q0 -69 1.5 -137.5t3.5 -139.5q0 -35 47 -35h9.5t10.5 2zM285 364q-26 0 -46 22t-20 52q0 24 20.5 39.5t46.5 15.5q29 0 48.5 -18.5t19.5 -45.5q0 -13 -6 -24.5
t-16 -20.5t-22.5 -14.5t-24.5 -5.5z" />
    <glyph glyph-name="Lslash" unicode="&#x141;" horiz-adv-x="550" 
d="M503 -16q-125 3 -248 3q-125 0 -249 -3q-3 13 -3 29q0 15 1.5 30.5t2.5 32.5q104 0 104 116q0 8 -1.5 26t-3 38t-3 38.5t-1.5 26.5v1l-43 -21q-2 4 -8.5 12t-13.5 17.5t-13.5 18.5t-9.5 16q19 9 45.5 22t57.5 30q0 18 1 38t2 44.5t2 54.5t1 68q0 28 -20 44t-55 16
q2 21 3.5 41t1.5 50q63 17 115 17q11 0 33 -1.5t46 -4t46 -4t34 -1.5q0 -6 0.5 -19t1.5 -28t2.5 -29t2.5 -22q-31 0 -49.5 -9.5t-28.5 -26.5t-13 -40.5t-3 -52.5q0 -16 0.5 -32t0.5 -32q14 5 25 11.5t22 13.5q7 -13 17.5 -30.5t26.5 -40.5q-23 -9 -45.5 -20.5t-45.5 -26.5
v-64q0 -22 -2 -37t-4 -38t-4 -62.5t-2 -111.5q33 -3 68 -3q42 0 86 3q16 1 32 8t30 18.5t25 27t18 33.5q8 -1 15 -1.5t14 -0.5q9 0 17.5 0.5t16.5 1.5q-13 -44 -25 -89.5t-23 -95.5z" />
    <glyph glyph-name="lslash" unicode="&#x142;" horiz-adv-x="318" 
d="M280 55q-2 -7 -2 -13v-13v-12.5t2 -12.5q-31 1 -61.5 1.5t-61.5 0.5t-61.5 -0.5t-61.5 -1.5q1 7 1.5 13.5t0.5 13.5q0 8 -0.5 14.5t-1.5 13.5q68 3 68 50q0 6 -1 16t-1 15q2 51 4.5 101.5t4.5 102.5l-64 -32q-2 4 -8 12.5t-13.5 17.5t-14 18.5t-9.5 16.5q19 8 44.5 22.5
t65.5 34.5q0 36 -1 67.5t-1 60.5q0 32 1.5 62.5t1.5 63.5q0 25 -17 38.5t-44 13.5q0 16 -1.5 24.5t-5.5 15.5q32 9 77.5 20.5t107.5 26.5q0 -79 -7 -160t-11 -177q29 10 64 34q18 -43 44 -70q-29 -11 -56.5 -24.5t-53.5 -33.5v-31q0 -69 2.5 -137.5t2.5 -139.5q0 -35 47 -35
h9.5t10.5 2z" />
    <glyph glyph-name="Nacute" unicode="&#x143;" horiz-adv-x="656" 
d="M9 0zM255 -11q-68 3 -137 3q-54 0 -109 -3q1 10 1 31v56q103 0 103 116q0 8 -1.5 26t-3 38t-2.5 38.5t-1 26.5v11t1 11q11 75 15.5 144.5t4.5 134.5q0 28 -19 44t-47 16h-10q4 25 5.5 47.5t1.5 44.5q38 5 65.5 8t44.5 3q14 0 29 -0.5t34 -1.5q83 -159 147.5 -291.5
t113.5 -245.5q1 51 1.5 101.5t0.5 102.5v103.5t-2 105.5q-1 26 -17 44.5t-60 18.5q1 8 1.5 15.5t0.5 15.5q0 7 -0.5 14t-1.5 15q33 1 65.5 1.5t65.5 0.5q27 0 54 -0.5t54 -1.5q-1 -8 -1 -14v-12v-14.5t1 -13.5q-19 2 -30.5 3.5t-16.5 1.5q-15 0 -25 -8.5t-16 -21t-8.5 -26
t-2.5 -23.5q0 -168 5 -331t6 -327q-8 -3 -26.5 -5.5t-30.5 -2.5q-4 0 -23.5 30t-48 78.5t-62.5 110t-67.5 125t-63.5 122.5t-49 103l-10 -206t-5 -218q0 -11 4.5 -23.5t13 -23t19.5 -17.5t24 -7q3 0 6 0.5t8 1.5q3 -9 3 -24q0 -9 -1 -25.5t-1 -25.5zM276 887q39 32 79 60
t83 51q16 -16 25.5 -34.5t15.5 -38.5q-44 -11 -88 -30.5t-89 -44.5q-8 8 -14 17t-12 20z" />
    <glyph glyph-name="nacute" unicode="&#x144;" horiz-adv-x="509" 
d="M14 3zM260 4q-34 1 -67.5 1.5t-67.5 0.5q-28 0 -55.5 -0.5t-55.5 -1.5q0 6 0.5 12.5t0.5 14.5q0 7 -0.5 13.5t-0.5 14.5q9 1 21 2.5t22 6.5t17 15t7 29q0 6 -1 17.5t-1.5 24t-1.5 24t-1 17.5q0 17 2.5 51t5 69.5t5 64t2.5 33.5q0 14 -18 27t-44 13v9q0 11 -1.5 18
t-3.5 12q31 9 76.5 20.5t108.5 26.5q-1 -8 -2.5 -18.5t-1.5 -21.5q0 -13 3 -22q36 47 76 47q22 0 47.5 -18.5t47.5 -46t37 -58t15 -54.5v-219q0 -26 4.5 -45t15.5 -19q8 0 13.5 9.5t5.5 20.5q0 5 -1 14.5t-1 14.5v9q10 -3 23 -3q11 0 23 3v-44q0 -36 -26 -60.5t-62 -24.5
q-104 0 -104 97v204q0 28 -6 55t-17 47.5t-26 33t-33 12.5q-16 0 -28.5 -13.5t-12.5 -29.5q-6 -273 -6 -280q0 -76 55 -76q9 0 12 2q-1 -8 -1 -14.5v-13.5v-12t1 -11zM183 615q39 32 79 60t83 51q16 -16 25.5 -34.5t15.5 -38.5q-44 -11 -88 -30.5t-89 -44.5q-8 8 -14 17
t-12 20z" />
    <glyph glyph-name="Ncommaaccent" unicode="&#x145;" horiz-adv-x="656" 
d="M9 0zM255 -11q-68 3 -137 3q-54 0 -109 -3q1 10 1 31v56q103 0 103 116q0 8 -1.5 26t-3 38t-2.5 38.5t-1 26.5v11t1 11q11 75 15.5 144.5t4.5 134.5q0 28 -19 44t-47 16h-10q4 25 5.5 47.5t1.5 44.5q38 5 65.5 8t44.5 3q14 0 29 -0.5t34 -1.5q83 -159 147.5 -291.5
t113.5 -245.5q1 51 1.5 101.5t0.5 102.5v103.5t-2 105.5q-1 26 -17 44.5t-60 18.5q1 8 1.5 15.5t0.5 15.5q0 7 -0.5 14t-1.5 15q33 1 65.5 1.5t65.5 0.5q27 0 54 -0.5t54 -1.5q-1 -8 -1 -14v-12v-14.5t1 -13.5q-19 2 -30.5 3.5t-16.5 1.5q-15 0 -25 -8.5t-16 -21t-8.5 -26
t-2.5 -23.5q0 -168 5 -331t6 -327q-8 -3 -26.5 -5.5t-30.5 -2.5q-4 0 -23.5 30t-48 78.5t-62.5 110t-67.5 125t-63.5 122.5t-49 103l-10 -206t-5 -218q0 -11 4.5 -23.5t13 -23t19.5 -17.5t24 -7q3 0 6 0.5t8 1.5q3 -9 3 -24q0 -9 -1 -25.5t-1 -25.5zM415 -110
q0 -15 -7.5 -31t-19.5 -29t-28 -21.5t-33 -8.5q-12 0 -33 3v32q4 0 7 -0.5t7 -0.5q45 0 45 23q0 6 -1 7q-8 -4 -19.5 -4.5t-16.5 -0.5q-23 0 -39.5 13t-16.5 33q0 26 26.5 42t68.5 16q26 0 43 -21.5t17 -51.5z" />
    <glyph glyph-name="ncommaaccent" unicode="&#x146;" horiz-adv-x="509" 
d="M14 0zM260 4q-34 1 -67.5 1.5t-67.5 0.5q-28 0 -55.5 -0.5t-55.5 -1.5q0 6 0.5 12.5t0.5 14.5q0 7 -0.5 13.5t-0.5 14.5q9 1 21 2.5t22 6.5t17 15t7 29q0 6 -1 17.5t-1.5 24t-1.5 24t-1 17.5q0 17 2.5 51t5 69.5t5 64t2.5 33.5q0 14 -18 27t-44 13v9q0 11 -1.5 18
t-3.5 12q31 9 76.5 20.5t108.5 26.5q-1 -8 -2.5 -18.5t-1.5 -21.5q0 -13 3 -22q36 47 76 47q22 0 47.5 -18.5t47.5 -46t37 -58t15 -54.5v-219q0 -26 4.5 -45t15.5 -19q8 0 13.5 9.5t5.5 20.5q0 5 -1 14.5t-1 14.5v9q10 -3 23 -3q11 0 23 3v-44q0 -36 -26 -60.5t-62 -24.5
q-104 0 -104 97v204q0 28 -6 55t-17 47.5t-26 33t-33 12.5q-16 0 -28.5 -13.5t-12.5 -29.5q-6 -273 -6 -280q0 -76 55 -76q9 0 12 2q-1 -8 -1 -14.5v-13.5v-12t1 -11zM352 -110q0 -15 -7.5 -31t-19.5 -29t-28 -21.5t-33 -8.5q-12 0 -33 3v32q4 0 7 -0.5t7 -0.5q45 0 45 23
q0 6 -1 7q-8 -4 -19.5 -4.5t-16.5 -0.5q-23 0 -39.5 13t-16.5 33q0 26 26.5 42t68.5 16q26 0 43 -21.5t17 -51.5z" />
    <glyph glyph-name="Ncaron" unicode="&#x147;" horiz-adv-x="656" 
d="M9 0zM255 -11q-68 3 -137 3q-54 0 -109 -3q1 10 1 31v56q103 0 103 116q0 8 -1.5 26t-3 38t-2.5 38.5t-1 26.5v11t1 11q11 75 15.5 144.5t4.5 134.5q0 28 -19 44t-47 16h-10q4 25 5.5 47.5t1.5 44.5q38 5 65.5 8t44.5 3q14 0 29 -0.5t34 -1.5q83 -159 147.5 -291.5
t113.5 -245.5q1 51 1.5 101.5t0.5 102.5v103.5t-2 105.5q-1 26 -17 44.5t-60 18.5q1 8 1.5 15.5t0.5 15.5q0 7 -0.5 14t-1.5 15q33 1 65.5 1.5t65.5 0.5q27 0 54 -0.5t54 -1.5q-1 -8 -1 -14v-12v-14.5t1 -13.5q-19 2 -30.5 3.5t-16.5 1.5q-15 0 -25 -8.5t-16 -21t-8.5 -26
t-2.5 -23.5q0 -168 5 -331t6 -327q-8 -3 -26.5 -5.5t-30.5 -2.5q-4 0 -23.5 30t-48 78.5t-62.5 110t-67.5 125t-63.5 122.5t-49 103l-10 -206t-5 -218q0 -11 4.5 -23.5t13 -23t19.5 -17.5t24 -7q3 0 6 0.5t8 1.5q3 -9 3 -24q0 -9 -1 -25.5t-1 -25.5zM398 850
q-31 6 -57.5 10.5t-49.5 4.5q-44 47 -70 81t-34 52h103q2 -6 9 -19t15.5 -27t17 -26.5t13.5 -17.5q18 35 29.5 60.5t13.5 25.5q17 0 41 -1.5t59 -7.5z" />
    <glyph glyph-name="ncaron" unicode="&#x148;" horiz-adv-x="509" 
d="M14 3zM260 4q-34 1 -67.5 1.5t-67.5 0.5q-28 0 -55.5 -0.5t-55.5 -1.5q0 6 0.5 12.5t0.5 14.5q0 7 -0.5 13.5t-0.5 14.5q9 1 21 2.5t22 6.5t17 15t7 29q0 6 -1 17.5t-1.5 24t-1.5 24t-1 17.5q0 17 2.5 51t5 69.5t5 64t2.5 33.5q0 14 -18 27t-44 13v9q0 11 -1.5 18
t-3.5 12q31 9 76.5 20.5t108.5 26.5q-1 -8 -2.5 -18.5t-1.5 -21.5q0 -13 3 -22q36 47 76 47q22 0 47.5 -18.5t47.5 -46t37 -58t15 -54.5v-219q0 -26 4.5 -45t15.5 -19q8 0 13.5 9.5t5.5 20.5q0 5 -1 14.5t-1 14.5v9q10 -3 23 -3q11 0 23 3v-44q0 -36 -26 -60.5t-62 -24.5
q-104 0 -104 97v204q0 28 -6 55t-17 47.5t-26 33t-33 12.5q-16 0 -28.5 -13.5t-12.5 -29.5q-6 -273 -6 -280q0 -76 55 -76q9 0 12 2q-1 -8 -1 -14.5v-13.5v-12t1 -11zM315 578q-31 6 -57.5 10.5t-49.5 4.5q-44 47 -70 81t-34 52h103q2 -6 9 -19t15.5 -27t17 -26.5
t13.5 -17.5q18 35 29.5 60.5t13.5 25.5q17 0 41 -1.5t59 -7.5z" />
    <glyph glyph-name="Eng" unicode="&#x14a;" horiz-adv-x="656" 
d="M371 -146q29 0 49.5 12t33 32t18.5 45t6 51q0 11 -1 21t-3 20q-19 31 -43 73.5t-50.5 90t-54 97.5t-52 97.5t-45.5 90t-35 73.5l-10 -206t-5 -218q0 -11 4.5 -23.5t13 -23t19.5 -17.5t24 -7q3 0 6 0.5t8 1.5q3 -9 3 -24q0 -9 -1 -25.5t-1 -25.5q-68 3 -137 3
q-54 0 -109 -3q1 10 1 31v56q103 0 103 116q0 8 -1.5 26t-3 38t-2.5 38.5t-1 26.5v11t1 11q11 75 15.5 144.5t4.5 134.5q0 28 -19 44t-47 16h-10q4 25 5.5 47.5t1.5 44.5q38 5 65.5 8t44.5 3q14 0 29 -0.5t34 -1.5q83 -159 147.5 -291.5t113.5 -245.5q1 51 1.5 101.5
t0.5 102.5v103.5t-2 105.5q-1 26 -17 44.5t-60 18.5q1 8 1.5 15.5t0.5 15.5q0 7 -0.5 14t-1.5 15q33 1 65.5 1.5t65.5 0.5q27 0 54 -0.5t54 -1.5q-1 -8 -1 -14v-12v-14.5t1 -13.5q-19 2 -30.5 3.5t-16.5 1.5q-15 0 -25 -8.5t-16 -21t-8.5 -26t-2.5 -23.5q0 -172 5 -343.5
t5 -355.5q0 -27 -12.5 -53.5t-34 -47t-50 -33.5t-59.5 -13q-27 0 -53 8t-46 23t-32 35.5t-12 45.5q0 35 16 59.5t44 24.5q29 0 52 -15.5t23 -37.5q0 -35 -14.5 -53t-48.5 -18q-5 0 -10 0.5t-10 1.5q11 -14 28.5 -21t25.5 -7z" />
    <glyph glyph-name="eng" unicode="&#x14b;" horiz-adv-x="466" 
d="M260 4q-34 1 -67.5 1.5t-67.5 0.5q-28 0 -55.5 -0.5t-55.5 -1.5q0 6 0.5 12.5t0.5 14.5q0 7 -0.5 13.5t-0.5 14.5q9 1 21 2.5t22 6.5t17 15t7 29q0 6 -1 17.5t-1.5 24t-1.5 24t-1 17.5q0 17 2.5 51t5 69.5t5 64t2.5 33.5q0 14 -18 27t-44 13v9q0 11 -1.5 18t-3.5 12
q31 9 76.5 20.5t108.5 26.5q-1 -8 -2.5 -18.5t-1.5 -21.5q0 -13 3 -22q36 47 76 47q22 0 47.5 -18.5t47.5 -46t37 -58t15 -54.5q0 -98 1 -196t1 -204q0 -27 -12.5 -53.5t-34 -47t-50 -33.5t-59.5 -13q-27 0 -52.5 5.5t-45 17t-31 29.5t-11.5 43q0 35 16 59.5t44 24.5
q29 0 52 -15.5t23 -37.5q0 -35 -14.5 -53t-48.5 -18q-5 0 -10 0.5t-10 1.5q6 -8 14 -10t16 -2q35 0 55.5 14t31.5 38.5t14 58.5t3 75v29t-0.5 45.5t-0.5 76.5v122q0 28 -6.5 55t-17.5 47.5t-26 33t-32 12.5q-16 0 -28.5 -13.5t-12.5 -29.5q-6 -273 -6 -280q0 -76 55 -76
q9 0 12 2q-1 -8 -1 -14.5v-13.5v-12t1 -11z" />
    <glyph glyph-name="Omacron" unicode="&#x14c;" horiz-adv-x="525" 
d="M12 0zM259 -35q-57 0 -102.5 29t-77.5 82t-49.5 126t-17.5 162q0 97 17.5 175t50.5 133t81.5 84t110.5 29q59 0 104.5 -26.5t76.5 -76.5t47 -122t16 -164q0 -100 -17 -180t-50 -135.5t-81 -85.5t-109 -30zM259 71q21 0 39 26t31.5 67.5t21 93t7.5 103.5q0 59 -7 119
t-19 108.5t-29 79t-36 30.5q-97 0 -97 -292q0 -335 89 -335zM137 891q0 7 -4.5 24.5t-4.5 33.5q18 0 54.5 0.5t76.5 1.5t77 1.5t55 0.5l5 -62h-259z" />
    <glyph glyph-name="omacron" unicode="&#x14d;" horiz-adv-x="391" 
d="M17 0zM189 -14q-172 0 -172 309q0 46 13.5 89.5t37 77.5t54.5 55t67 21q194 0 194 -275q0 -64 -13 -115t-38 -87t-61 -55.5t-82 -19.5zM193 33q93 0 93 208q0 51 -6 95t-15.5 76t-23 50.5t-28.5 18.5q-88 0 -88 -212q0 -236 68 -236zM70 619q0 7 -4.5 24.5t-4.5 33.5
q18 0 54.5 0.5t76.5 1.5t77 1.5t55 0.5l5 -62h-259z" />
    <glyph glyph-name="Obreve" unicode="&#x14e;" horiz-adv-x="525" 
d="M12 0zM259 -35q-57 0 -102.5 29t-77.5 82t-49.5 126t-17.5 162q0 97 17.5 175t50.5 133t81.5 84t110.5 29q59 0 104.5 -26.5t76.5 -76.5t47 -122t16 -164q0 -100 -17 -180t-50 -135.5t-81 -85.5t-109 -30zM259 71q21 0 39 26t31.5 67.5t21 93t7.5 103.5q0 59 -7 119
t-19 108.5t-29 79t-36 30.5q-97 0 -97 -292q0 -335 89 -335zM414 985q-14 -74 -51.5 -104.5t-103.5 -30.5q-38 0 -66 11.5t-46.5 30t-27.5 41.5t-9 47q0 9 3 18h103q-3 -14 -3 -23q0 -18 6 -30.5t14.5 -20.5t18 -12t16.5 -4q30 0 39.5 18t9.5 37q0 16 -3 31q17 0 41 -1.5
t59 -7.5z" />
    <glyph glyph-name="obreve" unicode="&#x14f;" horiz-adv-x="391" 
d="M17 0zM189 -14q-172 0 -172 309q0 46 13.5 89.5t37 77.5t54.5 55t67 21q194 0 194 -275q0 -64 -13 -115t-38 -87t-61 -55.5t-82 -19.5zM193 33q93 0 93 208q0 51 -6 95t-15.5 76t-23 50.5t-28.5 18.5q-88 0 -88 -212q0 -236 68 -236zM347 713q-14 -74 -51.5 -104.5
t-103.5 -30.5q-38 0 -66 11.5t-46.5 30t-27.5 41.5t-9 47q0 9 3 18h103q-3 -14 -3 -23q0 -18 6 -30.5t14.5 -20.5t18 -12t16.5 -4q30 0 39.5 18t9.5 37q0 16 -3 31q17 0 41 -1.5t59 -7.5z" />
    <glyph glyph-name="Ohungarumlaut" unicode="&#x150;" horiz-adv-x="525" 
d="M12 0zM259 -35q-57 0 -102.5 29t-77.5 82t-49.5 126t-17.5 162q0 97 17.5 175t50.5 133t81.5 84t110.5 29q59 0 104.5 -26.5t76.5 -76.5t47 -122t16 -164q0 -100 -17 -180t-50 -135.5t-81 -85.5t-109 -30zM259 71q21 0 39 26t31.5 67.5t21 93t7.5 103.5q0 59 -7 119
t-19 108.5t-29 79t-36 30.5q-97 0 -97 -292q0 -335 89 -335zM324 857q11 37 24 72t31 69q18 -2 33.5 -7t29.5 -13q-25 -28 -45 -60.5t-38 -67.5q-17 2 -35 7zM202 857q7 37 16 72t23 69q19 -2 35 -7t31 -13q-22 -28 -38.5 -60.5t-30.5 -67.5q-19 2 -36 7z" />
    <glyph glyph-name="ohungarumlaut" unicode="&#x151;" horiz-adv-x="391" 
d="M17 0zM189 -14q-172 0 -172 309q0 46 13.5 89.5t37 77.5t54.5 55t67 21q194 0 194 -275q0 -64 -13 -115t-38 -87t-61 -55.5t-82 -19.5zM193 33q93 0 93 208q0 51 -6 95t-15.5 76t-23 50.5t-28.5 18.5q-88 0 -88 -212q0 -236 68 -236zM257 585q11 37 24 72t31 69
q18 -2 33.5 -7t29.5 -13q-25 -28 -45 -60.5t-38 -67.5q-17 2 -35 7zM135 585q7 37 16 72t23 69q19 -2 35 -7t31 -13q-22 -28 -38.5 -60.5t-30.5 -67.5q-19 2 -36 7z" />
    <glyph glyph-name="OE" unicode="&#x152;" horiz-adv-x="789" 
d="M260 -35q-57 0 -102.5 29t-77.5 82t-49.5 126t-17.5 162q0 97 17.5 175t50.5 133t81.5 84t110.5 29q10 0 24 -0.5t28.5 -1.5t27.5 -3t22 -5q21 0 65 1t98.5 3t113 5t108.5 7v-163q-14 -5 -28.5 -6.5t-29.5 -1.5h-16.5t-16.5 1q-11 20 -19.5 44.5t-21.5 44.5h-115
q6 -97 9 -169t3 -124q15 -4 32 -4q20 0 36 4q5 23 10 44t8 41q16 3 34 3q17 0 35 -3q-8 -58 -13.5 -114t-6.5 -112q-7 2 -15 2h-16t-15.5 -0.5t-15.5 -1.5q-2 8 -4.5 25t-7.5 46q-15 4 -35 4q-19 0 -32 -4q-2 -42 -6.5 -100.5l-10.5 -136.5q26 -5 50.5 -7.5t46.5 -2.5
q19 0 31.5 7.5t20.5 20t11.5 29.5t5.5 36q24 6 50 6q24 0 50 -6q-2 -18 -2 -31v-29q0 -18 0.5 -45t2.5 -75q-62 3 -122 3q-72 0 -133.5 -3.5t-132.5 -9.5q-26 -18 -56 -28t-65 -10zM260 71q21 0 39 26t31.5 67.5t21 93t7.5 103.5q0 59 -7 119t-19.5 108.5t-29 79t-35.5 30.5
q-97 0 -97 -292q0 -335 89 -335z" />
    <glyph glyph-name="oe" unicode="&#x153;" horiz-adv-x="643" 
d="M620 281q-29 -2 -58.5 -3.5t-59.5 -1.5q-26 0 -52.5 1t-53.5 4q-1 -22 -2 -37t-1 -25q0 -174 76 -174q57 0 101 96q9 3 19 3q9 0 21 -3q-33 -148 -160 -148q-80 0 -122 64q-25 -34 -60 -52.5t-80 -18.5q-172 0 -172 309q0 46 13.5 89.5t37 77.5t54.5 55t67 21
q100 0 148 -73q50 59 129 59q78 0 121 -47.5t43 -128.5q0 -49 -9 -67zM399 345q36 -6 71 -6q32 0 62 6q1 6 1 12.5v11.5q0 115 -64 115q-13 0 -25.5 -11.5t-22.5 -28.5t-16 -36.5t-6 -36.5v-26zM192 33q93 0 93 208q0 51 -6 95t-16 76t-23 50.5t-28 18.5q-88 0 -88 -212
q0 -236 68 -236z" />
    <glyph glyph-name="Racute" unicode="&#x154;" horiz-adv-x="602" 
d="M9 0zM324 88q-1 -11 -1 -21.5v-21.5v-28t1 -28q-41 2 -81.5 3t-82.5 1q-38 0 -75.5 -1t-75.5 -3q1 9 1.5 19.5t0.5 24.5q0 9 -0.5 20t-0.5 23q103 0 103 116q0 8 -1.5 26t-3 38t-2.5 38.5t-1 26.5v11t1 11q11 75 15.5 144.5t4.5 134.5q0 28 -15 44t-61 16q4 25 5.5 47.5
t1.5 43.5q9 3 19 5t24 3.5t34.5 2.5t51.5 1q103 0 172.5 -10t111.5 -33t60 -59.5t18 -89.5q0 -32 -13.5 -64.5t-35.5 -60t-50.5 -48t-59.5 -29.5q32 -11 54 -25.5t35.5 -34t19.5 -44.5t6 -57q0 -8 -0.5 -23t-1 -32l-1 -34t-0.5 -30q0 -10 3.5 -17t10.5 -7q17 0 25.5 26
t8.5 86q13 -3 26 -3t25 3q6 -32 6 -64q0 -26 -5 -52.5t-17.5 -49t-35 -36.5t-56.5 -14q-40 0 -62 15t-33 40t-14 56.5t-4.5 65t-5 65t-15 56.5t-34.5 40t-64 15l-12 -1l-6 -70t-5.5 -63.5t-4 -47.5t-1.5 -21q0 -46 74 -46q16 0 19 1zM250 709q-3 -62 -3 -123q0 -79 3 -157
h42q46 0 71.5 40t25.5 102q0 138 -109 138h-30zM209 887q39 32 79 60t83 51q16 -16 25.5 -34.5t15.5 -38.5q-44 -11 -88 -30.5t-89 -44.5q-8 8 -14 17t-12 20z" />
    <glyph glyph-name="racute" unicode="&#x155;" horiz-adv-x="378" 
d="M10 4zM258 55q1 -6 1.5 -11.5t0.5 -11.5q0 -7 -0.5 -14t-1.5 -14q-32 2 -64.5 3t-64.5 1q-29 0 -58.5 -1t-58.5 -3q-1 8 -1.5 15t-0.5 15q0 6 0.5 12.5t1.5 12.5q45 9 58 21t13 24q2 39 3 78t1 77q0 35 -1 70.5t-3 70.5q-2 26 -18 39.5t-38 13.5q0 10 -1 20.5t-5 18.5
q32 11 73 22.5t96 24.5q-3 -25 -4 -49.5t-1 -52.5q8 21 20.5 38t26.5 29.5t28 19t26 6.5q49 0 75 -32.5t26 -81.5q0 -15 -4.5 -32t-13 -32t-20.5 -24.5t-27 -9.5q-35 0 -60.5 18t-25.5 53q0 24 13 41t40 17q5 0 12.5 -3t10.5 -3v2q0 30 -36 30q-89 0 -89 -201q0 -68 1 -111
t6.5 -67t17.5 -32.5t34 -8.5q10 0 12 2zM117 615q39 32 79 60t83 51q16 -16 25.5 -34.5t15.5 -38.5q-44 -11 -88 -30.5t-89 -44.5q-8 8 -14 17t-12 20z" />
    <glyph glyph-name="Rcommaaccent" unicode="&#x156;" horiz-adv-x="602" 
d="M9 0zM324 88q-1 -11 -1 -21.5v-21.5v-28t1 -28q-41 2 -81.5 3t-82.5 1q-38 0 -75.5 -1t-75.5 -3q1 9 1.5 19.5t0.5 24.5q0 9 -0.5 20t-0.5 23q103 0 103 116q0 8 -1.5 26t-3 38t-2.5 38.5t-1 26.5v11t1 11q11 75 15.5 144.5t4.5 134.5q0 28 -15 44t-61 16q4 25 5.5 47.5
t1.5 43.5q9 3 19 5t24 3.5t34.5 2.5t51.5 1q103 0 172.5 -10t111.5 -33t60 -59.5t18 -89.5q0 -32 -13.5 -64.5t-35.5 -60t-50.5 -48t-59.5 -29.5q32 -11 54 -25.5t35.5 -34t19.5 -44.5t6 -57q0 -8 -0.5 -23t-1 -32l-1 -34t-0.5 -30q0 -10 3.5 -17t10.5 -7q17 0 25.5 26
t8.5 86q13 -3 26 -3t25 3q6 -32 6 -64q0 -26 -5 -52.5t-17.5 -49t-35 -36.5t-56.5 -14q-40 0 -62 15t-33 40t-14 56.5t-4.5 65t-5 65t-15 56.5t-34.5 40t-64 15l-12 -1l-6 -70t-5.5 -63.5t-4 -47.5t-1.5 -21q0 -46 74 -46q16 0 19 1zM250 709q-3 -62 -3 -123q0 -79 3 -157
h42q46 0 71.5 40t25.5 102q0 138 -109 138h-30zM388 -110q0 -15 -7.5 -31t-19.5 -29t-28 -21.5t-33 -8.5q-12 0 -33 3v32q4 0 7 -0.5t7 -0.5q45 0 45 23q0 6 -1 7q-8 -4 -19.5 -4.5t-16.5 -0.5q-23 0 -39.5 13t-16.5 33q0 26 26.5 42t68.5 16q26 0 43 -21.5t17 -51.5z" />
    <glyph glyph-name="rcommaaccent" unicode="&#x157;" horiz-adv-x="378" 
d="M10 0zM258 55q1 -6 1.5 -11.5t0.5 -11.5q0 -7 -0.5 -14t-1.5 -14q-32 2 -64.5 3t-64.5 1q-29 0 -58.5 -1t-58.5 -3q-1 8 -1.5 15t-0.5 15q0 6 0.5 12.5t1.5 12.5q45 9 58 21t13 24q2 39 3 78t1 77q0 35 -1 70.5t-3 70.5q-2 26 -18 39.5t-38 13.5q0 10 -1 20.5t-5 18.5
q32 11 73 22.5t96 24.5q-3 -25 -4 -49.5t-1 -52.5q8 21 20.5 38t26.5 29.5t28 19t26 6.5q49 0 75 -32.5t26 -81.5q0 -15 -4.5 -32t-13 -32t-20.5 -24.5t-27 -9.5q-35 0 -60.5 18t-25.5 53q0 24 13 41t40 17q5 0 12.5 -3t10.5 -3v2q0 30 -36 30q-89 0 -89 -201q0 -68 1 -111
t6.5 -67t17.5 -32.5t34 -8.5q10 0 12 2zM216 -110q0 -15 -7.5 -31t-19.5 -29t-28 -21.5t-33 -8.5q-12 0 -33 3v32q4 0 7 -0.5t7 -0.5q45 0 45 23q0 6 -1 7q-8 -4 -19.5 -4.5t-16.5 -0.5q-23 0 -39.5 13t-16.5 33q0 26 26.5 42t68.5 16q26 0 43 -21.5t17 -51.5z" />
    <glyph glyph-name="Rcaron" unicode="&#x158;" horiz-adv-x="602" 
d="M9 0zM324 88q-1 -11 -1 -21.5v-21.5v-28t1 -28q-41 2 -81.5 3t-82.5 1q-38 0 -75.5 -1t-75.5 -3q1 9 1.5 19.5t0.5 24.5q0 9 -0.5 20t-0.5 23q103 0 103 116q0 8 -1.5 26t-3 38t-2.5 38.5t-1 26.5v11t1 11q11 75 15.5 144.5t4.5 134.5q0 28 -15 44t-61 16q4 25 5.5 47.5
t1.5 43.5q9 3 19 5t24 3.5t34.5 2.5t51.5 1q103 0 172.5 -10t111.5 -33t60 -59.5t18 -89.5q0 -32 -13.5 -64.5t-35.5 -60t-50.5 -48t-59.5 -29.5q32 -11 54 -25.5t35.5 -34t19.5 -44.5t6 -57q0 -8 -0.5 -23t-1 -32l-1 -34t-0.5 -30q0 -10 3.5 -17t10.5 -7q17 0 25.5 26
t8.5 86q13 -3 26 -3t25 3q6 -32 6 -64q0 -26 -5 -52.5t-17.5 -49t-35 -36.5t-56.5 -14q-40 0 -62 15t-33 40t-14 56.5t-4.5 65t-5 65t-15 56.5t-34.5 40t-64 15l-12 -1l-6 -70t-5.5 -63.5t-4 -47.5t-1.5 -21q0 -46 74 -46q16 0 19 1zM250 709q-3 -62 -3 -123q0 -79 3 -157
h42q46 0 71.5 40t25.5 102q0 138 -109 138h-30zM361 850q-31 6 -57.5 10.5t-49.5 4.5q-44 47 -70 81t-34 52h103q2 -6 9 -19t15.5 -27t17 -26.5t13.5 -17.5q18 35 29.5 60.5t13.5 25.5q17 0 41 -1.5t59 -7.5z" />
    <glyph glyph-name="rcaron" unicode="&#x159;" horiz-adv-x="378" 
d="M10 4zM258 55q1 -6 1.5 -11.5t0.5 -11.5q0 -7 -0.5 -14t-1.5 -14q-32 2 -64.5 3t-64.5 1q-29 0 -58.5 -1t-58.5 -3q-1 8 -1.5 15t-0.5 15q0 6 0.5 12.5t1.5 12.5q45 9 58 21t13 24q2 39 3 78t1 77q0 35 -1 70.5t-3 70.5q-2 26 -18 39.5t-38 13.5q0 10 -1 20.5t-5 18.5
q32 11 73 22.5t96 24.5q-3 -25 -4 -49.5t-1 -52.5q8 21 20.5 38t26.5 29.5t28 19t26 6.5q49 0 75 -32.5t26 -81.5q0 -15 -4.5 -32t-13 -32t-20.5 -24.5t-27 -9.5q-35 0 -60.5 18t-25.5 53q0 24 13 41t40 17q5 0 12.5 -3t10.5 -3v2q0 30 -36 30q-89 0 -89 -201q0 -68 1 -111
t6.5 -67t17.5 -32.5t34 -8.5q10 0 12 2zM249 578q-31 6 -57.5 10.5t-49.5 4.5q-44 47 -70 81t-34 52h103q2 -6 9 -19t15.5 -27t17 -26.5t13.5 -17.5q18 35 29.5 60.5t13.5 25.5q17 0 41 -1.5t59 -7.5z" />
    <glyph glyph-name="Sacute" unicode="&#x15a;" horiz-adv-x="508" 
d="M24 0zM210 17q81 4 115 34t34 96q0 36 -23.5 69t-60 65t-80.5 64t-84 66q-46 38 -66.5 87t-20.5 103q0 85 60.5 134.5t165.5 49.5q49 0 90.5 -10t71.5 -29t47 -46t17 -61q0 -15 -8.5 -29.5t-21 -26.5t-28 -19t-30.5 -7q-18 0 -37 6t-34.5 16.5t-25 24t-9.5 29.5
q0 26 15.5 43.5t44.5 17.5q-2 11 -12 21t-23.5 18t-29 13t-29.5 5q-18 0 -34 -8.5t-28 -22.5t-19.5 -31t-7.5 -35q0 -6 1.5 -18t5.5 -26t10.5 -28t15.5 -26q25 -31 55.5 -58t62 -52.5t62 -50.5t56.5 -52q59 -60 59 -141q0 -61 -20 -108.5t-56.5 -79.5t-87.5 -49t-114 -17
q-29 0 -61.5 14.5t-60 38.5t-45.5 53.5t-18 59.5q0 78 27 111t91 33q82 0 82 -81q0 -39 -22.5 -64t-60.5 -25q-11 0 -24.5 1.5t-24.5 7.5q11 -38 40.5 -59t77.5 -21zM182 887q39 32 79 60t83 51q16 -16 25.5 -34.5t15.5 -38.5q-44 -11 -88 -30.5t-89 -44.5q-8 8 -14 17
t-12 20z" />
    <glyph glyph-name="sacute" unicode="&#x15b;" horiz-adv-x="356" 
d="M9 0zM68 78q8 -47 100 -47q16 0 32 5.5t29 15.5t20.5 24t7.5 30q0 38 -56 77q-49 34 -74.5 52.5t-29.5 22.5q-57 52 -57 124q0 30 12 57.5t31.5 48t43.5 32.5t47 12q84 0 127 -36t43 -90q0 -32 -19 -56t-51 -24q-26 0 -45 20t-19 47q0 20 12 35.5t34 15.5q13 0 20.5 -3.5
t10.5 -6.5q1 3 1 8q0 8 -8.5 15t-22.5 12t-31.5 8t-35.5 3q-11 0 -24 -5.5t-24 -14.5t-18 -20t-7 -22q0 -20 5.5 -37t19 -33.5t36.5 -33.5t58 -37q25 -15 46 -28t36 -29t23 -35.5t8 -47.5t-8.5 -55.5t-26.5 -50t-44.5 -36.5t-62.5 -14q-91 0 -144.5 32t-53.5 93q0 32 19 56
t51 24q26 0 45 -19.5t19 -47.5q0 -20 -17 -35.5t-37 -15.5q-7 0 -13 4.5t-8 5.5zM106 615q39 32 79 60t83 51q16 -16 25.5 -34.5t15.5 -38.5q-44 -11 -88 -30.5t-89 -44.5q-8 8 -14 17t-12 20z" />
    <glyph glyph-name="Scedilla" unicode="&#x15e;" horiz-adv-x="508" 
d="M24 0zM210 37q81 4 115 34t34 96q0 36 -23.5 69t-60 65t-80.5 64t-84 66q-46 38 -66.5 87t-20.5 103q0 85 60.5 134.5t165.5 49.5q49 0 90.5 -10t71.5 -29t47 -46t17 -61q0 -15 -8.5 -29.5t-21 -26.5t-28 -19t-30.5 -7q-18 0 -37 6t-34.5 16.5t-25 24t-9.5 29.5
q0 26 15.5 43.5t44.5 17.5q-2 11 -12 21t-23.5 18t-29 13t-29.5 5q-18 0 -34 -8.5t-28 -22.5t-19.5 -31t-7.5 -35q0 -6 1.5 -18t5.5 -26t10.5 -28t15.5 -26q25 -31 55.5 -58t62 -52.5t62 -50.5t56.5 -52q59 -60 59 -141q0 -61 -20 -108.5t-56.5 -79.5t-87.5 -49t-114 -17
q-29 0 -61.5 14.5t-60 38.5t-45.5 53.5t-18 59.5q0 78 27 111t91 33q82 0 82 -81q0 -39 -22.5 -64t-60.5 -25q-11 0 -24.5 1.5t-24.5 7.5q11 -38 40.5 -59t77.5 -21zM331 -110q0 -15 -7.5 -31t-19.5 -29t-28 -21.5t-33 -8.5q-12 0 -33 3v32q4 0 7 -0.5t7 -0.5q45 0 45 23
q0 6 -1 7q-8 -4 -19.5 -4.5t-16.5 -0.5q-23 0 -39.5 13t-16.5 33q0 26 26.5 42t68.5 16q26 0 43 -21.5t17 -51.5z" />
    <glyph glyph-name="scedilla" unicode="&#x15f;" horiz-adv-x="356" 
d="M9 0zM68 78q8 -47 100 -47q16 0 32 5.5t29 15.5t20.5 24t7.5 30q0 38 -56 77q-49 34 -74.5 52.5t-29.5 22.5q-57 52 -57 124q0 30 12 57.5t31.5 48t43.5 32.5t47 12q84 0 127 -36t43 -90q0 -32 -19 -56t-51 -24q-26 0 -45 20t-19 47q0 20 12 35.5t34 15.5q13 0 20.5 -3.5
t10.5 -6.5q1 3 1 8q0 8 -8.5 15t-22.5 12t-31.5 8t-35.5 3q-11 0 -24 -5.5t-24 -14.5t-18 -20t-7 -22q0 -20 5.5 -37t19 -33.5t36.5 -33.5t58 -37q25 -15 46 -28t36 -29t23 -35.5t8 -47.5t-8.5 -55.5t-26.5 -50t-44.5 -36.5t-62.5 -14q-91 0 -144.5 32t-53.5 93q0 32 19 56
t51 24q26 0 45 -19.5t19 -47.5q0 -20 -17 -35.5t-37 -15.5q-7 0 -13 4.5t-8 5.5zM265 -110q0 -15 -7.5 -31t-19.5 -29t-28 -21.5t-33 -8.5q-12 0 -33 3v32q4 0 7 -0.5t7 -0.5q45 0 45 23q0 6 -1 7q-8 -4 -19.5 -4.5t-16.5 -0.5q-23 0 -39.5 13t-16.5 33q0 26 26.5 42
t68.5 16q26 0 43 -21.5t17 -51.5z" />
    <glyph glyph-name="Scaron" unicode="&#x160;" horiz-adv-x="508" 
d="M24 0zM210 17q81 4 115 34t34 96q0 36 -23.5 69t-60 65t-80.5 64t-84 66q-46 38 -66.5 87t-20.5 103q0 85 60.5 134.5t165.5 49.5q49 0 90.5 -10t71.5 -29t47 -46t17 -61q0 -15 -8.5 -29.5t-21 -26.5t-28 -19t-30.5 -7q-18 0 -37 6t-34.5 16.5t-25 24t-9.5 29.5
q0 26 15.5 43.5t44.5 17.5q-2 11 -12 21t-23.5 18t-29 13t-29.5 5q-18 0 -34 -8.5t-28 -22.5t-19.5 -31t-7.5 -35q0 -6 1.5 -18t5.5 -26t10.5 -28t15.5 -26q25 -31 55.5 -58t62 -52.5t62 -50.5t56.5 -52q59 -60 59 -141q0 -61 -20 -108.5t-56.5 -79.5t-87.5 -49t-114 -17
q-29 0 -61.5 14.5t-60 38.5t-45.5 53.5t-18 59.5q0 78 27 111t91 33q82 0 82 -81q0 -39 -22.5 -64t-60.5 -25q-11 0 -24.5 1.5t-24.5 7.5q11 -38 40.5 -59t77.5 -21zM304 850q-31 6 -57.5 10.5t-49.5 4.5q-44 47 -70 81t-34 52h103q2 -6 9 -19t15.5 -27t17 -26.5t13.5 -17.5
q18 35 29.5 60.5t13.5 25.5q17 0 41 -1.5t59 -7.5z" />
    <glyph glyph-name="scaron" unicode="&#x161;" horiz-adv-x="356" 
d="M9 0zM68 78q8 -47 100 -47q16 0 32 5.5t29 15.5t20.5 24t7.5 30q0 38 -56 77q-49 34 -74.5 52.5t-29.5 22.5q-57 52 -57 124q0 30 12 57.5t31.5 48t43.5 32.5t47 12q84 0 127 -36t43 -90q0 -32 -19 -56t-51 -24q-26 0 -45 20t-19 47q0 20 12 35.5t34 15.5q13 0 20.5 -3.5
t10.5 -6.5q1 3 1 8q0 8 -8.5 15t-22.5 12t-31.5 8t-35.5 3q-11 0 -24 -5.5t-24 -14.5t-18 -20t-7 -22q0 -20 5.5 -37t19 -33.5t36.5 -33.5t58 -37q25 -15 46 -28t36 -29t23 -35.5t8 -47.5t-8.5 -55.5t-26.5 -50t-44.5 -36.5t-62.5 -14q-91 0 -144.5 32t-53.5 93q0 32 19 56
t51 24q26 0 45 -19.5t19 -47.5q0 -20 -17 -35.5t-37 -15.5q-7 0 -13 4.5t-8 5.5zM238 578q-31 6 -57.5 10.5t-49.5 4.5q-44 47 -70 81t-34 52h103q2 -6 9 -19t15.5 -27t17 -26.5t13.5 -17.5q18 35 29.5 60.5t13.5 25.5q17 0 41 -1.5t59 -7.5z" />
    <glyph glyph-name="Tcommaaccent" unicode="&#x162;" horiz-adv-x="542" 
d="M0 0zM417 64q-1 -10 -1.5 -19.5t-0.5 -19.5q0 -12 0.5 -23.5t1.5 -23.5q-89 3 -176 3q-69 0 -138 -3q0 11 0.5 21t0.5 21t-0.5 22t-0.5 22q17 -5 26 -5q30 0 47.5 33t19.5 88q3 66 4 131t1 130t-1.5 129t-3.5 128h-44q-27 0 -42.5 -9t-24.5 -22.5t-13.5 -30t-9.5 -31.5
q-12 3 -26 5t-33 2q-6 0 -12.5 -0.5t-14.5 -0.5q6 17 19 60t35 114q55 -1 110 -1.5t110 -0.5q66 0 132.5 0.5t132.5 1.5q4 -28 11 -70t19 -98h-82q1 6 1.5 11t0.5 11q0 67 -87 67q-9 0 -29 -1t-30 -1q-3 -69 -4 -137.5t-1 -137.5q0 -81 1.5 -160.5t3.5 -160.5q0 -10 9 -18
t23.5 -14t31.5 -9t34 -3zM338 -110q0 -15 -7.5 -31t-19.5 -29t-28 -21.5t-33 -8.5q-12 0 -33 3v32q4 0 7 -0.5t7 -0.5q45 0 45 23q0 6 -1 7q-8 -4 -19.5 -4.5t-16.5 -0.5q-23 0 -39.5 13t-16.5 33q0 26 26.5 42t68.5 16q26 0 43 -21.5t17 -51.5z" />
    <glyph glyph-name="tcommaaccent" unicode="&#x163;" horiz-adv-x="251" 
d="M0 0zM171 447q-2 -46 -2 -91v-90t1 -89t1 -89q0 -26 18 -26q16 0 19 13t3 29q0 8 -0.5 14t-1.5 14q5 1 11 1.5t11 0.5q6 0 11.5 -0.5t11.5 -1.5q1 -7 1 -13v-13q0 -20 -3.5 -39t-13 -34.5t-25 -25t-39.5 -9.5q-38 0 -60.5 14.5t-34.5 39t-15.5 58t-3.5 71.5q0 63 1 129
t3 133q-11 4 -20.5 5t-19.5 1h-12.5t-14.5 -1q0 2 1 10t2 17t2.5 16t3.5 7q34 0 60 13t44 36t27.5 55t9.5 71q9 0 18.5 -0.5t17.5 -1.5q3 -36 3 -72q0 -46 -3 -86q11 -2 26 -4t35 -6q-1 -8 -1 -15.5v-14.5v-13.5t1 -12.5q-9 1 -18 1.5t-19 0.5q-9 0 -18 -0.5t-18 -1.5z
M223 -110q0 -15 -7.5 -31t-19.5 -29t-28 -21.5t-33 -8.5q-12 0 -33 3v32q4 0 7 -0.5t7 -0.5q45 0 45 23q0 6 -1 7q-8 -4 -19.5 -4.5t-16.5 -0.5q-23 0 -39.5 13t-16.5 33q0 26 26.5 42t68.5 16q26 0 43 -21.5t17 -51.5z" />
    <glyph glyph-name="Tcaron" unicode="&#x164;" horiz-adv-x="542" 
d="M0 0zM417 64q-1 -10 -1.5 -19.5t-0.5 -19.5q0 -12 0.5 -23.5t1.5 -23.5q-89 3 -176 3q-69 0 -138 -3q0 11 0.5 21t0.5 21t-0.5 22t-0.5 22q17 -5 26 -5q30 0 47.5 33t19.5 88q3 66 4 131t1 130t-1.5 129t-3.5 128h-44q-27 0 -42.5 -9t-24.5 -22.5t-13.5 -30t-9.5 -31.5
q-12 3 -26 5t-33 2q-6 0 -12.5 -0.5t-14.5 -0.5q6 17 19 60t35 114q55 -1 110 -1.5t110 -0.5q66 0 132.5 0.5t132.5 1.5q4 -28 11 -70t19 -98h-82q1 6 1.5 11t0.5 11q0 67 -87 67q-9 0 -29 -1t-30 -1q-3 -69 -4 -137.5t-1 -137.5q0 -81 1.5 -160.5t3.5 -160.5q0 -10 9 -18
t23.5 -14t31.5 -9t34 -3zM321 850q-31 6 -57.5 10.5t-49.5 4.5q-44 47 -70 81t-34 52h103q2 -6 9 -19t15.5 -27t17 -26.5t13.5 -17.5q18 35 29.5 60.5t13.5 25.5q17 0 41 -1.5t59 -7.5z" />
    <glyph glyph-name="tcaron" unicode="&#x165;" horiz-adv-x="361" 
d="M0 0zM171 447q-2 -46 -2 -91v-90t1 -89t1 -89q0 -26 18 -26q16 0 19 13t3 29q0 8 -0.5 14t-1.5 14q5 1 11 1.5t11 0.5q6 0 11.5 -0.5t11.5 -1.5q1 -7 1 -13v-13q0 -20 -3.5 -39t-13 -34.5t-25 -25t-39.5 -9.5q-38 0 -60.5 14.5t-34.5 39t-15.5 58t-3.5 71.5q0 63 1 129
t3 133q-11 4 -20.5 5t-19.5 1h-12.5t-14.5 -1q0 2 1 10t2 17t2.5 16t3.5 7q34 0 60 13t44 36t27.5 55t9.5 71q9 0 18.5 -0.5t17.5 -1.5q3 -36 3 -72q0 -46 -3 -86q11 -2 26 -4t35 -6q-1 -8 -1 -15.5v-14.5v-13.5t1 -12.5q-9 1 -18 1.5t-19 0.5q-9 0 -18 -0.5t-18 -1.5z
M361 749q0 -20 -8 -41t-22 -38.5t-33.5 -28.5t-43.5 -11h-10.5t-10.5 2v40q10 -2 15 -2q47 0 47 30q0 6 -1 8q-6 -4 -19 -5t-19 -1q-25 0 -42 19.5t-17 44.5q0 35 27.5 55.5t72.5 20.5q29 0 46.5 -27.5t17.5 -65.5z" />
    <glyph glyph-name="Tbar" unicode="&#x166;" horiz-adv-x="542" 
d="M314 361q0 -64 1.5 -127t3.5 -126q0 -10 9 -18t23.5 -14t31.5 -9t34 -3q-1 -10 -1.5 -19.5t-0.5 -19.5q0 -12 0.5 -23.5t1.5 -23.5q-89 3 -176 3q-69 0 -138 -3q0 11 0.5 21t0.5 21t-0.5 22t-0.5 22q17 -5 26 -5q30 0 47.5 33t19.5 88q2 46 3 91l2 90h-125q0 7 -4.5 24.5
t-4.5 33.5h50.5t83.5 1v21q0 65 -1.5 129t-3.5 128h-44q-27 0 -42.5 -9t-24.5 -22.5t-13.5 -30t-9.5 -31.5q-12 3 -26 5t-33 2q-6 0 -12.5 -0.5t-14.5 -0.5q6 17 19 60t35 114q55 -1 110 -1.5t110 -0.5q66 0 132.5 0.5t132.5 1.5q4 -28 11 -70t19 -98h-82q1 6 1.5 11t0.5 11
q0 67 -87 67q-9 0 -29 -1t-30 -1q-3 -69 -4 -137.5t-1 -137.5v-7q47 0 84.5 0.5t51.5 0.5l5 -62h-141z" />
    <glyph glyph-name="tbar" unicode="&#x167;" horiz-adv-x="251" 
d="M250 261q-21 1 -41 1.5t-40 0.5q0 -45 1 -88t1 -87q0 -26 18 -26q16 0 19 13t3 29q0 8 -0.5 14t-1.5 14q5 1 11 1.5t11 0.5q6 0 11.5 -0.5t11.5 -1.5q1 -7 1 -13v-13q0 -20 -3.5 -39t-13 -34.5t-25 -25t-39.5 -9.5q-38 0 -60.5 14.5t-34.5 39t-15.5 58t-3.5 71.5v82
l-57 -2q-3 10 -5.5 28t-2.5 35h28t38 1q0 58 3 118q-11 4 -20.5 5t-19.5 1h-12.5t-14.5 -1q0 2 1 10t2 17t2.5 16t3.5 7q34 0 60 13t44 36t27.5 55t9.5 71q9 0 18.5 -0.5t17.5 -1.5q3 -36 3 -72q0 -46 -3 -86q11 -2 26 -4t35 -6q-1 -8 -1 -15.5v-14.5v-13.5t1 -12.5
q-9 1 -18 1.5t-19 0.5q-9 0 -18 -0.5t-18 -1.5q-2 -30 -2 -60v-59q24 0 44 0.5t32 0.5q-1 -5 -1 -10v-10q0 -12 1 -24t5 -24z" />
    <glyph glyph-name="Utilde" unicode="&#x168;" horiz-adv-x="557" 
d="M11 0zM184 322q0 -240 101 -240q24 0 39.5 18t25.5 45.5t14.5 60.5t5.5 62q2 54 3 106t1 105q0 41 -0.5 80.5t-1.5 79.5q-1 29 -11 38.5t-40 9.5q3 27 3 54q0 20 -3 41q29 -2 57.5 -3t57.5 -1q32 0 62.5 1t61.5 3v-72q-7 0 -18 3t-17 3q-9 0 -20.5 -5t-21 -14t-16.5 -22
t-7 -30q0 -44 4 -90t4 -105q0 -48 -0.5 -96t-0.5 -97q0 -32 -1 -58t-6 -50t-16 -47t-31 -50q-29 -38 -64 -59.5t-67 -21.5q-50 0 -90.5 28.5t-69.5 78.5t-44.5 118t-15.5 147q0 24 3.5 66.5t8 86.5t8.5 80.5t4 49.5q0 23 -20.5 39.5t-43.5 16.5q-9 0 -11 -1q0 7 1 20
t1.5 26.5t1.5 26.5t1 20q28 0 89.5 3t155.5 8q-1 -11 -1.5 -22t-0.5 -22q0 -14 0.5 -27t1.5 -27q-78 -14 -78 -199q0 -6 0.5 -18t0.5 -26t0.5 -26.5t0.5 -18.5v-8.5t-0.5 -13t-0.5 -21.5v-34zM115 877q0 23 6.5 43.5t21 35.5t38 23.5t57.5 8.5q22 0 40.5 -11.5t33.5 -25
t27 -25t21 -11.5q16 0 28.5 16t19.5 48l34 -4q0 -26 -4.5 -46.5t-16.5 -35t-33 -22.5t-53 -8q-25 0 -45.5 10.5t-36.5 23t-28.5 23t-21.5 10.5q-48 0 -55 -59z" />
    <glyph glyph-name="utilde" unicode="&#x169;" horiz-adv-x="448" 
d="M0 0zM65 125q-6 54 -6 107q0 32 3 64t3 65q0 27 -20 44t-46 17q1 7 2 18t2 27q42 9 81.5 20.5t77.5 26.5q-2 -102 -3 -175t-1 -119q0 -53 5 -87t14 -53.5t22.5 -27t30.5 -7.5q65 0 65 128v150q0 59 -16 84t-48 25q-1 5 -1.5 10.5t-0.5 11.5q0 5 0.5 9t1.5 9
q36 11 78 22.5t90 24.5q1 -61 1 -109v-86q0 -51 -0.5 -81.5t-1 -49.5t-1 -30.5t-0.5 -25.5q0 -69 53 -93q0 -8 -0.5 -18t-3 -18.5t-7.5 -14.5t-13 -6q-26 0 -51 18t-35 44q-54 -56 -126 -56q-29 0 -56 9.5t-47.5 26.5t-33 41.5t-12.5 54.5zM60 605q0 23 6.5 43.5t21 35.5
t38 23.5t57.5 8.5q22 0 40.5 -11.5t33.5 -25t27 -25t21 -11.5q16 0 28.5 16t19.5 48l34 -4q0 -26 -4.5 -46.5t-16.5 -35t-33 -22.5t-53 -8q-25 0 -45.5 10.5t-36.5 23t-28.5 23t-21.5 10.5q-48 0 -55 -59z" />
    <glyph glyph-name="Umacron" unicode="&#x16a;" horiz-adv-x="557" 
d="M11 0zM184 322q0 -240 101 -240q24 0 39.5 18t25.5 45.5t14.5 60.5t5.5 62q2 54 3 106t1 105q0 41 -0.5 80.5t-1.5 79.5q-1 29 -11 38.5t-40 9.5q3 27 3 54q0 20 -3 41q29 -2 57.5 -3t57.5 -1q32 0 62.5 1t61.5 3v-72q-7 0 -18 3t-17 3q-9 0 -20.5 -5t-21 -14t-16.5 -22
t-7 -30q0 -44 4 -90t4 -105q0 -48 -0.5 -96t-0.5 -97q0 -32 -1 -58t-6 -50t-16 -47t-31 -50q-29 -38 -64 -59.5t-67 -21.5q-50 0 -90.5 28.5t-69.5 78.5t-44.5 118t-15.5 147q0 24 3.5 66.5t8 86.5t8.5 80.5t4 49.5q0 23 -20.5 39.5t-43.5 16.5q-9 0 -11 -1q0 7 1 20
t1.5 26.5t1.5 26.5t1 20q28 0 89.5 3t155.5 8q-1 -11 -1.5 -22t-0.5 -22q0 -14 0.5 -27t1.5 -27q-78 -14 -78 -199q0 -6 0.5 -18t0.5 -26t0.5 -26.5t0.5 -18.5v-8.5t-0.5 -13t-0.5 -21.5v-34zM153 891q0 7 -4.5 24.5t-4.5 33.5q18 0 54.5 0.5t76.5 1.5t77 1.5t55 0.5l5 -62
h-259z" />
    <glyph glyph-name="umacron" unicode="&#x16b;" horiz-adv-x="448" 
d="M0 0zM65 125q-6 54 -6 107q0 32 3 64t3 65q0 27 -20 44t-46 17q1 7 2 18t2 27q42 9 81.5 20.5t77.5 26.5q-2 -102 -3 -175t-1 -119q0 -53 5 -87t14 -53.5t22.5 -27t30.5 -7.5q65 0 65 128v150q0 59 -16 84t-48 25q-1 5 -1.5 10.5t-0.5 11.5q0 5 0.5 9t1.5 9
q36 11 78 22.5t90 24.5q1 -61 1 -109v-86q0 -51 -0.5 -81.5t-1 -49.5t-1 -30.5t-0.5 -25.5q0 -69 53 -93q0 -8 -0.5 -18t-3 -18.5t-7.5 -14.5t-13 -6q-26 0 -51 18t-35 44q-54 -56 -126 -56q-29 0 -56 9.5t-47.5 26.5t-33 41.5t-12.5 54.5zM99 619q0 7 -4.5 24.5t-4.5 33.5
q18 0 54.5 0.5t76.5 1.5t77 1.5t55 0.5l5 -62h-259z" />
    <glyph glyph-name="Ubreve" unicode="&#x16c;" horiz-adv-x="557" 
d="M11 0zM184 322q0 -240 101 -240q24 0 39.5 18t25.5 45.5t14.5 60.5t5.5 62q2 54 3 106t1 105q0 41 -0.5 80.5t-1.5 79.5q-1 29 -11 38.5t-40 9.5q3 27 3 54q0 20 -3 41q29 -2 57.5 -3t57.5 -1q32 0 62.5 1t61.5 3v-72q-7 0 -18 3t-17 3q-9 0 -20.5 -5t-21 -14t-16.5 -22
t-7 -30q0 -44 4 -90t4 -105q0 -48 -0.5 -96t-0.5 -97q0 -32 -1 -58t-6 -50t-16 -47t-31 -50q-29 -38 -64 -59.5t-67 -21.5q-50 0 -90.5 28.5t-69.5 78.5t-44.5 118t-15.5 147q0 24 3.5 66.5t8 86.5t8.5 80.5t4 49.5q0 23 -20.5 39.5t-43.5 16.5q-9 0 -11 -1q0 7 1 20
t1.5 26.5t1.5 26.5t1 20q28 0 89.5 3t155.5 8q-1 -11 -1.5 -22t-0.5 -22q0 -14 0.5 -27t1.5 -27q-78 -14 -78 -199q0 -6 0.5 -18t0.5 -26t0.5 -26.5t0.5 -18.5v-8.5t-0.5 -13t-0.5 -21.5v-34zM440 985q-14 -74 -51.5 -104.5t-103.5 -30.5q-38 0 -66 11.5t-46.5 30
t-27.5 41.5t-9 47q0 9 3 18h103q-3 -14 -3 -23q0 -18 6 -30.5t14.5 -20.5t18 -12t16.5 -4q30 0 39.5 18t9.5 37q0 16 -3 31q17 0 41 -1.5t59 -7.5z" />
    <glyph glyph-name="ubreve" unicode="&#x16d;" horiz-adv-x="448" 
d="M0 0zM65 125q-6 54 -6 107q0 32 3 64t3 65q0 27 -20 44t-46 17q1 7 2 18t2 27q42 9 81.5 20.5t77.5 26.5q-2 -102 -3 -175t-1 -119q0 -53 5 -87t14 -53.5t22.5 -27t30.5 -7.5q65 0 65 128v150q0 59 -16 84t-48 25q-1 5 -1.5 10.5t-0.5 11.5q0 5 0.5 9t1.5 9
q36 11 78 22.5t90 24.5q1 -61 1 -109v-86q0 -51 -0.5 -81.5t-1 -49.5t-1 -30.5t-0.5 -25.5q0 -69 53 -93q0 -8 -0.5 -18t-3 -18.5t-7.5 -14.5t-13 -6q-26 0 -51 18t-35 44q-54 -56 -126 -56q-29 0 -56 9.5t-47.5 26.5t-33 41.5t-12.5 54.5zM376 713q-14 -74 -51.5 -104.5
t-103.5 -30.5q-38 0 -66 11.5t-46.5 30t-27.5 41.5t-9 47q0 9 3 18h103q-3 -14 -3 -23q0 -18 6 -30.5t14.5 -20.5t18 -12t16.5 -4q30 0 39.5 18t9.5 37q0 16 -3 31q17 0 41 -1.5t59 -7.5z" />
    <glyph glyph-name="Uring" unicode="&#x16e;" horiz-adv-x="557" 
d="M11 0zM184 322q0 -240 101 -240q24 0 39.5 18t25.5 45.5t14.5 60.5t5.5 62q2 54 3 106t1 105q0 41 -0.5 80.5t-1.5 79.5q-1 29 -11 38.5t-40 9.5q3 27 3 54q0 20 -3 41q29 -2 57.5 -3t57.5 -1q32 0 62.5 1t61.5 3v-72q-7 0 -18 3t-17 3q-9 0 -20.5 -5t-21 -14t-16.5 -22
t-7 -30q0 -44 4 -90t4 -105q0 -48 -0.5 -96t-0.5 -97q0 -32 -1 -58t-6 -50t-16 -47t-31 -50q-29 -38 -64 -59.5t-67 -21.5q-50 0 -90.5 28.5t-69.5 78.5t-44.5 118t-15.5 147q0 24 3.5 66.5t8 86.5t8.5 80.5t4 49.5q0 23 -20.5 39.5t-43.5 16.5q-9 0 -11 -1q0 7 1 20
t1.5 26.5t1.5 26.5t1 20q28 0 89.5 3t155.5 8q-1 -11 -1.5 -22t-0.5 -22q0 -14 0.5 -27t1.5 -27q-78 -14 -78 -199q0 -6 0.5 -18t0.5 -26t0.5 -26.5t0.5 -18.5v-8.5t-0.5 -13t-0.5 -21.5v-34zM186 924q0 33 27.5 53.5t64.5 20.5q38 0 65.5 -20.5t27.5 -53.5
q0 -31 -27.5 -52.5t-65.5 -21.5q-37 0 -64.5 21.5t-27.5 52.5zM220 924q0 -20 17.5 -33t40.5 -13t41 13t18 33q0 21 -18 34t-41 13t-40.5 -13t-17.5 -34z" />
    <glyph glyph-name="uring" unicode="&#x16f;" horiz-adv-x="448" 
d="M0 0zM65 125q-6 54 -6 107q0 32 3 64t3 65q0 27 -20 44t-46 17q1 7 2 18t2 27q42 9 81.5 20.5t77.5 26.5q-2 -102 -3 -175t-1 -119q0 -53 5 -87t14 -53.5t22.5 -27t30.5 -7.5q65 0 65 128v150q0 59 -16 84t-48 25q-1 5 -1.5 10.5t-0.5 11.5q0 5 0.5 9t1.5 9
q36 11 78 22.5t90 24.5q1 -61 1 -109v-86q0 -51 -0.5 -81.5t-1 -49.5t-1 -30.5t-0.5 -25.5q0 -69 53 -93q0 -8 -0.5 -18t-3 -18.5t-7.5 -14.5t-13 -6q-26 0 -51 18t-35 44q-54 -56 -126 -56q-29 0 -56 9.5t-47.5 26.5t-33 41.5t-12.5 54.5zM131 652q0 33 27.5 53.5
t64.5 20.5q38 0 65.5 -20.5t27.5 -53.5q0 -31 -27.5 -52.5t-65.5 -21.5q-37 0 -64.5 21.5t-27.5 52.5zM165 652q0 -20 17.5 -33t40.5 -13t41 13t18 33q0 21 -18 34t-41 13t-40.5 -13t-17.5 -34z" />
    <glyph glyph-name="Uhungarumlaut" unicode="&#x170;" horiz-adv-x="557" 
d="M11 0zM184 322q0 -240 101 -240q24 0 39.5 18t25.5 45.5t14.5 60.5t5.5 62q2 54 3 106t1 105q0 41 -0.5 80.5t-1.5 79.5q-1 29 -11 38.5t-40 9.5q3 27 3 54q0 20 -3 41q29 -2 57.5 -3t57.5 -1q32 0 62.5 1t61.5 3v-72q-7 0 -18 3t-17 3q-9 0 -20.5 -5t-21 -14t-16.5 -22
t-7 -30q0 -44 4 -90t4 -105q0 -48 -0.5 -96t-0.5 -97q0 -32 -1 -58t-6 -50t-16 -47t-31 -50q-29 -38 -64 -59.5t-67 -21.5q-50 0 -90.5 28.5t-69.5 78.5t-44.5 118t-15.5 147q0 24 3.5 66.5t8 86.5t8.5 80.5t4 49.5q0 23 -20.5 39.5t-43.5 16.5q-9 0 -11 -1q0 7 1 20
t1.5 26.5t1.5 26.5t1 20q28 0 89.5 3t155.5 8q-1 -11 -1.5 -22t-0.5 -22q0 -14 0.5 -27t1.5 -27q-78 -14 -78 -199q0 -6 0.5 -18t0.5 -26t0.5 -26.5t0.5 -18.5v-8.5t-0.5 -13t-0.5 -21.5v-34zM340 857q11 37 24 72t31 69q18 -2 33.5 -7t29.5 -13q-25 -28 -45 -60.5
t-38 -67.5q-17 2 -35 7zM218 857q7 37 16 72t23 69q19 -2 35 -7t31 -13q-22 -28 -38.5 -60.5t-30.5 -67.5q-19 2 -36 7z" />
    <glyph glyph-name="uhungarumlaut" unicode="&#x171;" horiz-adv-x="448" 
d="M0 0zM65 125q-6 54 -6 107q0 32 3 64t3 65q0 27 -20 44t-46 17q1 7 2 18t2 27q42 9 81.5 20.5t77.5 26.5q-2 -102 -3 -175t-1 -119q0 -53 5 -87t14 -53.5t22.5 -27t30.5 -7.5q65 0 65 128v150q0 59 -16 84t-48 25q-1 5 -1.5 10.5t-0.5 11.5q0 5 0.5 9t1.5 9
q36 11 78 22.5t90 24.5q1 -61 1 -109v-86q0 -51 -0.5 -81.5t-1 -49.5t-1 -30.5t-0.5 -25.5q0 -69 53 -93q0 -8 -0.5 -18t-3 -18.5t-7.5 -14.5t-13 -6q-26 0 -51 18t-35 44q-54 -56 -126 -56q-29 0 -56 9.5t-47.5 26.5t-33 41.5t-12.5 54.5zM256 585q11 37 24 72t31 69
q18 -2 33.5 -7t29.5 -13q-25 -28 -45 -60.5t-38 -67.5q-17 2 -35 7zM134 585q7 37 16 72t23 69q19 -2 35 -7t31 -13q-22 -28 -38.5 -60.5t-30.5 -67.5q-19 2 -36 7z" />
    <glyph glyph-name="Uogonek" unicode="&#x172;" horiz-adv-x="557" 
d="M273 -200q-32 0 -52 20t-20 49q0 23 14.5 51.5t46.5 51.5q-46 6 -83 36.5t-63 80t-40 114.5t-14 140q0 24 3.5 66.5t8 86.5t8.5 80.5t4 49.5q0 23 -20.5 39.5t-43.5 16.5q-9 0 -11 -1q0 7 1 20t1.5 26.5t1.5 26.5t1 20q28 0 89.5 3t155.5 8q-1 -11 -1.5 -22t-0.5 -22
q0 -14 0.5 -27t1.5 -27q-78 -14 -78 -199q0 -6 0.5 -18t0.5 -26t0.5 -26.5t0.5 -18.5v-8.5t-0.5 -13t-0.5 -21.5v-34q0 -240 101 -240q24 0 39.5 18t25.5 45.5t14.5 60.5t5.5 62q2 54 3 106t1 105q0 41 -0.5 80.5t-1.5 79.5q-1 29 -11 38.5t-40 9.5q3 27 3 54q0 20 -3 41
q29 -2 57.5 -3t57.5 -1q32 0 62.5 1t61.5 3v-72q-7 0 -18 3t-17 3q-9 0 -20.5 -5t-21 -14t-16.5 -22t-7 -30q0 -44 4 -90t4 -105q0 -48 -0.5 -96t-0.5 -97q0 -32 -1 -58t-6 -50t-16 -47t-31 -50q-41 -54 -91 -73q-30 -23 -43.5 -44t-13.5 -34q0 -20 27 -20q17 0 34 4.5
t28 9.5q2 -11 2 -22.5v-22.5v-18t-1 -18q-17 -10 -38 -12t-44 -2z" />
    <glyph glyph-name="uogonek" unicode="&#x173;" horiz-adv-x="448" 
d="M360 -200q-32 0 -52 20t-20 49q0 15 5.5 32t18 34.5t32 33t47.5 27.5q-17 8 -31 22t-20 31q-54 -56 -126 -56q-29 0 -56 9.5t-47.5 26.5t-33 41.5t-12.5 54.5q-6 54 -6 107q0 32 3 64t3 65q0 27 -20 44t-46 17q1 7 2 18t2 27q42 9 81.5 20.5t77.5 26.5q-2 -102 -3 -175
t-1 -119q0 -53 5 -87t14 -53.5t22.5 -27t30.5 -7.5q65 0 65 128v150q0 59 -16 84t-48 25q-1 5 -1.5 10.5t-0.5 11.5q0 5 0.5 9t1.5 9q36 11 78 22.5t90 24.5q1 -61 1 -109v-86q0 -51 -0.5 -81.5t-1 -49.5t-1 -30.5t-0.5 -25.5q0 -69 53 -93q0 -8 -0.5 -18t-3 -18.5
t-7.5 -14.5t-13 -6q-41 -23 -57.5 -47.5t-16.5 -38.5q0 -20 27 -20q17 0 34 4.5t28 9.5q2 -11 2 -22.5v-22.5v-18t-1 -18q-17 -10 -38 -12t-44 -2z" />
    <glyph glyph-name="Wcircumflex" unicode="&#x174;" horiz-adv-x="892" 
d="M0 0zM360 -46q-9 0 -90 -6q-38 171 -62.5 272t-33.5 136q-45 166 -84.5 248t-64.5 82q-6 0 -15 -2t-13 -2q3 49 3 69q0 21 -3 32q35 -2 69.5 -3.5t67.5 -1.5q32 0 62 1.5t60 3.5q4 -19 4 -41q0 -13 -1 -25.5t-3 -24.5q-2 1 -8 1q-38 0 -38 -42q0 3 83 -273l35 -119
t25 -89l74 392q0 24 -8.5 46.5t-21.5 39.5t-28.5 27.5t-28.5 10.5q-5 0 -13.5 -1t-14.5 -3q2 25 3 41.5t1 27.5q0 23 -4 32q20 0 61.5 0.5t87 0.5t86.5 0.5t61 0.5v-63q-83 -24 -83 -63q0 -5 1 -10t3 -10q20 -56 46.5 -173t71.5 -296l92 500q0 6 -5.5 13.5t-14 14.5
t-17 12.5t-14.5 6.5q0 5 1.5 22.5t3.5 45.5q51 -3 102 -3t102 3v-63q-28 -5 -44.5 -14t-28.5 -34t-23.5 -73.5t-29.5 -133.5q-3 -16 -12 -56.5t-20.5 -93t-24.5 -111t-24 -110.5t-19.5 -90.5t-10.5 -51.5h-6q-9 0 -90 -6q-7 23 -15 62t-17.5 84.5t-19 94.5t-18 93.5
t-15.5 80t-11 54.5q-4 -18 -12 -53.5t-17.5 -79.5t-20 -92.5t-20.5 -93.5t-18.5 -83t-13.5 -61h-6zM405 998q31 -6 57.5 -10.5t49.5 -4.5q44 -47 70 -81t34 -52h-103q-2 6 -9 19t-15.5 27t-17 26.5t-13.5 17.5q-18 -35 -29.5 -60.5t-13.5 -25.5q-17 0 -41 1.5t-59 7.5z" />
    <glyph glyph-name="wcircumflex" unicode="&#x175;" horiz-adv-x="679" 
d="M5 0zM439 -5q-15 84 -33 157.5t-41 139.5q-25 -69 -50 -144.5t-51 -160.5q-7 1 -16.5 1.5t-23.5 0.5h-19.5t-22.5 -1q-6 19 -15.5 54t-21 77.5t-24 87.5t-23 85t-19 70.5t-11.5 43.5q-2 7 -9.5 12.5t-17 9.5t-19.5 6.5t-17 2.5q1 7 2 18.5t4 27.5q23 9 57 17.5l82 20.5
q20 -108 43.5 -213t50.5 -208q15 59 27 104.5t22 81t17.5 62.5t12.5 49q0 8 -5 17t-12.5 16.5t-16.5 12.5t-17 5q-9 0 -10 -1v41q45 12 78 21.5t56 16.5q20 -71 46 -173t59 -248l80 297q0 9 -5 18t-12.5 16.5t-17 12.5t-17.5 5q-9 0 -10 -1v40q43 9 84 21.5t81 27.5v-72
q-43 -107 -83.5 -225.5t-78.5 -249.5q-9 4 -32 4q-11 0 -23.5 -1t-27.5 -3zM299 726q31 -6 57.5 -10.5t49.5 -4.5q44 -47 70 -81t34 -52h-103q-2 6 -9 19t-15.5 27t-17 26.5t-13.5 17.5q-18 -35 -29.5 -60.5t-13.5 -25.5q-17 0 -41 1.5t-59 7.5z" />
    <glyph glyph-name="Ycircumflex" unicode="&#x176;" horiz-adv-x="612" 
d="M0 0zM180 76q2 -1 11 -1q54 0 54 107v7t-2 10v18q-1 9 -3 27.5t-9 44.5q-54 216 -148 375q-11 19 -57 19h-12.5t-15.5 -1q7 31 7 60q0 23 -7 37q72 -3 143 -3q69 0 137 3q2 -10 3.5 -19.5t1.5 -20.5q0 -13 -1.5 -25.5t-3.5 -26.5h-2q-11 0 -25 -5.5t-31 -15.5
q4 -38 28 -111t70 -183l65 146q25 56 36 89.5t12 46.5q0 6 -6 12.5t-15 12t-19 9.5t-17 4h-6q2 12 3 23.5t1 22.5t-1 21t-3 20q33 1 66.5 1.5t67.5 0.5q28 0 55 -0.5t55 -1.5q1 -9 1.5 -18.5t0.5 -20.5q0 -12 -0.5 -25.5t-1.5 -27.5h-17q-49 0 -63 -23q-2 -3 -11 -23
t-26 -56q-140 -306 -140 -388v-37q0 -77 69 -90q-1 -10 -1.5 -19.5t-0.5 -20.5q0 -14 0.5 -27.5t1.5 -28.5q-33 5 -65.5 6.5t-64.5 1.5t-62 -1.5t-58 -6.5q6 49 6 87v15zM258 998q31 -6 57.5 -10.5t49.5 -4.5q44 -47 70 -81t34 -52h-103q-2 6 -9 19t-15.5 27t-17 26.5
t-13.5 17.5q-18 -35 -29.5 -60.5t-13.5 -25.5q-17 0 -41 1.5t-59 7.5z" />
    <glyph glyph-name="ycircumflex" unicode="&#x177;" horiz-adv-x="439" 
d="M2 0zM156 533q19 -108 44.5 -206.5t52.5 -195.5q81 279 81 282q0 8 -5 17t-13 16.5t-17 12t-18 4.5q-1 0 -9 -2v41q28 7 69.5 19t98.5 27q3 -11 5 -24t2 -27q0 -5 -0.5 -9.5t-0.5 -9.5q-3 -9 -16 -43t-31 -80.5t-39 -100.5t-40.5 -103.5t-35.5 -89.5t-23 -58
q-23 -55 -37.5 -86.5t-22.5 -42.5q-48 -68 -116 -68q-33 0 -58 19t-25 51q0 23 14.5 43.5t49.5 20.5q8 0 18 -3t18.5 -8.5t14.5 -14t6 -19.5q0 -22 -10.5 -34.5t-24.5 -15.5q6 -3 15 -3q13 0 27.5 20t27.5 46.5t21.5 53.5t8.5 42q0 6 -6 36q-23 103 -48.5 186t-40.5 147
q-11 44 -32.5 60.5t-51.5 18.5q1 7 2 18t2 26q35 13 70 22.5t73 14.5zM169 726q31 -6 57.5 -10.5t49.5 -4.5q44 -47 70 -81t34 -52h-103q-2 6 -9 19t-15.5 27t-17 26.5t-13.5 17.5q-18 -35 -29.5 -60.5t-13.5 -25.5q-17 0 -41 1.5t-59 7.5z" />
    <glyph glyph-name="Ydieresis" unicode="&#x178;" horiz-adv-x="612" 
d="M0 0zM180 76q2 -1 11 -1q54 0 54 107v7t-2 10v18q-1 9 -3 27.5t-9 44.5q-54 216 -148 375q-11 19 -57 19h-12.5t-15.5 -1q7 31 7 60q0 23 -7 37q72 -3 143 -3q69 0 137 3q2 -10 3.5 -19.5t1.5 -20.5q0 -13 -1.5 -25.5t-3.5 -26.5h-2q-11 0 -25 -5.5t-31 -15.5
q4 -38 28 -111t70 -183l65 146q25 56 36 89.5t12 46.5q0 6 -6 12.5t-15 12t-19 9.5t-17 4h-6q2 12 3 23.5t1 22.5t-1 21t-3 20q33 1 66.5 1.5t67.5 0.5q28 0 55 -0.5t55 -1.5q1 -9 1.5 -18.5t0.5 -20.5q0 -12 -0.5 -25.5t-1.5 -27.5h-17q-49 0 -63 -23q-2 -3 -11 -23
t-26 -56q-140 -306 -140 -388v-37q0 -77 69 -90q-1 -10 -1.5 -19.5t-0.5 -20.5q0 -14 0.5 -27.5t1.5 -28.5q-33 5 -65.5 6.5t-64.5 1.5t-62 -1.5t-58 -6.5q6 49 6 87v15zM427 989q26 0 46 -22t20 -52q0 -24 -20.5 -39.5t-46.5 -15.5q-29 0 -48.5 18.5t-19.5 45.5
q0 13 6 24.5t16 20.5t22.5 14.5t24.5 5.5zM184 860q-26 0 -46 22t-20 52q0 24 20.5 39.5t46.5 15.5q29 0 48.5 -18.5t19.5 -45.5q0 -13 -6 -24.5t-16 -20.5t-22.5 -14.5t-24.5 -5.5z" />
    <glyph glyph-name="Zacute" unicode="&#x179;" horiz-adv-x="518" 
d="M5 0zM473 -11q-57 4 -114 6t-114 2q-60 0 -120 -2t-120 -6v84q0 5 21 47.5t64 119t109.5 185.5t157.5 247q-6 8 -21.5 10.5t-35.5 2.5q-42 0 -75 -3t-56 -14t-36 -31.5t-17 -55.5q-12 4 -41 4q-27 0 -40 -4q15 48 27 95.5t20 97.5q73 -3 148 -3q72 0 141 4t144 10v-85
q0 -6 -32.5 -64.5t-101.5 -170.5q-12 -21 -32 -53t-43.5 -69t-48 -75.5t-46.5 -73t-39.5 -60.5t-25.5 -38q32 -3 64.5 -4t64.5 -1q59 0 119 3q10 0 19.5 8t16.5 21t11 29.5t4 34.5q1 -2 81 -6q-15 -42 -28 -89t-25 -103zM197 887q39 32 79 60t83 51q16 -16 25.5 -34.5
t15.5 -38.5q-44 -11 -88 -30.5t-89 -44.5q-8 8 -14 17t-12 20z" />
    <glyph glyph-name="zacute" unicode="&#x17a;" horiz-adv-x="416" 
d="M0 0zM352 -7q-77 3 -151 3q-95 0 -189 -3q-1 10 -4.5 22t-8.5 26q60 99 121 193t130 185q0 20 -16 20q-106 0 -134 -117q-12 4 -42 4q-28 0 -40 -4q16 45 29 90.5t19 93.5h181q60 0 141 12v-83q-18 -15 -37.5 -39t-47.5 -65t-67 -102.5t-97 -150.5q24 -8 65 -8
q58 0 84 25t36 85q21 0 42 -1.5t41 -5.5q-16 -37 -29.5 -81.5t-25.5 -98.5zM136 615q39 32 79 60t83 51q16 -16 25.5 -34.5t15.5 -38.5q-44 -11 -88 -30.5t-89 -44.5q-8 8 -14 17t-12 20z" />
    </font>
</defs>
</svg>
